<svg xmlns="http://www.w3.org/2000/svg" width="127.396" height="80.646" viewBox="0 0 127.396 80.646">
  <g id="Group_1801" data-name="Group 1801" transform="translate(-3570.462 -1547.84)">
    <g id="Group_1799" data-name="Group 1799" transform="translate(3602.805 1557.013)">
      <path id="Path_9313" data-name="Path 9313" d="M3855.408,1835.134a31.147,31.147,0,0,0-.752,11.362c2.468,2.336,5.04,4.56,7.574,6.728,3.845,3.287,7.548,6.694,11.219,10.154-1.295-1.608-2.525-3.267-3.7-4.962C3864.544,1850.919,3860.424,1842.744,3855.408,1835.134Z" transform="translate(-3854.44 -1811.586)" fill="#edbb8f"/>
      <path id="Path_9314" data-name="Path 9314" d="M3915.925,1722.394c2.929,6.379,7.37,12.119,12.107,17.242,4.189,4.529,8.695,8.746,13.027,13.135,4.428,4.487,8.628,9.193,13.13,13.606.807.791,1.625,1.575,2.456,2.337a31,31,0,0,0,7.025-5.928,53.688,53.688,0,0,1-13.214-5.9c-11.2-7.011-19.959-17.451-28.044-27.739-1.974-2.513-3.886-5.074-5.678-7.714C3916.457,1721.746,3916.187,1722.065,3915.925,1722.394Z" transform="translate(-3908.923 -1710.834)" fill="#edbb8f"/>
      <path id="Path_9315" data-name="Path 9315" d="M4029.514,1630.619c3.123,3.66,6.4,7.2,9.778,10.619,4.293,4.34,8.78,8.5,13.48,12.4a100.7,100.7,0,0,0,13.793,9.982,41.928,41.928,0,0,0,4.927,2.441,30.97,30.97,0,0,0,.553-3.972q-1.395-.839-2.777-1.692a55.514,55.514,0,0,1-11.683-9.57,145.152,145.152,0,0,1-9.436-11.908c-2.631-3.544-5.566-6.873-8.193-10.411A31.424,31.424,0,0,0,4029.514,1630.619Z" transform="translate(-4009.574 -1628.49)" fill="#edbb8f"/>
      <path id="Path_9316" data-name="Path 9316" d="M4195.737,1636.547c6.163,8.839,13.35,16.92,22.617,22.25a31.335,31.335,0,0,0-22.617-22.25Z" transform="translate(-4156.866 -1635.617)" fill="#edbb8f"/>
      <path id="Path_9317" data-name="Path 9317" d="M4121.19,1628.392c2.627,3.538,5.562,6.867,8.193,10.411a145.258,145.258,0,0,0,9.437,11.908,55.526,55.526,0,0,0,11.683,9.57q1.379.856,2.777,1.692.1-1.275.083-2.548a31.244,31.244,0,0,0-.627-5.987q-.193-.946-.439-1.881c-9.267-5.33-16.454-13.411-22.617-22.25q-1.419-.355-2.853-.572c-.86-.134-1.727-.229-2.59-.286Q4122.714,1628.346,4121.19,1628.392Z" transform="translate(-4090.809 -1628.378)" fill="#ffd2b3"/>
      <path id="Path_9318" data-name="Path 9318" d="M3923.032,1655.543c1.792,2.64,3.7,5.2,5.678,7.714,8.085,10.287,16.841,20.728,28.044,27.739a53.692,53.692,0,0,0,13.214,5.9q.663-.76,1.289-1.572c.617-.8,1.2-1.642,1.75-2.518.068-.106.132-.212.2-.32q.423-.7.808-1.4a30.971,30.971,0,0,0,2.656-6.619c.181-.647.337-1.3.468-1.953a41.929,41.929,0,0,1-4.927-2.441,100.687,100.687,0,0,1-13.793-9.982c-4.7-3.9-9.187-8.057-13.48-12.4-3.383-3.417-6.654-6.958-9.778-10.618q-1,.387-1.973.845c-.49.229-.976.471-1.451.729-.591.312-1.165.644-1.73,1a30.668,30.668,0,0,0-5.47,4.305Q3923.758,1654.711,3923.032,1655.543Z" transform="translate(-3915.22 -1644.945)" fill="#ffd2b3"/>
      <path id="Path_9319" data-name="Path 9319" d="M3860.688,1733.323a31.345,31.345,0,0,0-2.7,5.615,29.791,29.791,0,0,0-.9,2.925c5.016,7.61,9.135,15.786,14.339,23.283,1.177,1.695,2.407,3.354,3.7,4.962-3.671-3.46-7.375-6.866-11.219-10.154-2.534-2.168-5.106-4.392-7.574-6.728a31.81,31.81,0,0,0,1.015,5.036,31.271,31.271,0,0,0,38.453,21.45c.912-.253,1.814-.548,2.7-.884a30.755,30.755,0,0,0,3.418-1.535q.983-.511,1.925-1.1c-.832-.763-1.65-1.546-2.457-2.337-4.5-4.413-8.7-9.119-13.13-13.606-4.332-4.389-8.838-8.606-13.027-13.135-4.737-5.123-9.178-10.863-12.107-17.242q-.768.94-1.461,1.954C3861.321,1732.312,3861,1732.812,3860.688,1733.323Z" transform="translate(-3856.117 -1718.314)" fill="#ffd2b3"/>
      <path id="Path_9320" data-name="Path 9320" d="M4011.945,1692.215a101.457,101.457,0,0,0,15.322,12.84c.068-.106.132-.212.2-.32q.423-.695.808-1.4a103.634,103.634,0,0,1-15.916-13.512c-4.857-4.813-9.682-9.65-14.585-14.417-4.507-4.38-8.723-8.991-11.777-14.507-.591.312-1.165.644-1.73,1,.014.03.03.058.045.085,3.211,5.792,7.685,10.607,12.415,15.184C4001.854,1682.128,4006.85,1687.217,4011.945,1692.215Z" transform="translate(-3969.479 -1657.193)" fill="#edbb8f"/>
      <path id="Path_9321" data-name="Path 9321" d="M3923.032,1709.043c1.792,2.64,3.7,5.2,5.678,7.714,8.085,10.287,16.841,20.728,28.044,27.739a53.688,53.688,0,0,0,13.214,5.9q.663-.76,1.289-1.572a53.017,53.017,0,0,1-15.39-7.241,86.145,86.145,0,0,1-14.564-13.054c-4.32-4.717-8.387-9.7-12.263-14.781-1.564-2.054-3.074-4.15-4.5-6.3Q3923.758,1708.212,3923.032,1709.043Z" transform="translate(-3915.22 -1698.445)" fill="#edbb8f"/>
      <path id="Path_9322" data-name="Path 9322" d="M4121.19,1628.392c2.627,3.538,5.562,6.867,8.193,10.411a145.258,145.258,0,0,0,9.437,11.908,55.526,55.526,0,0,0,11.683,9.57q1.379.856,2.777,1.692.1-1.275.083-2.548c-.561-.359-1.119-.724-1.676-1.089a58.247,58.247,0,0,1-11.337-9.439,138.311,138.311,0,0,1-8.746-11.051c-2.369-3.2-4.927-6.257-7.368-9.4Q4122.714,1628.346,4121.19,1628.392Z" transform="translate(-4090.809 -1628.378)" fill="#edbb8f"/>
      <path id="Path_9323" data-name="Path 9323" d="M4012.193,1647.919a182.058,182.058,0,0,0,26.423,25.777c5.13,4.052,10.832,8.319,17.059,10.77.182-.647.337-1.3.468-1.953a41.888,41.888,0,0,1-4.927-2.441,100.677,100.677,0,0,1-13.793-9.982c-4.7-3.9-9.187-8.057-13.48-12.4-3.383-3.417-6.654-6.958-9.778-10.618Q4013.167,1647.461,4012.193,1647.919Z" transform="translate(-3994.226 -1644.945)" fill="#edbb8f"/>
      <path id="Path_9324" data-name="Path 9324" d="M4170.687,1631.525c6.978,10,15.065,19.206,25.909,24.7q-.193-.946-.439-1.881c-9.267-5.33-16.454-13.411-22.616-22.25Q4172.121,1631.742,4170.687,1631.525Z" transform="translate(-4134.669 -1631.167)" fill="#edbb8f"/>
      <path id="Path_9325" data-name="Path 9325" d="M3871.425,1835.66c1.177,1.695,2.407,3.354,3.7,4.962-3.671-3.459-7.375-6.866-11.219-10.154-2.534-2.168-5.106-4.392-7.574-6.728a31.812,31.812,0,0,0,1.015,5.036c3.531,3.11,7.2,6.086,10.739,9.165,4.879,4.25,9.436,9.028,14.515,13.074a31.087,31.087,0,0,0,7.476.247c-2.714-2.465-5.813-4.547-8.448-7.113-6.7-6.534-11.5-14.66-16.236-22.651,9.117,10.6,18.787,21.314,30.408,28.728.912-.253,1.814-.548,2.7-.884-10.279-6.192-18.774-14.792-26.642-23.759-4.182-4.767-8.22-9.656-12.371-14.45-.478-.555-.981-1.114-1.5-1.68a29.8,29.8,0,0,0-.9,2.925C3862.1,1819.988,3866.221,1828.163,3871.425,1835.66Z" transform="translate(-3856.117 -1788.83)" fill="#edbb8f"/>
      <path id="Path_9326" data-name="Path 9326" d="M3903.1,1731.828q.808,1.678,1.749,3.292c6.269,10.809,15.886,18.984,24.5,27.837,4.628,4.757,9.128,9.783,14.007,14.335q.983-.511,1.925-1.1c-.832-.763-1.65-1.546-2.457-2.337-4.5-4.413-8.7-9.119-13.13-13.606-4.332-4.389-8.838-8.606-13.027-13.135-4.737-5.123-9.178-10.863-12.107-17.242Q3903.79,1730.814,3903.1,1731.828Z" transform="translate(-3897.555 -1718.314)" fill="#edbb8f"/>
      <g id="Group_1798" data-name="Group 1798" transform="translate(0.006 0.005)" opacity="0.3" style="mix-blend-mode: multiply;isolation: isolate">
        <g id="Group_1797" data-name="Group 1797">
          <path id="Path_9327" data-name="Path 9327" d="M3917,1661.017c-.026.371-.037.923-.1,1.64s-.17,1.6-.366,2.624c-.051.256-.083.525-.154.8l-.2.845c-.14.581-.275,1.2-.477,1.844a30.8,30.8,0,0,1-1.588,4.153,24.676,24.676,0,0,1-1.176,2.234c-.222.376-.437.766-.675,1.151l-.759,1.153a31.361,31.361,0,0,1-9,8.652,31.044,31.044,0,0,1-13.95,4.731,32.437,32.437,0,0,1-8.091-.329,31.313,31.313,0,0,1-21.165-14.167,31.416,31.416,0,0,1-4.79-17.417,28.785,28.785,0,0,1,.462-4.576c.114-.759.269-1.51.458-2.252s.4-1.479.637-2.205a31,31,0,0,1,1.749-4.225c.172-.339.343-.679.536-1.006l.575-.983c.2-.325.374-.66.584-.975s.417-.631.633-.941a31.212,31.212,0,0,1,25.932-13.341l.507.008.5.024,1,.05.995.1.495.049.49.071.976.142.961.186.479.093.471.115.938.228a32.006,32.006,0,0,1,3.585,1.207,31.421,31.421,0,0,1,11.257,7.773,31.307,31.307,0,0,1,5.991,9.395,31.991,31.991,0,0,1,1.385,4.225,31.474,31.474,0,0,1,.9,6.162c.032.719.034,1.271.032,1.643s-.008.564-.008.564Zm.037-1.127c0-.372-.005-.924-.043-1.642a25.624,25.624,0,0,0-.263-2.635q-.117-.773-.3-1.651c-.117-.585-.266-1.2-.453-1.844a27.438,27.438,0,0,0-4.167-8.591c-.544-.743-1.129-1.481-1.781-2.209a28.609,28.609,0,0,0-2.11-2.1q-.571-.506-1.18-.995l-.152-.122c.032.032-.015-.009-.018-.009l-.04-.031-.081-.062-.326-.247c-.216-.167-.441-.328-.664-.491l-.654-.427c-.22-.142-.429-.289-.667-.424-.466-.273-.921-.563-1.41-.812a22.96,22.96,0,0,0-3.016-1.392c-.258-.108-.531-.189-.8-.285s-.53-.193-.8-.271c-.547-.157-1.086-.336-1.647-.46-.278-.068-.556-.138-.838-.194l-.853-.152c-.142-.025-.283-.053-.427-.074l-.432-.055-.863-.111-.872-.069-.435-.035-.439-.013-.877-.028-.882.015-.44.007-.442.029-.881.058-.882.1-.44.05c-.067,0,.031,0,0,.008l-.063.008-.127.016-.254.033c-.371.04-.6.1-.874.15s-.577.115-.862.18q-.866.2-1.717.447a25.448,25.448,0,0,0-3.315,1.241c-.538.24-1.062.511-1.581.788l-.769.429-.191.108s-.07.033-.01.012l-.059.033-.119.065-.235.13-.162.1-.72.464q-.364.243-.719.5c-.474.339-.932.7-1.383,1.066s-.893.741-1.319,1.134l-.08.074s-.053.043-.013.018l-.052.046-.208.185-.279.28q-.308.3-.6.621t-.581.641c-.191.215-.382.429-.566.649s-.366.441-.542.666l-.271.349-.044.055-.027.038-.054.076-.128.17c-.343.457-.658.913-.97,1.4s-.6.956-.882,1.451q-.207.368-.4.742l-.048.094-.024.047c.058-.092-.163.271.123-.194l-.128.255-.258.508-.516,1.017-.064.127-.032.064c.337-.6.077-.13.145-.247l-.118.26-.059.13-.03.065-.015.041-.061.161-.145.363c-.054.129-.1.26-.153.39q-.15.391-.284.788c-.177.529-.339,1.061-.491,1.6s-.278,1.075-.387,1.62c-.058.271-.114.543-.162.816l-.019.1-.01.051c.021-.112-.06.323.044-.238l-.041.285-.083.569-.165,1.139c.079-.535.017-.107.033-.208l-.008.071-.012.106-.021.19-.04.412q-.036.414-.058.833c-.015.291-.021.514-.032.944.012-.635,0-.135.006-.258v.5l0,.576,0,.288v.144c0,.272-.006-.29,0-.206l0,.072.015.482.018.385.027.416.069.828c.05.552.124,1.1.215,1.645l.146.815q.037.2.08.406l.01.051c-.028-.094.076.282-.059-.2l.036.139.072.278.288,1.11.072.277.036.139c-.175-.555-.037-.115-.071-.221l.02.069.108.4q.227.8.516,1.589c.1.265.189.519.3.8.089.236.2.511.312.764s.229.516.351.772l.046.1c-.045-.073.006.016,0,.016l.031.064.12.24.074.16.091.185q.38.76.813,1.489t.9,1.442l.12.175.06.087.03.044c.139.157-.157-.166-.109-.111l.345.445.686.891.085.111.043.056c-.566-.569-.131-.127-.245-.24l.183.212.365.424.6.7.234.285a3.272,3.272,0,0,0,.258.3l.6.63c.2.209.415.4.621.6.1.1.207.2.314.3l.327.284c.22.187.432.389.657.571l.673.558c.226.184.464.35.7.528l.351.264.362.244c.243.16.48.335.729.487l.749.456c.246.165.507.292.761.442s.51.3.774.421l.789.4.806.357.405.179.412.157c.275.1.55.214.828.315a27.2,27.2,0,0,0,13.839,1.07c.281-.055.559-.115.836-.179l.425-.1.407-.1q.817-.212,1.615-.474c.544-.178,1.061-.363,1.579-.565s1.006-.426,1.511-.671a26.885,26.885,0,0,0,5.354-3.352,26.573,26.573,0,0,0,2.214-1.994l.254-.259.127-.129.031-.032c.014-.015-.013.021.013-.011l.062-.069.481-.551.473-.543.234-.268.116-.133s.043-.056.005,0l.027-.035.053-.07c.285-.373.571-.736.841-1.1l.051-.068c.022-.033,0,.008.01-.01l.023-.035.093-.141.186-.28.367-.552.36-.542.08-.121.083-.136.164-.271c.214-.353.407-.716.6-1.068q.56-1.065,1-2.082c.285-.68.533-1.339.747-1.973a28.889,28.889,0,0,0,1.32-6.071c.069-.715.084-1.268.112-1.639s.034-.563.034-.563S3917.038,1660.263,3917.037,1659.891Z" transform="translate(-3854.497 -1628.422)" fill="#edbb8f"/>
        </g>
      </g>
    </g>
    <g id="Group_1800" data-name="Group 1800" transform="translate(3570.462 1547.84)">
      <path id="Path_9328" data-name="Path 9328" d="M3665.116,1592.214l7.758,5.645c17.16,13.281,27.191,24.55,24.572,28.849-3.971,6.52-35.524-5.452-70.475-26.74s-60.066-43.831-56.095-50.35c2.619-4.3,17.234-.557,36.908,8.6l8.576,4.3-2.322,1.76c-15.38-6.962-26.9-9.6-29.131-5.94-3.376,5.542,15.905,23.446,43.065,39.988s51.914,25.459,55.29,19.917c2.226-3.655-5.4-12.686-18.644-23.158Z" transform="translate(-3570.462 -1547.84)" fill="#fff"/>
    </g>
  </g>
</svg>
