<svg xmlns="http://www.w3.org/2000/svg" width="151.218" height="151.218" viewBox="0 0 151.218 151.218">
  <g id="Group_4906" data-name="Group 4906" transform="matrix(0.087, -0.996, 0.996, 0.087, -87.62, 672.369)">
    <g id="Group_4907" data-name="Group 4907" transform="translate(530.142 32.023)">
      <g id="Group_4904" data-name="Group 4904">
        <circle id="Ellipse_1843" data-name="Ellipse 1843" cx="59.621" cy="59.621" r="59.621" transform="translate(0 47.987) rotate(-23.731)" fill="#ffd05d"/>
      </g>
      <g id="Group_4905" data-name="Group 4905" transform="translate(18.988 54.603)">
        <path id="Path_14794" data-name="Path 14794" d="M666.111,94.488a59.63,59.63,0,0,1-114.2,21.6,59.626,59.626,0,1,0,114.2-21.6Z" transform="translate(-551.864 -94.488)" fill="#fdc453"/>
      </g>
      <g id="Group_4906-2" data-name="Group 4906" transform="translate(22.908 23.164)">
        <path id="Path_14795" data-name="Path 14795" d="M566.126,89.685a55.354,55.354,0,0,1,100.737,28.948,55.358,55.358,0,1,0-110.449-2.1A55.092,55.092,0,0,1,566.126,89.685Z" transform="translate(-556.349 -58.522)" fill="#ffd77f"/>
      </g>
    </g>
    <g id="Group_4908" data-name="Group 4908" transform="translate(577.894 106.146)">
      <path id="Path_14796" data-name="Path 14796" d="M587.821,116.82a25.5,25.5,0,0,0,41.61,28.934Z" transform="translate(-584.77 -116.82)" fill="#695342"/>
      <path id="Path_14797" data-name="Path 14797" d="M585.4,136.639a25.481,25.481,0,0,0,27.938,20.1l.12-.583C604.222,139.625,585.652,136.679,585.4,136.639Z" transform="translate(-584.849 -119.315)" fill="#f06669"/>
    </g>
    <g id="Group_4909" data-name="Group 4909" transform="translate(578.492 65.83)">
      <path id="Path_14798" data-name="Path 14798" d="M618.825,96.537c.017-.024.035-.046.052-.071,3.143-4.52,2.752-10.933-2.164-14.351a8.772,8.772,0,0,0-10.723.607h0a8.774,8.774,0,0,0-3.165-10.264c-4.915-3.418-11.063-1.552-14.206,2.969-.017.024-.031.049-.048.073-.71.966-7.644,10.99,1.809,29.664l0,0h0l0,0h0l0,0,0,0C611.184,107.529,618.167,97.539,618.825,96.537Z" transform="translate(-585.454 -70.699)" fill="#e62728"/>
      <path id="Path_14799" data-name="Path 14799" d="M668.88,131.343c.017-.024.035-.047.052-.071,3.143-4.521,2.752-10.933-2.163-14.351a8.773,8.773,0,0,0-10.723.607h0a8.772,8.772,0,0,0-3.165-10.263c-4.915-3.418-11.063-1.552-14.206,2.968-.017.024-.031.05-.048.073-.71.965-7.644,10.99,1.809,29.664l0,0h0v0h0v0l0,0C661.239,142.335,668.222,132.344,668.88,131.343Z" transform="translate(-591.755 -75.08)" fill="#e62728"/>
    </g>
  </g>
</svg>
