<svg id="Group_4974" data-name="Group 4974" xmlns="http://www.w3.org/2000/svg" width="968.057" height="338.762" viewBox="0 0 968.057 338.762">
  <g id="Group_4941" data-name="Group 4941">
    <g id="Group_4940" data-name="Group 4940">
      <g id="Group_4935" data-name="Group 4935">
        <path id="Path_14818" data-name="Path 14818" d="M1632.663,268.679l-50.769,56.568-883.03-53.87Z" transform="translate(-666.977 13.515)" fill="#e0e0e0"/>
        <path id="Path_14819" data-name="Path 14819" d="M1640.252,420.671c0,5.251-3.5,9.509-7.812,9.509H704.082c-4.315,0-7.815-4.258-7.815-9.509V199.152c0-5.251,3.5-9.509,7.815-9.509h871.079c4.316,0,6.524,4.273,7.812,9.509Z" transform="translate(-672.194 -145.289)" fill="#fff"/>
        <g id="Group_4934" data-name="Group 4934">
          <path id="Path_14820" data-name="Path 14820" d="M858.768,377.226,943.58,189.643H696.267V377.226Z" transform="translate(-672.193 -145.289)" fill="#e5e5e5"/>
          <path id="Path_14821" data-name="Path 14821" d="M767.261,174.9l-78.993,34.327V397.813l78.993-56.677Z" transform="translate(-688.267 -174.904)" fill="#d61656"/>
          <path id="Path_14822" data-name="Path 14822" d="M865.814,374.893H688.267V186.311h262.81Z" transform="translate(-688.267 -151.984)" fill="#ff3c6a"/>
        </g>
      </g>
      <path id="Path_14823" data-name="Path 14823" d="M845.222,267.65A72.226,72.226,0,1,1,773,195.427,72.225,72.225,0,0,1,845.222,267.65Z" transform="translate(-663.144 -133.667)" fill="#e5e5e5" style="mix-blend-mode: multiply;isolation: isolate"/>
      <path id="Path_14824" data-name="Path 14824" d="M831,261.957a63.7,63.7,0,1,1-63.7-63.7A63.7,63.7,0,0,1,831,261.957Z" transform="translate(-657.45 -127.975)" fill="#fff"/>
    </g>
    <rect id="Rectangle_825" data-name="Rectangle 825" width="78.59" height="51.595" transform="translate(71.012 102.279)" fill="#fdfefe"/>
  </g>
  <g id="Group_4967" data-name="Group 4967" transform="translate(67.656 85.219)">
    <rect id="Rectangle_826" data-name="Rectangle 826" width="11.702" height="1.062" rx="0.172" transform="translate(0 41.038) rotate(-0.538)" fill="#fdba14"/>
    <rect id="Rectangle_827" data-name="Rectangle 827" width="11.702" height="1.062" rx="0.172" transform="matrix(0.871, 0.492, -0.492, 0.871, 6.144, 20.788)" fill="#fdba14"/>
    <rect id="Rectangle_828" data-name="Rectangle 828" width="11.702" height="1.062" rx="0.172" transform="translate(76.448 20.391) rotate(149.51)" fill="#fdba14"/>
    <path id="Rectangle_829" data-name="Rectangle 829" d="M.172,0H11.53A.171.171,0,0,1,11.7.171V.89a.172.172,0,0,1-.172.172H.172A.172.172,0,0,1,0,.89V.172A.172.172,0,0,1,.172,0Z" transform="translate(82.843 40.819) rotate(179.519)" fill="#fdba14"/>
    <path id="Path_14846" data-name="Path 14846" d="M763.139,230.811a21.833,21.833,0,0,0-8.986-16.4s-5-4.282-14.071-4.342c-9.07.06-14.05,4.342-14.05,4.342a21.777,21.777,0,0,0-8.971,16.4c-1.044,8.137,8.146,22.308,8.146,22.308,4.941,7.267,6.229,16.554,6.229,16.554h17.33s1.288-9.287,6.229-16.554C755,253.119,764.186,238.948,763.139,230.811Z" transform="translate(-698.235 -189.462)" fill="#ffd15f" stroke="#666" stroke-miterlimit="10" stroke-width="0.5"/>
    <g id="Group_4966" data-name="Group 4966" transform="translate(32.969 49.17)">
      <path id="Path_14847" data-name="Path 14847" d="M730.436,219.569l.039.006a.1.1,0,0,1,.054.132,68.111,68.111,0,0,0-4.475,16.933,72.522,72.522,0,0,0,.319,13.722.1.1,0,0,1-.087.111.1.1,0,0,1-.111-.087,72.678,72.678,0,0,1-.319-13.767,68.305,68.305,0,0,1,4.49-16.99A.1.1,0,0,1,730.436,219.569Z" transform="translate(-713.81 -219.548)" fill="#020608"/>
      <path id="Path_14848" data-name="Path 14848" d="M721.812,219.62a.106.106,0,0,1,.093.06,69.589,69.589,0,0,1,4.592,16.906,81.058,81.058,0,0,1,.154,13.764.1.1,0,0,1-.108.09.1.1,0,0,1-.09-.105,81.012,81.012,0,0,0-.154-13.728,69.373,69.373,0,0,0-4.577-16.846.1.1,0,0,1,.051-.132Z" transform="translate(-721.692 -219.445)" fill="#020608"/>
      <path id="Path_14849" data-name="Path 14849" d="M738.332,219.562a.12.12,0,0,1,.12.117.123.123,0,0,1-.117.123c-.445,0-.677.421-.921.867-.265.485-.542.984-1.126.99h-.009c-.581,0-.863-.494-1.137-.969-.25-.436-.488-.852-.93-.852l-.006,0c-.445,0-.674.421-.918.867-.268.485-.542.984-1.129.99h-.009c-.581,0-.863-.493-1.135-.969-.253-.439-.487-.852-.93-.852h-.006c-.445.006-.677.424-.921.867-.265.485-.539.987-1.125.993h-.009c-.581,0-.864-.493-1.138-.972-.25-.436-.484-.849-.927-.849h-.006c-.445.006-.677.424-.921.867-.265.485-.539.987-1.126.993s-.87-.491-1.147-.972c-.25-.439-.491-.855-.933-.849a.123.123,0,0,1-.123-.117.125.125,0,0,1,.12-.123h.009c.581,0,.864.493,1.134.972.253.436.488.849.93.849h.006c.445,0,.677-.424.921-.867.265-.485.539-.987,1.126-.99h.009c.581,0,.864.491,1.138.969.25.436.484.849.927.849h.006c.445,0,.677-.424.921-.867.265-.485.539-.984,1.125-.99h.009c.581,0,.864.494,1.137.969.25.436.488.849.927.849h.006c.449,0,.677-.421.921-.867.265-.485.542-.984,1.126-.99h.012c.578,0,.861.493,1.135.969.25.436.487.849.93.849h.006c.445,0,.677-.421.918-.867.268-.484.542-.984,1.129-.99Z" transform="translate(-721.706 -219.562)" fill="#020608"/>
    </g>
    <path id="Path_14850" data-name="Path 14850" d="M737.293,234.057l-7.451-.039h0l-7.547-.009s-.511.524.77,1.577a38.543,38.543,0,0,0,5.564,2.952,2.619,2.619,0,0,0,1.258.352h0a2.605,2.605,0,0,0,1.249-.376,38.417,38.417,0,0,0,5.507-3.054C737.906,234.382,737.293,234.057,737.293,234.057Z" transform="translate(-687.763 -141.364)" fill="#19334b" stroke="#565656" stroke-miterlimit="10" stroke-width="0.473"/>
    <rect id="Rectangle_830" data-name="Rectangle 830" width="11.702" height="1.062" rx="0.172" transform="matrix(0.508, 0.861, -0.861, 0.508, 20.623, 5.766)" fill="#fdba14"/>
    <rect id="Rectangle_831" data-name="Rectangle 831" width="11.702" height="1.062" rx="0.172" transform="translate(40.675 0) rotate(89.491)" fill="#fdba14"/>
    <path id="Rectangle_832" data-name="Rectangle 832" d="M.171,0H11.53A.172.172,0,0,1,11.7.172V.89a.172.172,0,0,1-.172.172H.172A.172.172,0,0,1,0,.89V.171A.171.171,0,0,1,.171,0Z" transform="translate(60.922 5.035) rotate(119.501)" fill="#fdba14"/>
    <rect id="Rectangle_833" data-name="Rectangle 833" width="14.794" height="9.184" transform="translate(49.374 92.684) rotate(180)" fill="#fdfefe" stroke="#565656" stroke-miterlimit="10" stroke-width="0.5"/>
    <rect id="Rectangle_834" data-name="Rectangle 834" width="18.103" height="3.171" rx="0.204" transform="translate(50.94 83.501) rotate(180)" fill="#fdfefe" stroke="#565656" stroke-miterlimit="10" stroke-width="0.5"/>
  </g>
</svg>
