<svg xmlns="http://www.w3.org/2000/svg" width="783.603" height="957.968" viewBox="0 0 783.603 957.968">
  <g id="Group_5057" data-name="Group 5057" transform="matrix(0.985, 0.174, -0.174, 0.985, -19.73, -184.758)">
    <g id="Group_4975" data-name="Group 4975" transform="translate(367.772 422.087)">
      <path id="Path_14866" data-name="Path 14866" d="M192.069,201.084l3.743,31.767a74.15,74.15,0,0,0,77.344,65.376h0l-3.373-21.11h0a49.307,49.307,0,0,1-49.412-44.108l-2.286-21.554Z" transform="translate(-192.069 -201.084)" fill="#4160a1"/>
    </g>
    <g id="Group_4976" data-name="Group 4976" transform="translate(367.772 333.435)">
      <path id="Path_14867" data-name="Path 14867" d="M194.469,168.542l-2.4,88.652,24.172-7.756,2.95-67.8A105.037,105.037,0,0,1,194.469,168.542Z" transform="translate(-192.069 -168.542)" fill="#4160a1"/>
    </g>
    <g id="Group_4977" data-name="Group 4977" transform="translate(362.378 231.833)">
      <path id="Path_14868" data-name="Path 14868" d="M235.837,194.328s5.89-2.253,7.456-6.233-15.158-27.109-15.158-27.109,5.789-9.5,2.792-19.247-11.039-12.7-20.854-8.873-19.985,21.778-19.985,21.778l8.551,1.425s9.437,21.271,14.384,25.927S235.837,194.328,235.837,194.328Z" transform="translate(-190.089 -131.247)" fill="#4160a1"/>
    </g>
    <g id="Group_4978" data-name="Group 4978" transform="translate(374.727 247.057)">
      <path id="Path_14869" data-name="Path 14869" d="M194.622,146.868c7.353,12.818,27.975,43.672,27.975,43.672l5.481-12.627-17.964-41.079Z" transform="translate(-194.622 -136.835)" fill="#4160a1"/>
    </g>
    <g id="Group_4979" data-name="Group 4979" transform="translate(561.98 534.222)">
      <path id="Path_14870" data-name="Path 14870" d="M434.936,347.189C424.347,337.352,347.8,242.246,347.8,242.246l-84.446,19.623c11.191,23.442,2.117,44.114,19.358,63.535l2.757-1.392,86.535,81.694,159.425,175.1s33-36.734,42.092-55.062C573.526,525.747,445.525,357.029,434.936,347.189Z" transform="translate(-263.358 -242.246)" fill="#e8e7e2"/>
    </g>
    <g id="Group_4980" data-name="Group 4980" transform="translate(470.618 521.437)">
      <path id="Path_14871" data-name="Path 14871" d="M317.318,237.553l-87.5,74.78S280.048,468.8,283.39,479.242c5.372,16.789,68.9,170.647,68.9,170.647s52.177-6.165,66.9-20.672c0,0-50.532-171.2-50.265-170.54s-27.689-126.492-27.689-126.492l2.062-.082C335.756,307.416,317.822,263.376,317.318,237.553Z" transform="translate(-229.821 -237.553)" fill="#e8e7e2"/>
    </g>
    <g id="Group_4982" data-name="Group 4982" transform="translate(469.389 488.205)">
      <g id="Group_4981" data-name="Group 4981">
        <path id="Path_14872" data-name="Path 14872" d="M377.125,230.783c-2.19-3.37-3.749-5.429-3.749-5.429L229.37,276.75s.349,2.471,1.008,6.674c.817.6,1.471,1.049,1.471,1.049C289.712,288.941,357.633,267.171,377.125,230.783Z" transform="translate(-229.37 -225.354)" fill="#301601"/>
      </g>
    </g>
    <g id="Group_4983" data-name="Group 4983" transform="translate(430.775 384.076)">
      <path id="Path_14873" data-name="Path 14873" d="M215.2,248.946l26.3,73,11.917,72.263,173.976-67.7-3.6-7.422L359.7,187.131Z" transform="translate(-215.196 -187.131)" fill="#e8e7e2"/>
    </g>
    <g id="Group_4985" data-name="Group 4985" transform="translate(403.589 333.67)">
      <g id="Group_4984" data-name="Group 4984">
        <path id="Path_14874" data-name="Path 14874" d="M321.453,169c13.806,1.218,59.092,9.788,55.452,50.033l40.049,107.419s11.221,14.934,8.688,19.677c-19.47,36.488-87.413,58.288-145.346,53.812,0,0-3.8-2.572-4.59-3.838-4.255-6.808-4.634-29.5-4.634-29.5l-39.7-85.424s-42.792-64.107-18.909-69.457c0,0,17.629-2.476,27.964-10.578C257.275,187.934,281.393,165.465,321.453,169Z" transform="translate(-205.217 -168.628)" fill="#e8e7e2"/>
      </g>
    </g>
    <g id="Group_4986" data-name="Group 4986" transform="translate(464.837 388.918)">
      <path id="Path_14875" data-name="Path 14875" d="M227.7,190.933,285.63,371.484,292,369.659l-57.995-180.75Z" transform="translate(-227.699 -188.909)" fill="#d4d3ca"/>
    </g>
    <g id="Group_4987" data-name="Group 4987" transform="translate(436.911 353.395)">
      <path id="Path_14876" data-name="Path 14876" d="M217.448,218.406l101.683-42.537,8.959,15.545L221.573,231.263Z" transform="translate(-217.448 -175.869)" fill="#d4d3ca"/>
    </g>
    <g id="Group_4990" data-name="Group 4990" transform="translate(422.646 304.19)">
      <g id="Group_4989" data-name="Group 4989">
        <g id="Group_4988" data-name="Group 4988">
          <path id="Path_14877" data-name="Path 14877" d="M282.057,194.845,266.983,165.9l-.75-1.964-54.021-6.129,32.409,49.049Z" transform="translate(-212.212 -157.807)" fill="#ebbea3"/>
        </g>
      </g>
    </g>
    <g id="Group_4992" data-name="Group 4992" transform="translate(422.647 304.19)">
      <g id="Group_4991" data-name="Group 4991">
        <path id="Path_14878" data-name="Path 14878" d="M266.6,187.044a49.726,49.726,0,0,1-15.847.425,104.2,104.2,0,0,1-15.125-2.915l-23.418-26.747,54.019,6.13.752,1.964,9.829,18.876C273.4,185.507,270.026,186.371,266.6,187.044Z" transform="translate(-212.212 -157.807)" fill="#df9b7e"/>
      </g>
    </g>
    <g id="Group_4993" data-name="Group 4993" transform="translate(384.048 202.079)">
      <path id="Path_14879" data-name="Path 14879" d="M209.364,195.814s-17.492,1.512-8.99,20.247,22.717,14.6,27.144,14.112c0,0,18.874,32.165,60.56,15.13s24.058-47.889,16.7-69.741-17.135-60.753-46.021-54.583C229.622,127.2,189.412,142.152,209.364,195.814Z" transform="translate(-198.043 -120.325)" fill="#ebbea3"/>
    </g>
    <g id="Group_4995" data-name="Group 4995" transform="translate(456.556 266.858)">
      <g id="Group_4994" data-name="Group 4994">
        <path id="Path_14880" data-name="Path 14880" d="M235.291,165.608c-.166-.4,1.117-1.223,1.269-3.28a5.561,5.561,0,0,0-.779-3.337,20.747,20.747,0,0,0-3.008-3.795c-5.064-5.522-8.669-10.467-8.045-11.039s5.233,3.446,10.3,8.974a17.152,17.152,0,0,1,3.291,4.639,7.935,7.935,0,0,1,.662,2.653,6.6,6.6,0,0,1-.316,2.386,4.562,4.562,0,0,1-2.092,2.692C235.836,165.869,235.362,165.788,235.291,165.608Z" transform="translate(-224.659 -144.103)" fill="#df9b7e"/>
      </g>
    </g>
    <g id="Group_4997" data-name="Group 4997" transform="translate(421.657 251.491)">
      <g id="Group_4996" data-name="Group 4996">
        <path id="Path_14881" data-name="Path 14881" d="M232.464,140.464c-.128.425-1.5.33-3.561.433a20.558,20.558,0,0,0-14.131,6.072l-1.79,1.746c-.455.428-.787.648-.975.542s-.215-.488-.063-1.122a9.284,9.284,0,0,1,1.139-2.517,15.681,15.681,0,0,1,16-6.879C231.382,139.221,232.589,140.09,232.464,140.464Z" transform="translate(-211.849 -138.462)" fill="#4160a1"/>
      </g>
    </g>
    <g id="Group_4999" data-name="Group 4999" transform="translate(458.073 235.649)">
      <g id="Group_4998" data-name="Group 4998">
        <path id="Path_14882" data-name="Path 14882" d="M225.376,143.443c-.36-.169-.161-1.64,1.073-3.64a15.671,15.671,0,0,1,16-6.879,9.269,9.269,0,0,1,2.613.907c.564.324.82.618.771.817s-.444.3-1.065.335c-.6.025-1.452.057-2.5.1a20.574,20.574,0,0,0-14.131,6.075C226.643,142.585,225.774,143.642,225.376,143.443Z" transform="translate(-225.216 -132.647)" fill="#4160a1"/>
      </g>
    </g>
    <g id="Group_5000" data-name="Group 5000" transform="translate(432.306 268.874)">
      <path id="Path_14883" data-name="Path 14883" d="M227.446,148.774a6.033,6.033,0,1,1-7.756-3.55A6.029,6.029,0,0,1,227.446,148.774Z" transform="translate(-215.758 -144.843)" fill="#4160a1"/>
    </g>
    <g id="Group_5001" data-name="Group 5001" transform="translate(464.531 256.892)">
      <path id="Path_14884" data-name="Path 14884" d="M239.274,144.376a6.033,6.033,0,1,1-7.756-3.55A6.032,6.032,0,0,1,239.274,144.376Z" transform="translate(-227.587 -140.445)" fill="#4160a1"/>
    </g>
    <g id="Group_5005" data-name="Group 5005" transform="translate(448.619 288.651)">
      <g id="Group_5002" data-name="Group 5002" transform="translate(0 0)">
        <path id="Path_14885" data-name="Path 14885" d="M221.746,157.538a47.156,47.156,0,0,0,28.4-5.435c.365,7.876-.324,13.711-10.965,16.435C230.464,170.77,223.045,165.411,221.746,157.538Z" transform="translate(-221.746 -152.103)" fill="#4160a1"/>
      </g>
      <g id="Group_5003" data-name="Group 5003" transform="translate(0.087 5.843)">
        <path id="Path_14886" data-name="Path 14886" d="M221.778,154.249a18.007,18.007,0,0,1,2.923.24,39.281,39.281,0,0,1,19.07,8.666,22.862,22.862,0,0,1-4.642,1.686C230.564,167.033,223.268,161.893,221.778,154.249Z" transform="translate(-221.778 -154.248)" fill="#d4495e"/>
      </g>
      <g id="Group_5004" data-name="Group 5004" transform="translate(0 1.545)">
        <path id="Path_14887" data-name="Path 14887" d="M247.111,152.67a21.02,21.02,0,0,1,.1,3.634c-.155.727-11.36,6.819-24.123,4.37a11.978,11.978,0,0,1-1.338-4.114C229.006,157.519,240.279,155.59,247.111,152.67Z" transform="translate(-221.746 -152.67)" fill="#f2e6d7"/>
      </g>
    </g>
    <g id="Group_5006" data-name="Group 5006" transform="translate(389.674 283.017)">
      <path id="Path_14888" data-name="Path 14888" d="M200.112,155.99c.166,5.626,4.018,10.377,7.68,14.654a8.843,8.843,0,0,0,3.871,3.081c1.6.477,3.708-.349,3.937-2.008.223-1.6-1.267-2.85-2.463-3.937s-2.277-2.948-1.25-4.2c.477-.58,1.278-.8,1.806-1.34,1.144-1.171.5-3.138-.34-4.541a24.681,24.681,0,0,0-4.25-5.282c-1.618-1.526-3.844-2.9-5.953-2.19C200.946,150.978,200.047,153.664,200.112,155.99Z" transform="translate(-200.109 -150.035)" fill="#e4a98d"/>
    </g>
    <g id="Group_5008" data-name="Group 5008" transform="translate(380.876 234.15)">
      <g id="Group_5007" data-name="Group 5007" transform="translate(0)">
        <path id="Path_14889" data-name="Path 14889" d="M211.372,175.516s8.284,2.781,13.624,13.09l4.928-1.58-6.042-18.833s13.6-8.889.91-28.986S196.879,148,196.879,148Z" transform="translate(-196.879 -132.097)" fill="#4160a1"/>
      </g>
    </g>
    <g id="Group_5009" data-name="Group 5009" transform="translate(365.045 171.197)">
      <path id="Path_14890" data-name="Path 14890" d="M253.186,168.157a39.329,39.329,0,0,1-35.077,13.959c-22.851-2.634-27.041-16.01-27.041-16.01s17.236-6.293,24.867-23.246,37.878-41.37,69.719-31.661,32.157,38.85,17.991,48.331-26.474,1.482-29.653,5.138S265.418,172.911,253.186,168.157Z" transform="translate(-191.068 -108.989)" fill="#4160a1"/>
    </g>
    <g id="Group_5010" data-name="Group 5010" transform="translate(367.832 175.17)">
      <path id="Path_14891" data-name="Path 14891" d="M296.364,114.384a45.353,45.353,0,0,0-7.573-3.937,187.909,187.909,0,0,1-93.253,61.274,28.418,28.418,0,0,0,3.416,2.422,66.588,66.588,0,0,0-6.862,8.064,127.908,127.908,0,0,0,104.273-67.823Z" transform="translate(-192.091 -110.447)" fill="#4d6ca7"/>
    </g>
    <g id="Group_5011" data-name="Group 5011" transform="translate(233.034 347.399)">
      <path id="Path_14892" data-name="Path 14892" d="M320.413,203.033S251.269,189.888,245.2,190.6,142.61,173.668,142.61,173.668s7.666,26.556,6.753,42.381c0,0,58.912,24.417,78.521,31.953s113.3,26.147,113.3,26.147Z" transform="translate(-142.61 -173.668)" fill="#e8e7e2"/>
    </g>
    <g id="Group_5012" data-name="Group 5012" transform="translate(410.836 366.185)">
      <path id="Path_14893" data-name="Path 14893" d="M235.843,180.564l25.191,194.647-24.059-21.678-29.1-162.389Z" transform="translate(-207.877 -180.564)" fill="#fff"/>
    </g>
    <g id="Group_5013" data-name="Group 5013" transform="translate(309.994 358.392)">
      <path id="Path_14894" data-name="Path 14894" d="M188.914,177.7s-16.765,59.13-18.054,67.485l14.449,6.14,23.031-73.189Z" transform="translate(-170.86 -177.703)" fill="#fff"/>
    </g>
    <g id="Group_5014" data-name="Group 5014" transform="translate(90.167 286.98)">
      <path id="Path_14895" data-name="Path 14895" d="M263.341,211.664c-19.146-4.549-66.64-4.032-79.248-22.325-6.841-9.924,4.04-31.149-9.619-32.448-18.285-1.738-3.008,21.317-6.045,26.79s-38.79-32.887-54.389-32.181c-11.406.518-10.352,10.2,6.563,17.269a90.531,90.531,0,0,1,26.945,17.105s-40.5-12.867-47.887-10.916-1.583,14.893,7.26,17.326,29.49,2.5,37.039,6.846c0,0-35.385,1.411-48.219,7.3s-.477,17.2,6.881,16.517,27.853-14.763,41.425-12.284c0,0-27.447,9.045-30.838,19.775s6.168,13.847,12.229,11.387.662-8.246,11.84-14.719c8.333-4.827,8.715-6.143,20.742,2.523s16.038,14.272,27.825,8.788c6.173-2.874,32.092,12.066,61.17,23.834C256.212,251.806,263.987,223.084,263.341,211.664Z" transform="translate(-90.167 -151.489)" fill="#fff"/>
    </g>
    <g id="Group_5015" data-name="Group 5015" transform="translate(542.513 193.322)">
      <path id="Path_14896" data-name="Path 14896" d="M257.226,245.615c-9.843,8.758,55.043-49.677,61.908-53.975,5.176-3.242,69.844-74.53,69.844-74.53s9.216,26.06,19.165,38.4c0,0-29.964,55.2-41.528,72.743s-83.762,87.1-83.762,87.1Z" transform="translate(-256.212 -117.11)" fill="#e8e7e2"/>
    </g>
    <g id="Group_5016" data-name="Group 5016" transform="translate(592.596 258.611)">
      <path id="Path_14897" data-name="Path 14897" d="M290.143,141.076s48.037,38.338,53.948,44.383l-8.181,13.4L274.6,152.733Z" transform="translate(-274.596 -141.076)" fill="#fff"/>
    </g>
    <g id="Group_5017" data-name="Group 5017" transform="translate(650.486 72.91)">
      <path id="Path_14898" data-name="Path 14898" d="M295.846,210.757c12.927-14.842,51.856-42.054,51.466-64.265-.21-12.052-21.41-22.984-11.055-31.988,13.858-12.049,14.847,15.588,20.5,18.269s12.414-49.314,25.513-57.814c9.578-6.217,14.354,2.275,4.708,17.863a90.593,90.593,0,0,0-11.962,29.588s25.45-34.026,32.6-36.739,9.954,11.194,4.176,18.318S389.26,123.175,385.651,131.1c0,0,29.6-19.437,43.465-22.113s10.4,13.714,4.016,17.438-31.244,4.2-40.839,14.112c0,0,27.586-8.614,36.587-1.861s3.038,14.853-3.321,16.378-5.337-6.323-18.192-5.083c-9.587.921-10.663.076-15.4,14.12s-4.74,20.939-17.52,23.336c-6.691,1.256-19.081,28.485-35.881,54.975C325,239.255,301.965,220.42,295.846,210.757Z" transform="translate(-295.846 -72.91)" fill="#fff"/>
    </g>
    <g id="Group_5018" data-name="Group 5018" transform="translate(519.824 321.828)">
      <path id="Path_14899" data-name="Path 14899" d="M247.884,176.495l23.7-12.213,93.613,146-9.866,23.3Z" transform="translate(-247.884 -164.281)" fill="#fff"/>
    </g>
    <g id="Group_5019" data-name="Group 5019" transform="translate(430.307 321.372)">
      <path id="Path_14900" data-name="Path 14900" d="M223.518,208.928l-8.494-12.166,87.445-32.647,2.073,12.67S268.509,201.523,223.518,208.928Z" transform="translate(-215.024 -164.114)" fill="#fff"/>
    </g>
    <g id="Group_5020" data-name="Group 5020" transform="translate(330.656 145.828)">
      <path id="Path_14901" data-name="Path 14901" d="M318.719,309.527a57.958,57.958,0,0,1-13.485,2.7c-14.779,1.087-23.232-4.563-23.586-4.806l1.218-1.784c.082.057,8.3,5.506,22.385,4.424,13.068-1,34-8,59.5-35.576,20.456-22.132,29.119-51.047,24.393-81.419-5.184-33.309-26.376-64.946-53.989-80.6-24.864-14.1-72.285-15.991-108.6,5.239-21.042,12.3-46.094,37.178-45.942,85.814.163,52.447,26.648,77.72,48.837,89.687a119.664,119.664,0,0,0,48.671,13.583l-.038,2.16A122.051,122.051,0,0,1,228.419,295.1c-22.707-12.243-49.8-38.069-49.973-91.581-.155-49.663,25.48-75.094,47.012-87.682,36.987-21.625,85.367-19.655,110.762-5.255,28.163,15.969,49.775,48.214,55.054,82.149,4.833,31.037-4.026,60.593-24.94,83.217C347.738,296.069,331.433,305.446,318.719,309.527Z" transform="translate(-178.445 -99.676)" fill="#fff"/>
    </g>
    <g id="Group_5021" data-name="Group 5021" transform="translate(380.66 152.415)">
      <path id="Path_14902" data-name="Path 14902" d="M196.8,119.164c25.477-16.127,58.947-21.791,87.557-12.809s51.8,32.438,62.636,59.966,8.4,59.931-6.451,85.893c3.686-33.742,1.79-61.056-10.69-87.974s-41.542-49.069-71.438-53.055C237.827,108.441,217.175,114.773,196.8,119.164Z" transform="translate(-196.8 -102.094)" fill="#fff"/>
    </g>
    <g id="Group_5022" data-name="Group 5022" transform="translate(468.994 591.154)">
      <path id="Path_14903" data-name="Path 14903" d="M229.225,263.144" transform="translate(-229.225 -263.144)" fill="#fff"/>
    </g>
    <g id="Group_5023" data-name="Group 5023" transform="translate(462.891 517.067)">
      <path id="Path_14904" data-name="Path 14904" d="M226.985,305.421l183.43-69.472,14.628,24.964L233.577,325.966Z" transform="translate(-226.985 -235.949)" fill="#fff"/>
    </g>
    <g id="Group_5024" data-name="Group 5024" transform="translate(494.987 381.67)">
      <path id="Path_14905" data-name="Path 14905" d="M238.766,207.591l50.018-21.343,32.346,71.3-56.691,18.19Z" transform="translate(-238.766 -186.248)" fill="#fff"/>
    </g>
    <g id="Group_5033" data-name="Group 5033" transform="translate(503.93 391.513)">
      <g id="Group_5025" data-name="Group 5025" transform="translate(19.897 0)">
        <path id="Path_14906" data-name="Path 14906" d="M254.371,209.309l17.429-6.379-6.016-13.068-16.431,6.99Z" transform="translate(-249.353 -189.861)" fill="#f3d634"/>
      </g>
      <g id="Group_5026" data-name="Group 5026" transform="translate(28.613 20.639)">
        <path id="Path_14907" data-name="Path 14907" d="M269,203.466c.967-.463,1.94-.913,2.909-1.37l-2.144-4.658-17.217,7.985,2.163,5.37C259.6,208.715,264.345,205.694,269,203.466Z" transform="translate(-252.552 -197.437)" fill="#e8e7e2"/>
      </g>
      <g id="Group_5027" data-name="Group 5027" transform="translate(31.667 27.466)">
        <path id="Path_14908" data-name="Path 14908" d="M274.628,207.868l-3.65-7.925q-3.183,1.5-6.345,3.043c-3.621,1.779-7.208,4.026-10.96,5.7l2.591,6.429C262.317,212.529,268.476,210.211,274.628,207.868Z" transform="translate(-253.673 -199.943)" fill="#e8e7e2"/>
      </g>
      <g id="Group_5028" data-name="Group 5028" transform="translate(35.159 37.595)">
        <path id="Path_14909" data-name="Path 14909" d="M276.016,209.278l-2.585-5.617c-6.187,2.357-12.387,4.683-18.476,7.279l2.139,5.315Q266.672,213.056,276.016,209.278Z" transform="translate(-254.955 -203.661)" fill="#e8e7e2"/>
      </g>
      <g id="Group_5029" data-name="Group 5029" transform="translate(38.205 45.411)">
        <path id="Path_14910" data-name="Path 14910" d="M278.128,213.1,275.1,206.53q-9.4,3.8-19.029,7.029l2.438,6.05Q268.339,216.413,278.128,213.1Z" transform="translate(-256.073 -206.53)" fill="#e8e7e2"/>
      </g>
      <g id="Group_5030" data-name="Group 5030" transform="translate(41.55 54.199)">
        <path id="Path_14911" data-name="Path 14911" d="M257.3,216.3l.937,2.326,19.931-6.4-1.139-2.474Q267.182,213.078,257.3,216.3Z" transform="translate(-257.301 -209.756)" fill="#e8e7e2"/>
      </g>
      <g id="Group_5031" data-name="Group 5031" transform="translate(0 10.44)">
        <path id="Path_14912" data-name="Path 14912" d="M253.837,193.693l-11.788,5.015,4.443,11.488,12.126-4.441C256.82,201.228,255.185,197.1,253.837,193.693Z" transform="translate(-242.049 -193.693)" fill="#92cef6"/>
      </g>
      <g id="Group_5032" data-name="Group 5032" transform="translate(8.671 32.392)">
        <path id="Path_14913" data-name="Path 14913" d="M257.055,201.751l-11.823,5.484,12.4,32.064,12.741-4.089C266.525,225.555,261.586,213.144,257.055,201.751Z" transform="translate(-245.232 -201.751)" fill="#e8e7e2"/>
      </g>
    </g>
    <g id="Group_5038" data-name="Group 5038" transform="translate(680.327 653.315)">
      <g id="Group_5034" data-name="Group 5034">
        <path id="Path_14914" data-name="Path 14914" d="M306.8,351l71.728-65.036,33.916,42.061L346.973,392.4Z" transform="translate(-306.8 -285.962)" fill="#fff"/>
      </g>
      <g id="Group_5037" data-name="Group 5037" transform="translate(14.139 12.475)">
        <g id="Group_5035" data-name="Group 5035" transform="translate(10.407 15.174)">
          <path id="Path_14915" data-name="Path 14915" d="M386.826,298.018l-1.539-1.907L315.81,358.8l4.9,5.053C342.061,343.249,372.063,313.966,386.826,298.018Z" transform="translate(-315.81 -296.111)" fill="#e8e7e2"/>
        </g>
        <g id="Group_5036" data-name="Group 5036">
          <path id="Path_14916" data-name="Path 14916" d="M311.99,357.674l3.193,3.291c21.552-21.4,49.775-49.788,66.431-67.975l-1.975-2.449C360.814,308.992,329.73,339.575,311.99,357.674Z" transform="translate(-311.99 -290.541)" fill="#e8e7e2"/>
        </g>
      </g>
    </g>
    <g id="Group_5043" data-name="Group 5043" transform="translate(520.174 735.076)">
      <g id="Group_5039" data-name="Group 5039">
        <path id="Path_14917" data-name="Path 14917" d="M248.012,345.971l92.059-30L353.81,368.23l-86.082,31.958Z" transform="translate(-248.012 -315.974)" fill="#fff"/>
      </g>
      <g id="Group_5042" data-name="Group 5042" transform="translate(6.939 15.5)">
        <g id="Group_5040" data-name="Group 5040" transform="translate(5.108 18.849)">
          <path id="Path_14918" data-name="Path 14918" d="M342.1,330.956l-.624-2.373-89.042,28.776,2.405,6.615C282.747,353.913,322.1,339.466,342.1,330.956Z" transform="translate(-252.434 -328.583)" fill="#e8e7e2"/>
        </g>
        <g id="Group_5041" data-name="Group 5041">
          <path id="Path_14919" data-name="Path 14919" d="M250.559,355.243l1.566,4.307c28.422-10.709,65.79-25.063,88.429-34.846l-.8-3.04C315.028,330.8,274.151,345.986,250.559,355.243Z" transform="translate(-250.559 -321.664)" fill="#e8e7e2"/>
        </g>
      </g>
    </g>
    <g id="Group_5047" data-name="Group 5047" transform="translate(799.04 790.959)">
      <g id="Group_5044" data-name="Group 5044" transform="translate(7.247 6.898)">
        <path id="Path_14920" data-name="Path 14920" d="M353.037,394.143l46.835,57.58,101.355-81.3-19.473-23.412a22.139,22.139,0,0,0-27.074-5.571l-32.342,16.479-13.362-16.89Z" transform="translate(-353.037 -339.02)" fill="#e8e7e2"/>
      </g>
      <g id="Group_5045" data-name="Group 5045">
        <path id="Path_14921" data-name="Path 14921" d="M350.377,394.782l61.466-58.294,6.07,9.4-61.563,56.909Z" transform="translate(-350.377 -336.488)" fill="#fff"/>
      </g>
      <g id="Group_5046" data-name="Group 5046" transform="translate(49.969 33.008)">
        <path id="Path_14922" data-name="Path 14922" d="M390.878,425.435l7.588-6.405,3.974,1.132,30.809-25.486-.365-3.328,3.791-2.918,2.865,1.042,14.506-12,.107-4.1,4.887-4.215,3.735,1.1L480.723,355.4l-5.964-6.8L368.719,436.516l5.616,6.9,17.632-14.586Z" transform="translate(-368.719 -348.604)" fill="#fff"/>
      </g>
    </g>
    <g id="Group_5048" data-name="Group 5048" transform="translate(830.274 802.47)">
      <path id="Path_14923" data-name="Path 14923" d="M407.158,354.993l-29.7,27.962a9.265,9.265,0,0,1-13.708-1.12h0a9.262,9.262,0,0,1,1.071-12.428l31.043-28.694Z" transform="translate(-361.842 -340.713)" fill="#d4d3ca"/>
    </g>
    <g id="Group_5054" data-name="Group 5054" transform="translate(555.79 906.36)">
      <g id="Group_5052" data-name="Group 5052">
        <g id="Group_5049" data-name="Group 5049" transform="translate(0 8.139)">
          <path id="Path_14924" data-name="Path 14924" d="M367.31,381.836l26.73,69.245L273.144,498.7l-10.657-28.528A22.143,22.143,0,0,1,271.1,443.9l30.362-19.892-8.031-19.985Z" transform="translate(-261.086 -381.836)" fill="#e8e7e2"/>
        </g>
        <g id="Group_5050" data-name="Group 5050" transform="translate(25.469)">
          <path id="Path_14925" data-name="Path 14925" d="M351.554,378.848l-81.119,24.415,5.143,9.935,79.964-25.186Z" transform="translate(-270.435 -378.848)" fill="#fff"/>
        </g>
        <g id="Group_5051" data-name="Group 5051" transform="translate(7.184 74.467)">
          <path id="Path_14926" data-name="Path 14926" d="M372.061,419.918l-9.328,3.407-.99,4.012-37.418,14.091-2.708-1.969L317.2,441.3l-.518,3-17.618,6.634-3.617-1.945-6.085,2.15-.9,3.788-21.8,8.208-2.943-8.553,128.958-48.4,3.2,8.3-21.415,8.064Z" transform="translate(-263.723 -406.183)" fill="#fff"/>
        </g>
      </g>
      <g id="Group_5053" data-name="Group 5053" transform="translate(33.582 20.285)">
        <path id="Path_14927" data-name="Path 14927" d="M280.2,416.323l39.017-11.9a9.26,9.26,0,0,0,5.833-12.455h0a9.262,9.262,0,0,0-11.319-5.241l-40.319,12.7Z" transform="translate(-273.413 -386.294)" fill="#d4d3ca"/>
      </g>
    </g>
    <g id="Group_5055" data-name="Group 5055" transform="translate(550.949 303.113)">
      <path id="Path_14928" data-name="Path 14928" d="M259.309,169.421,273.162,184.8l12.983-10.214-13.374-17.179Z" transform="translate(-259.309 -157.411)" fill="#92cef6"/>
    </g>
    <g id="Group_5056" data-name="Group 5056" transform="translate(570.532 293.548)">
      <path id="Path_14929" data-name="Path 14929" d="M266.5,158.036,274.9,168l5.172-5.094-8.9-9.008" transform="translate(-266.497 -153.901)" fill="#d4d3ca"/>
    </g>
  </g>
</svg>
