<svg id="Group_5067" data-name="Group 5067" xmlns="http://www.w3.org/2000/svg" width="968.057" height="344.887" viewBox="0 0 968.057 344.887">
  <g id="Group_4965" data-name="Group 4965">
    <g id="Group_4964" data-name="Group 4964">
      <g id="Group_4959" data-name="Group 4959">
        <path id="Path_14839" data-name="Path 14839" d="M1632.663,378.067l-50.769,58.921-883.03-56.111Z" transform="translate(-666.977 -92.102)" fill="#e0e0e0"/>
        <path id="Path_14840" data-name="Path 14840" d="M1640.252,536.385c0,5.468-3.5,9.9-7.812,9.9H704.082c-4.315,0-7.815-4.436-7.815-9.9V305.646c0-5.468,3.5-9.9,7.815-9.9h871.079c4.316,0,6.524,4.451,7.812,9.9Z" transform="translate(-672.194 -257.513)" fill="#fff"/>
        <g id="Group_4958" data-name="Group 4958">
          <path id="Path_14841" data-name="Path 14841" d="M858.768,485.361,943.58,297.778H696.267V485.361Z" transform="translate(-672.193 -253.424)" fill="#e5e5e5"/>
          <path id="Path_14842" data-name="Path 14842" d="M767.261,283.039l-78.993,34.327V505.948l78.993-56.677Z" transform="translate(-688.267 -283.039)" fill="#087d99"/>
          <path id="Path_14843" data-name="Path 14843" d="M865.814,483.028H688.267V294.446h262.81Z" transform="translate(-688.267 -260.119)" fill="#12bab7"/>
        </g>
      </g>
      <path id="Path_14844" data-name="Path 14844" d="M845.222,375.787A72.226,72.226,0,1,1,773,303.562,72.224,72.224,0,0,1,845.222,375.787Z" transform="translate(-663.144 -241.803)" fill="#e5e5e5" style="mix-blend-mode: multiply;isolation: isolate"/>
      <path id="Path_14845" data-name="Path 14845" d="M831,370.093a63.7,63.7,0,1,1-63.7-63.7A63.7,63.7,0,0,1,831,370.093Z" transform="translate(-657.45 -236.108)" fill="#fff"/>
    </g>
  </g>
  <g id="Group_4971" data-name="Group 4971" transform="translate(70.491 93.264)">
    <path id="Path_14854" data-name="Path 14854" d="M745.561,340.687l-3.683,0h-.957l-20.036-.015a8.49,8.49,0,0,1-.963-.051,7.6,7.6,0,0,1-.954-.151,9.206,9.206,0,0,1-7.276-9l0-2.137a9.147,9.147,0,0,1,8.173-9.136,8.336,8.336,0,0,1,1.032-.057l19.969.012h.96l3.744,0a9.2,9.2,0,0,1,9.193,9.205l0,2.14A9.2,9.2,0,0,1,745.561,340.687Z" transform="translate(-711.692 -301.768)" fill="#243342"/>
    <path id="Path_14855" data-name="Path 14855" d="M772.3,314.605c-15.961,11.781-54.459,16.614-54.459,16.614l-.009,10-.03,9.988s38.482,4.971,54.4,16.81l.081-26.7h0Z" transform="translate(-699.411 -312.878)" fill="#f1f1f1"/>
    <g id="Group_4970" data-name="Group 4970" transform="translate(18.044 28.149)">
      <g id="Group_4969" data-name="Group 4969">
        <path id="Path_14856" data-name="Path 14856" d="M717.718,323.385v.06l-.03,9.988s38.483,4.971,54.4,16.813l.081-26.593Z" transform="translate(-717.688 -323.385)" fill="#dbdbd3"/>
      </g>
    </g>
    <path id="Path_14857" data-name="Path 14857" d="M743.21,341.309l.018-26.7a52.685,52.685,0,0,1-10.954,5.91c6.654,10.746,7.653,26.036,1.435,40.372q-.338.772-.695,1.529a51.131,51.131,0,0,1,10.114,5.6Z" transform="translate(-670.337 -312.878)" fill="#37495f"/>
    <path id="Path_14858" data-name="Path 14858" d="M728.807,324.914l-1.372,25.037,0,.024-.686,12.528v.012l-.5,9.058c-.19,3.879-1.9,4.658-2.75,4.658l-5.414.238c-1.685,0-4.171-.093-3.7-5.651l.731-8.294v-.012l.358-4.041.746-8.486,0-.024,2-22.7a2.078,2.078,0,0,1,1.607-2.173l7-1.556A1.58,1.58,0,0,1,728.807,324.914Z" transform="translate(-706.4 -295.029)" fill="#243342"/>
    <path id="Path_14859" data-name="Path 14859" d="M736.986,337.567l5.988,0a.471.471,0,0,0,.467-.466l-1.821-8.053,1.809-8.056a.466.466,0,0,0-.466-.463l-5.989,0a.469.469,0,0,0-.466.466l.012,16.109A.466.466,0,0,0,736.986,337.567Z" transform="translate(-661.83 -300.981)" fill="#37495f"/>
    <path id="Path_14860" data-name="Path 14860" d="M736.389,345.8c-.271-.075-.59-.15-.954-.22-5.022-.984-18.143-1.375-20.577-1.438l-.28-.009h-.033c-.051,0-.078,0-.078,0l.021-1.273.174-10.346-.229-10.081-.036-1.607s15.426-.454,20.963-1.571c.361-.075.68-.15.951-.229l.084,3.361.241,9.786.012,0,0,.277.006.2h-.012l-.2,10.274Z" transform="translate(-706.257 -304.005)" fill="#37495f"/>
    <path id="Path_14861" data-name="Path 14861" d="M739.93,368.746a2.054,2.054,0,0,1-2.055,2.052h0a2.055,2.055,0,0,1-2.052-2.055l.033-52.659a2.055,2.055,0,0,1,2.055-2.052h0a2.052,2.052,0,0,1,2.052,2.055Z" transform="translate(-663.208 -314.031)" fill="#37495f"/>
    <rect id="Rectangle_835" data-name="Rectangle 835" width="17.378" height="2.364" rx="0.15" transform="translate(10.773 19.511)" fill="#243342"/>
    <rect id="Rectangle_836" data-name="Rectangle 836" width="17.378" height="2.364" rx="0.15" transform="translate(10.776 23.308)" fill="#243342"/>
    <rect id="Rectangle_837" data-name="Rectangle 837" width="17.378" height="2.364" rx="0.15" transform="translate(10.779 27.106)" fill="#243342"/>
    <rect id="Rectangle_838" data-name="Rectangle 838" width="17.378" height="2.364" rx="0.15" transform="translate(10.782 30.903)" fill="#243342"/>
    <rect id="Rectangle_839" data-name="Rectangle 839" width="17.378" height="2.364" rx="0.15" transform="translate(10.784 34.7)" fill="#243342"/>
    <path id="Path_14862" data-name="Path 14862" d="M726.644,329.992l-.469,8.564-11.268.007.755-8.562Z" transform="translate(-705.232 -281.961)" fill="#28a3a8"/>
  </g>
</svg>
