<svg xmlns="http://www.w3.org/2000/svg" width="373.786" height="462.016" viewBox="0 0 373.786 462.016">
  <g id="Group_4443" data-name="Group 4443" transform="translate(-1496.214 -213.027)">
    <g id="Group_675" data-name="Group 675" transform="translate(1748.545 213.027)">
      <path id="Path_1630" data-name="Path 1630" d="M536.76,215.648V247.58l27.676-27.674Z" transform="translate(-525.876 -146.382)" fill="#f3f3f3"/>
      <path id="Rectangle_87" data-name="Rectangle 87" d="M2.374,0H119.082a2.373,2.373,0,0,1,2.373,2.373V85.1a2.373,2.373,0,0,1-2.373,2.373H2.374A2.374,2.374,0,0,1,0,85.1V2.374A2.374,2.374,0,0,1,2.374,0Z" transform="translate(0 0)" fill="#f3f3f3"/>
      <path id="Path_1631" data-name="Path 1631" d="M549.06,185.937a6.248,6.248,0,1,1-6.25-6.247A6.249,6.249,0,0,1,549.06,185.937Z" transform="translate(-526.019 -172.562)" fill="#cdd5d7"/>
      <g id="Group_673" data-name="Group 673" transform="translate(28.507 8.884)">
        <rect id="Rectangle_88" data-name="Rectangle 88" width="64.439" height="2.733" transform="translate(0 6.249)" fill="#cdd5d7"/>
        <rect id="Rectangle_89" data-name="Rectangle 89" width="36.32" height="2.735" fill="#879ba6"/>
      </g>
      <g id="Group_674" data-name="Group 674" transform="translate(10.884 25.783)">
        <rect id="Rectangle_90" data-name="Rectangle 90" width="100.806" height="51.505" fill="#4e99ff"/>
        <path id="Path_1632" data-name="Path 1632" d="M574.173,208.466l-6.325,3.65-6.332,3.658V201.161l6.332,3.651Z" transform="translate(-518.735 -182.713)" fill="#fff"/>
      </g>
    </g>
    <g id="Group_649" data-name="Group 649" transform="translate(1478.606 347.295) rotate(-8)">
      <g id="WOMAN_ARM" data-name="WOMAN ARM" transform="translate(191.101 0)">
        <g id="Group_557" data-name="Group 557" transform="translate(27.152 20.676)">
          <path id="Path_1534" data-name="Path 1534" d="M33.919,0s-5.806,15.671-17.1,25.349A156.8,156.8,0,0,1,2.1,36.785,4.678,4.678,0,0,0,.007,40.921,17.149,17.149,0,0,0,5.069,52.427a4.616,4.616,0,0,0,5.128.8c7.2-3.3,28.371-11.994,48.329-10.439Z" transform="translate(0)" fill="#a6b0e1"/>
        </g>
        <g id="Group_558" data-name="Group 558" transform="translate(28.665 41.25)">
          <path id="Path_1535" data-name="Path 1535" d="M25.49,17.718C17.321,24.607,12.147,12.3,12.147,12.3l-10,2.846S4.05,26.957.873,26.479A1.244,1.244,0,0,0,0,26.707a15.974,15.974,0,0,0,3.557,5.146,4.616,4.616,0,0,0,5.128.8c7.2-3.3,28.371-11.994,48.329-10.439L44.238,0,39.417,1.151A74.81,74.81,0,0,1,25.49,17.718Z" fill="#8e9ace"/>
        </g>
        <g id="Group_559" data-name="Group 559" transform="translate(43.912 110.81)">
          <path id="Path_1536" data-name="Path 1536" d="M25.41,21.115S22.71,12.274,16.278,5.9,0,.008,0,.008,3.771,20.04,13.42,22.429,25.41,21.115,25.41,21.115Z" transform="translate(0 0)" fill="#33222c"/>
        </g>
        <g id="Group_560" data-name="Group 560" transform="translate(42.342 76.664)">
          <path id="Path_1537" data-name="Path 1537" d="M3.257,36.265A54.844,54.844,0,0,0,1.291,23.6c-1.85-6.436.248-10.522-.228-14.405S-.733,1.658.537.344,4.21,1.677,5.878,4.963A9.229,9.229,0,0,0,10.463,9.3l2.819-1.235a17.559,17.559,0,0,1,6.432-.836c3.057.319,2.859,2.787,1.35,3.9,0,0,2.343-.757,3.455.4s.08,3.066-.556,3.624c0,0,1.429.039,1.747,1.911S23.8,20.1,23.8,20.1a1.874,1.874,0,0,1,.754,1.952A3.012,3.012,0,0,1,22.732,24a9.038,9.038,0,0,1-3.217,4.34c-2.7,2.19-3.494,3.266-3.414,4.819s1.333,13.859,1.48,20.55-8.548-5.5-8.548-5.5Z" transform="translate(0 0)" fill="#f9cebe"/>
        </g>
        <g id="Group_561" data-name="Group 561" transform="translate(49.906 83.842)">
          <path id="Path_1538" data-name="Path 1538" d="M16.4,7.98c.635-.557,1.667-2.47.556-3.624s-3.455-.4-3.455-.4c1.509-1.115,1.708-3.583-1.35-3.9A17.559,17.559,0,0,0,5.718.891L2.9,2.127A8.679,8.679,0,0,1,.384.491L0,1.786,2.941,7.98s.994,5.81-.04,9.1c0,0,3.135.421,4.365,2.93A16.356,16.356,0,0,1,8.537,25.98c-.08-1.553.715-2.628,3.414-4.819a9.038,9.038,0,0,0,3.217-4.34,3.012,3.012,0,0,0,1.826-1.952,1.874,1.874,0,0,0-.754-1.952s2.223-1.155,1.905-3.027S16.4,7.98,16.4,7.98Z" transform="translate(0 0)" fill="#de8d8c"/>
        </g>
        <g id="Group_562" data-name="Group 562" transform="translate(45.348 109.343)">
          <path id="Path_1539" data-name="Path 1539" d="M0,0C.225,2.174.251,3.587.251,3.587L6.027,15.534s8.7,12.186,8.548,5.5c-.068-3.119-.377-7.451-.7-11.352A107.847,107.847,0,0,1,0,0Z" transform="translate(0)" fill="#de8d8c"/>
        </g>
        <g id="Group_563" data-name="Group 563" transform="translate(42.56 70.437)">
          <path id="Path_1540" data-name="Path 1540" d="M0,2.47l10.563,18.4L14.692,18.4,8.657,0Z" fill="#a6b0e1"/>
        </g>
        <g id="Group_564" data-name="Group 564" transform="translate(0 93.137)">
          <path id="Path_1541" data-name="Path 1541" d="M0,0S20.646,7.328,23.346,8.681s4.446,3.9,5.955,6.133S41.291,34.488,41.291,34.488s2.858-11.55,2.62-16.807c0,0,11.435,17.683,25.41,21.107,0,0-9.727,24.97-12.944,32.018s-5.36,10.036-13.1,5.736S14.929,52.169,14.929,52.169Z" fill="#553e50"/>
        </g>
        <g id="Group_565" data-name="Group 565" transform="translate(5.061 106.756)">
          <path id="Path_1542" data-name="Path 1542" d="M54.862,48.8c-.585,1.43-7.041,7.586-14.82,2.967s-5.373-25.186-5.373-25.186-6.7,9.893-11.939,2.357S10.6,2.587,10.6,2.587L.631,0,0,4.069,9.866,38.55S30.473,58.622,38.215,62.923s9.887,1.314,13.1-5.736C52.153,55.355,53.431,52.307,54.862,48.8Z" transform="translate(0)" fill="#443044"/>
        </g>
        <path id="Path_1543" data-name="Path 1543" d="M.557,34.965a.537.537,0,0,1-.2-.038.558.558,0,0,1-.317-.722c.044-.112,4.343-11.2,5.732-17.6C5.8,16.476,8.61,5.695,8.377.582A.56.56,0,0,1,8.909,0a.611.611,0,0,1,.58.533c.239,5.28-2.521,15.886-2.639,16.335-1.4,6.46-5.733,17.629-5.776,17.742A.555.555,0,0,1,.557,34.965Z" transform="translate(34.978 110.898)" fill="#33222c"/>
        <path id="Path_1544" data-name="Path 1544" d="M17.746,16.265a.564.564,0,0,1-.21-.041c-.471-.193-11.6-4.834-17.464-15.4a.556.556,0,1,1,.97-.543c5.679,10.224,16.8,14.86,16.914,14.9a.558.558,0,0,1-.209,1.074Z" transform="translate(41.015 125.952)" fill="#33222c"/>
        <path id="Path_1545" data-name="Path 1545" d="M10.12,4.46,8.657,0,0,2.47,9.522,19.055l3.542.317h0s-6.273-7.823-5.2-11.843A5.6,5.6,0,0,1,10.12,4.46Z" transform="translate(42.56 70.437)" fill="#8e9ace"/>
        <g id="Group_567" data-name="Group 567" transform="translate(52.388 83.83)">
          <g id="Group_566" data-name="Group 566" transform="translate(0 0)">
            <path id="Path_1546" data-name="Path 1546" d="M6.849,1.82A69.54,69.54,0,0,0,.5,5.682C-.576,6.639-.02,9.29,3.236,8.423c0,0-1.667,1.72-.754,3.154s2.858.478,2.858.478-1.151,1.513-.595,2.628a1.585,1.585,0,0,0,1.827.757s-.556,1.991,1.31,2.19a10.483,10.483,0,0,0,4.8-.8,3.011,3.011,0,0,0,1.826-1.952,1.873,1.873,0,0,0-.753-1.952s2.223-1.154,1.905-3.027-1.747-1.911-1.747-1.911c.635-.557,1.667-2.47.556-3.624s-3.455-.4-3.455-.4c1.509-1.115,1.708-3.583-1.35-3.9A14.429,14.429,0,0,0,4.013.662" transform="translate(0 0)" fill="#f9cebe"/>
          </g>
        </g>
        <g id="Group_568" data-name="Group 568" transform="translate(51.834 83.274)">
          <path id="Path_1547" data-name="Path 1547" d="M9.182,18.782a7.709,7.709,0,0,1-.806-.041A2,2,0,0,1,6.844,17.9a2.262,2.262,0,0,1-.354-1.3A1.975,1.975,0,0,1,4.8,15.49a2.523,2.523,0,0,1,0-2.02,2.282,2.282,0,0,1-2.235-1.037A2.651,2.651,0,0,1,2.6,9.708,2.5,2.5,0,0,1,.262,8.476a2.22,2.22,0,0,1,.42-2.654A67.738,67.738,0,0,1,7.135,1.886a.558.558,0,0,1,.536.978A64.8,64.8,0,0,0,1.42,6.656,1.093,1.093,0,0,0,1.242,7.95c.336.63,1.218.807,2.4.49a.552.552,0,0,1,.622.257.56.56,0,0,1-.079.669c-.014.015-1.35,1.424-.685,2.465.63.994,2.086.307,2.147.279a.557.557,0,0,1,.686.838c-.26.346-.867,1.388-.541,2.041a1.011,1.011,0,0,0,1.177.469.571.571,0,0,1,.543.142.56.56,0,0,1,.143.547,1.577,1.577,0,0,0,.106,1.131.938.938,0,0,0,.729.354,9.906,9.906,0,0,0,4.48-.733c.08-.036,1.366-.539,1.543-1.556a1.311,1.311,0,0,0-.5-1.381.563.563,0,0,1-.258-.5.558.558,0,0,1,.294-.473c.019-.01,1.86-1,1.614-2.44-.238-1.4-1.2-1.446-1.213-1.446a.559.559,0,0,1-.352-.977,3.034,3.034,0,0,0,.856-1.858,1.232,1.232,0,0,0-.334-.958c-.849-.881-2.865-.26-2.885-.256a.557.557,0,0,1-.5-.978,1.806,1.806,0,0,0,.8-1.8c-.164-.6-.831-.994-1.878-1.1a13.974,13.974,0,0,0-5.414.566A.557.557,0,0,1,4.383.695,14.926,14.926,0,0,1,10.28.07c2.071.214,2.665,1.3,2.834,1.92a2.552,2.552,0,0,1-.184,1.745,3.144,3.144,0,0,1,2.5.8,2.36,2.36,0,0,1,.646,1.78,4.108,4.108,0,0,1-.656,1.952,2.812,2.812,0,0,1,1.351,2.1,3.419,3.419,0,0,1-1.574,3.214,2.461,2.461,0,0,1,.42,1.957,3.545,3.545,0,0,1-2.178,2.377A10.944,10.944,0,0,1,9.182,18.782Z" transform="translate(0 0)" fill="#bf6767"/>
        </g>
        <g id="Group_569" data-name="Group 569" transform="translate(55.067 87.243)">
          <path id="Path_1548" data-name="Path 1548" d="M.556,5.566A.558.558,0,0,1,.281,4.524L8.063.073a.558.558,0,0,1,.551.97L.83,5.494A.542.542,0,0,1,.556,5.566Z" transform="translate(0 0)" fill="#bf6767"/>
        </g>
        <g id="Group_570" data-name="Group 570" transform="translate(57.172 91.265)">
          <path id="Path_1549" data-name="Path 1549" d="M.555,5.178A.558.558,0,0,1,.318,4.116L8.895.053A.557.557,0,0,1,9.37,1.062L.793,5.124A.561.561,0,0,1,.555,5.178Z" transform="translate(0 0)" fill="#bf6767"/>
        </g>
        <g id="Group_571" data-name="Group 571" transform="translate(58.403 96.204)">
          <path id="Path_1550" data-name="Path 1550" d="M.556,3.623A.558.558,0,0,1,.374,2.538L7.56.03a.558.558,0,0,1,.364,1.054L.738,3.592A.548.548,0,0,1,.556,3.623Z" transform="translate(0 0)" fill="#bf6767"/>
        </g>
        <path id="Path_1616" data-name="Path 1616" d="M18.507,0c10.2-.012,18.451,14.307,18.429,31.982S28.629,64,18.429,64.009-.021,49.7,0,32.027,8.307.012,18.507,0Z" transform="matrix(0.895, -0.445, 0.445, 0.895, 51.853, 16.449)" fill="#556493"/>
        <g id="Group_572" data-name="Group 572" transform="translate(56.951 3.45)">
          <path id="Path_1617" data-name="Path 1617" d="M15.562,0c8.575-.01,15.511,12.96,15.491,28.97s-6.987,29-15.562,29.008S-.019,45.018,0,29.008,6.987.01,15.562,0Z" transform="matrix(0.895, -0.445, 0.445, 0.895, 0, 13.829)" fill="#dcd7f7"/>
        </g>
        <g id="Group_573" data-name="Group 573" transform="translate(57.543 8.779)">
          <path id="Path_1618" data-name="Path 1618" d="M10.913,0C16.922-.007,21.778,12.373,21.76,27.652s-4.9,27.671-10.913,27.679S-.018,42.958,0,27.679,4.9.007,10.913,0Z" transform="translate(0 9.69) rotate(-26.444)" fill="#a6b0e1"/>
        </g>
        <g id="Group_574" data-name="Group 574" transform="translate(30.814 46.395)">
          <path id="Path_1551" data-name="Path 1551" d="M21.791,23.488c-.237,1.427-3.69,1.992-5.929,2.75a49.334,49.334,0,0,1-6.728,1.547,3.225,3.225,0,0,1-1.439-.8,19.8,19.8,0,0,1-6.136-9.367A24.081,24.081,0,0,1,0,10,3.61,3.61,0,0,1,.787,7.519C1.558,6.672,8.214,1.1,9.088.428A1.951,1.951,0,0,1,11.859.74c-.578.475-1.141.951-1.675,1.4,0,0-1.26,4.386,1.348,11.314s7.486,9.129,8.3,8.862c.563-.179,1.126-.372,1.719-.55A2.591,2.591,0,0,1,21.791,23.488Z" transform="translate(0 0)" fill="#424570"/>
        </g>
        <g id="Group_575" data-name="Group 575" transform="translate(31.313 55.133)">
          <path id="Path_1552" data-name="Path 1552" d="M7.195,18.244a3.226,3.226,0,0,0,1.439.8A49.326,49.326,0,0,0,15.362,17.5c2.239-.758,5.692-1.323,5.929-2.75a2.59,2.59,0,0,0-.237-1.725c-.593.178-1.156.371-1.719.55-.815.268-5.707-1.933-8.3-8.861A26.691,26.691,0,0,1,9.72,0h0S7.807,9.261,0,5.156C.242,6.216.584,7.444,1.059,8.878A19.8,19.8,0,0,0,7.195,18.244Z" fill="#2e344c"/>
        </g>
        <g id="Group_576" data-name="Group 576" transform="translate(65.133 27.32)">
          <path id="Path_1553" data-name="Path 1553" d="M0,.849A48.606,48.606,0,0,0,4.736,15.931a48.461,48.461,0,0,0,9.141,12.9A15.78,15.78,0,0,0,5.058,0,15.649,15.649,0,0,0,0,.849Z" fill="#424570"/>
        </g>
        <path id="Path_1554" data-name="Path 1554" d="M3.806,37.116a.556.556,0,0,1-.556-.549A53.2,53.2,0,0,0,1.315,24.309,23.019,23.019,0,0,1,.862,14.254a18.163,18.163,0,0,0,.207-4.435C.932,8.7.726,7.614.526,6.56.006,3.815-.4,1.647.7.509,1.046.146,2.039-.554,3.67.788A14.666,14.666,0,0,1,6.354,4.894c.185.355.368.7.547,1.034.52.965,2.456,4.694,4.456,9.033,2.042,4.435.105,10.353.021,10.6a.55.55,0,0,1-.7.351.557.557,0,0,1-.35-.706c.018-.057,1.879-5.75.021-9.781-2.021-4.386-4-8.19-4.425-8.968-.182-.336-.366-.688-.554-1.049a14.593,14.593,0,0,0-2.4-3.76C2.292,1.094,1.8.973,1.5,1.285c-.7.723-.3,2.834.124,5.067.2,1.07.411,2.178.553,3.331a19.33,19.33,0,0,1-.207,4.71A22.107,22.107,0,0,0,2.383,24,54.4,54.4,0,0,1,4.362,36.549a.558.558,0,0,1-.547.567Z" transform="translate(41.784 76.111)" fill="#bf6767"/>
        <g id="Group_577" data-name="Group 577" transform="translate(65.133 27.32)">
          <path id="Path_1555" data-name="Path 1555" d="M6.62,6.638A15.036,15.036,0,0,1,8.03.291,15.7,15.7,0,0,0,5.058,0,15.649,15.649,0,0,0,0,.849,48.606,48.606,0,0,0,4.736,15.931a48.461,48.461,0,0,0,9.141,12.9,15.819,15.819,0,0,0,5.8-7.249A15.063,15.063,0,0,1,6.62,6.638Z" fill="#2e344c"/>
        </g>
      </g>
      <g id="WOMAN" transform="translate(0 14.278)">
        <g id="Woman_Promoting" data-name="Woman Promoting" transform="translate(0 0)">
          <g id="Group_648" data-name="Group 648">
            <g id="Group_579" data-name="Group 579" transform="translate(174.698 59.259)">
              <path id="Path_1557" data-name="Path 1557" d="M24.345,5.343S21.381,20,28.977,26.21s-14.638,1.912-14.638,1.912L0,5.587,22.438,0Z" fill="#533338"/>
            </g>
            <g id="Group_580" data-name="Group 580" transform="translate(104.794)">
              <path id="Path_1558" data-name="Path 1558" d="M16.668,109.524S20.4,96.146,11.824,88.577-5.487,69.859,4.359,58.071s23.663-4.619,31.127-19.434S45.968,17.41,51.09,15.5c0,0-3.632-3.226-3.037-5.676s6.908.479,6.908.479S65.621-1.706,81.94.206s30.514,18.684,15.872,51.337L93.97,65.8,73.6,77.749Z" transform="translate(0 0)" fill="#734045"/>
            </g>
            <g id="Group_581" data-name="Group 581" transform="translate(105.278 6.398)">
              <path id="Path_1559" data-name="Path 1559" d="M82.607,16.627c-16.4,4.3-34.88,7.056-41.242,32.44S7.608,76.851,1.652,67.648A3.1,3.1,0,0,0,0,66.306C1.525,72.4,6.455,77.869,11.34,82.18c8.575,7.569,4.843,20.946,4.843,20.946L73.118,71.352,93.486,59.4l3.842-14.254c10.06-22.435,6.506-37.373-2-45.145h0S99.005,12.327,82.607,16.627Z" transform="translate(0)" fill="#533338"/>
            </g>
            <g id="Group_582" data-name="Group 582" transform="translate(182.714 290.743)">
              <path id="Path_1560" data-name="Path 1560" d="M33.677,33.234s3.335,7.407,4.765,10.991.119,9.438-7.146,6.69S3.423,28.933.565,22.122,6.521,3.246,8.545.259s9.41,20.789,9.41,20.789Z" transform="translate(0 0)" fill="#dd73a3"/>
            </g>
            <g id="Group_583" data-name="Group 583" transform="translate(197.571 318.405)">
              <path id="Path_1561" data-name="Path 1561" d="M16.439,23.254c7.265,2.748,8.575-3.106,7.146-6.69S18.82,5.572,18.82,5.572L11.631,0,7.555,1.778s5.211,11.56-5.519,9.171A3.853,3.853,0,0,0,0,10.918C6.253,16.708,12.914,21.922,16.439,23.254Z" fill="#c1538d"/>
            </g>
            <g id="Group_584" data-name="Group 584" transform="translate(191.259 246.798)">
              <path id="Path_1562" data-name="Path 1562" d="M14.055,0A140.248,140.248,0,0,0,5.6,24.612C2.025,39.068,0,44.205,0,44.205s1.548,15.651,9.53,24.85,15.364,10.514,15.6,8.124c0,0-7.265-16.009-7.622-22.341s2.5-12.665,5.36-17.085S42.165,7.885,42.165,7.885Z" fill="#f9cebe"/>
            </g>
            <g id="Group_585" data-name="Group 585" transform="translate(201.827 246.798)">
              <path id="Path_1563" data-name="Path 1563" d="M31.6,7.885,3.487,0S1.965,3.169,0,8.477A48.185,48.185,0,0,1,10.515,17.8C15.16,23.775,1.794,40.263.364,53.4-.742,63.574,1.454,69.918,3.3,73.385c6.135,5.227,11.071,5.741,11.265,3.795,0,0-7.265-16.009-7.622-22.341s2.5-12.665,5.36-17.085S31.6,7.885,31.6,7.885Z" fill="#de8d8c"/>
            </g>
            <g id="Group_586" data-name="Group 586" transform="translate(178.555 172.616)">
              <path id="Path_1564" data-name="Path 1564" d="M24.018.355S73.451,10.861,82.146,13.49,93.1,28.9,84.885,42.163,56.18,90.789,56.18,90.789l-36.8-17.2S38.591,39.5,42.4,35.354,9.529,11.141,9.529,11.141L0,3.334S16.32-1.294,24.018.355Z" transform="translate(0 0)" fill="#f9e487"/>
            </g>
            <g id="Group_587" data-name="Group 587" transform="translate(178.555 172.616)">
              <path id="Path_1565" data-name="Path 1565" d="M82.146,13.49C73.451,10.861,24.018.355,24.018.355,16.32-1.294,0,3.334,0,3.334l9.529,7.806S46.214,31.212,42.4,35.354c-1.96,2.13-7.993,12.179-13.392,21.439,4.993,4.544,18.263,17.464,27.169,34,0,0,20.487-35.364,28.706-48.625S90.841,16.118,82.146,13.49Z" transform="translate(0 0)" fill="#eabf5e"/>
            </g>
            <g id="Group_588" data-name="Group 588" transform="translate(277.635 305.1)">
              <path id="Path_1566" data-name="Path 1566" d="M1.886,0S.933,9.08.218,14.935s-.357,12.9,12.03,18.518,24.3,8.8,28.031,9.279,8.417-1.514,6.352-5.894S36.9,25.687,36.9,25.687L10.5,8.483Z" transform="translate(0)" fill="#dd73a3"/>
            </g>
            <g id="Group_589" data-name="Group 589" transform="translate(277.635 305.755)">
              <path id="Path_1567" data-name="Path 1567" d="M43.31,31.484c.805,3.583-10.576,6.927-21.533,0S10.818,10.8,10.818,10.8L1.816,0c-.228,2.159-1,9.352-1.6,14.279C-.5,20.133-.139,27.183,12.248,32.8s24.3,8.8,28.031,9.279,8.417-1.513,6.352-5.894A22.842,22.842,0,0,0,43.31,31.484Z" transform="translate(0)" fill="#c1538d"/>
            </g>
            <g id="Group_590" data-name="Group 590" transform="translate(253.196 259.095)">
              <path id="Path_1568" data-name="Path 1568" d="M0,10.522S12.269,29.279,19.892,38.956s8.456,12.305,9.647,15.293,7.5,11.469,15.365,15.411,15.245,4.182,16.437,2.032c0,0-10.6-11.947-12.149-14.695S25.014.367,24.894.009,0,10.522,0,10.522Z" transform="translate(0 0)" fill="#f9cebe"/>
            </g>
            <g id="Group_591" data-name="Group 591" transform="translate(253.196 259.094)">
              <path id="Path_1569" data-name="Path 1569" d="M28.3,8.155C26.268,3.312,24.923.1,24.894.009,24.775-.349,0,10.523,0,10.523S12.269,29.28,19.892,38.957c2.769,3.515,4.634,6.092,5.954,8.1l.358.071s-11.2-19.165-7.146-26.573C21.214,16.616,25.117,11.8,28.3,8.155Z" transform="translate(0 0)" fill="#de8d8c"/>
            </g>
            <g id="Group_592" data-name="Group 592" transform="translate(128.39 173.681)">
              <path id="Path_1570" data-name="Path 1570" d="M100.033,48.745S41.906,54,31.068,54.718s-24.418-2.27-29.3-15.77S3.672,8.84,3.672,8.84L37.976,0s63.247,10.514,74.444,12.305,15.723,4.66,19.891,16.607,17.152,40.74,19.891,46.116a81.493,81.493,0,0,0,4.884,8.482l-37.162,19.355S102.533,55.316,100.033,48.745Z" transform="translate(0)" fill="#f9e487"/>
            </g>
            <g id="Group_593" data-name="Group 593" transform="translate(128.39 173.681)">
              <path id="Path_1571" data-name="Path 1571" d="M126.951,78.732c-5-11.707-11.435-41.1-16.2-43.488-5.734-2.876-14.97,5.12-48.041,0-8.979-1.39-13.69-6.068-15.981-11.533-1.129-4.964-.051-9.26,7.206-13.318S74.391,6.042,74.393,6.042c-10.345-1.714-20.516-3.4-27.471-4.557h0L37.976,0,3.672,8.84S-3.117,25.447,1.767,38.947s18.462,16.488,29.3,15.77,68.965-5.973,68.965-5.973c2.5,6.571,19.891,54.121,19.891,54.121L142.435,91.14C140.739,92.024,131.954,90.44,126.951,78.732Z" transform="translate(0)" fill="#eabf5e"/>
            </g>
            <g id="Group_594" data-name="Group 594" transform="translate(196.051 177.985)">
              <path id="Path_1572" data-name="Path 1572" d="M52.262,99.3a.707.707,0,0,1-.268-.051.747.747,0,0,1-.428-.437c-.169-.464-16.613-45.424-19.689-53.585-2.191.2-10.5.945-19.2,1.722a.774.774,0,0,1-.8-.676.743.743,0,0,1,.674-.806C22.7,44.566,32.3,43.7,32.3,43.7a.746.746,0,0,1,.759.474c2.3,6.035,17.32,47.089,19.605,53.339L88.351,78.927a90.393,90.393,0,0,1-4.47-7.865C81.1,65.6,68.094,36.729,63.95,24.853c-4.12-11.8-8.433-14.378-19.309-16.118C39.9,7.976,25.086,5.534.621,1.479A.743.743,0,0,1,.01.625.737.737,0,0,1,.861.012c24.464,4.056,39.271,6.5,44.015,7.254,11.34,1.815,16.137,4.671,20.472,17.1C69.474,36.187,82.426,64.941,85.2,70.385a81.965,81.965,0,0,0,4.834,8.4.745.745,0,0,1-.268,1.082L52.6,99.22A.732.732,0,0,1,52.262,99.3Z" transform="translate(0 0)" fill="#d18437"/>
            </g>
            <g id="Group_595" data-name="Group 595" transform="translate(155.095 77.817)">
              <path id="Path_1573" data-name="Path 1573" d="M10.676,97.637s9.608,4.559,18.739,3.125,12.305-5.243,18.063-5.608S50.14,83.319,50.14,83.319L46.964,60.654,43.788,14.662,36.006,1.041h-16.2L7.754,0s-12.329,17.848-5.9,45.565A453.937,453.937,0,0,1,10.676,97.637Z" transform="translate(0)" fill="#d4a0e0"/>
            </g>
            <g id="Group_596" data-name="Group 596" transform="translate(162.557 132.189)">
              <path id="Path_1574" data-name="Path 1574" d="M42.678,28.946l-1-7.1L36.733,0A28.06,28.06,0,0,1,19.65,6.281,69.132,69.132,0,0,1,2.357,4.19S.951,12.239,0,19.767c2.278,13.946,3.213,23.5,3.213,23.5a48.818,48.818,0,0,0,8.532,2.651A30.022,30.022,0,0,1,15.2,33.9c3.812-6.452,17.612-6.521,22.047,7.347v0a13.952,13.952,0,0,1,2.764-.465C45.775,40.416,42.678,28.946,42.678,28.946Z" fill="#b886c4"/>
            </g>
            <g id="Group_597" data-name="Group 597" transform="translate(172.786 155.641)">
              <path id="Path_1575" data-name="Path 1575" d="M19.29,5.263C6.314,5.263.529,1.224.232,1.009A.557.557,0,0,1,.88.1C.968.167,10.04,6.451,30.8,3.192a.537.537,0,0,1,.633.465.556.556,0,0,1-.463.636A75.151,75.151,0,0,1,19.29,5.263Z" transform="translate(0 0)" fill="#7a5184"/>
            </g>
            <g id="Group_598" data-name="Group 598" transform="translate(173.118 90.059)">
              <path id="Path_1619" data-name="Path 1619" d="M0,.006,5.232,0V1.114L0,1.12Z" transform="translate(0 4.776) rotate(-65.901)" fill="#7a5184"/>
            </g>
            <g id="Group_599" data-name="Group 599" transform="translate(167.006 85.885)">
              <path id="Path_1576" data-name="Path 1576" d="M.981,5.385,0,4.862,2.565,0l.981.523Z" fill="#7a5184"/>
            </g>
            <g id="Group_600" data-name="Group 600" transform="translate(183.125 88.705)">
              <path id="Path_1577" data-name="Path 1577" d="M3.542,5.095,0,.7.866,0,4.408,4.395Z" fill="#7a5184"/>
            </g>
            <g id="Group_601" data-name="Group 601" transform="translate(187.537 83.829)">
              <path id="Path_1620" data-name="Path 1620" d="M.008,0,1.122,0,1.114,5.231,0,5.233Z" transform="translate(0 0.735) rotate(-40.942)" fill="#7a5184"/>
            </g>
            <g id="Group_602" data-name="Group 602" transform="translate(152.523 103.043)">
              <path id="Path_1578" data-name="Path 1578" d="M10.329,3.1S31.471,5.607,47.551.948s8.973,9.376,8.973,9.376l-7.068,7.47s-29.539,1.314-44.07,0S10.329,3.1,10.329,3.1Z" transform="translate(0 0)" fill="#986ca3"/>
            </g>
            <g id="Group_603" data-name="Group 603" transform="translate(55.765 151.758)">
              <path id="Path_1579" data-name="Path 1579" d="M1.139,26.82A35.071,35.071,0,0,1,.424,12.245C1.7,3.882,5.983,0,5.983,0L9.159.07,12.574,13.41Z" transform="translate(0 0)" fill="#33222c"/>
            </g>
            <g id="Group_604" data-name="Group 604" transform="translate(56.904 77.824)">
              <path id="Path_1580" data-name="Path 1580" d="M105.948,0S79.089,7.168,75.277,8.124s-3.812,1.752-4.843,3.5S50.5,61.966,50.5,61.966A140.52,140.52,0,0,0,26.561,67.3C15.722,71.006,7.5,73.156,7.5,73.156s.714,18.639-7.5,27.6c0,0,30.135-5.137,41.331-6.452S61.58,92.63,63.6,91.914,85.878,59.178,85.878,59.178Z" fill="#553e50"/>
            </g>
            <g id="Group_605" data-name="Group 605" transform="translate(56.904 102.23)">
              <path id="Path_1581" data-name="Path 1581" d="M84.927,0s-5.679,12.869-8.22,19.878S64.478,54.924,60.662,56.631c-2.412,1.079-26,5.84-43.034,7.651-3.636.389-3.931-6.955,3.345-9,5.618-1.581,23.572-5.67,33.864-7.168a6.952,6.952,0,0,0,5.825-8.12s-1.9.114-10.16-2.434A140.517,140.517,0,0,0,26.561,42.9C15.722,46.6,7.5,48.75,7.5,48.75a63.171,63.171,0,0,1-1.5,14.815c-.031.132-.322,1.309-.447,1.766-.034.126-.378,1.3-.527,1.763-.038.116-.437,1.277-.613,1.735A23.424,23.424,0,0,1,0,76.348S30.135,71.211,41.331,69.9,61.58,68.224,63.6,67.508,85.878,34.772,85.878,34.772L92.4,15.543A73.467,73.467,0,0,0,84.927,0Z" fill="#443044"/>
            </g>
            <g id="Group_606" data-name="Group 606" transform="translate(73.977 148.801)">
              <path id="Path_1582" data-name="Path 1582" d="M.556,21.852a.556.556,0,0,1-.5-.8A47.653,47.653,0,0,0,3.67.586.558.558,0,0,1,4.2,0a.541.541,0,0,1,.583.53,48.842,48.842,0,0,1-3.723,21A.553.553,0,0,1,.556,21.852Z" transform="translate(0 0)" fill="#33222c"/>
            </g>
            <g id="Group_607" data-name="Group 607" transform="translate(162.356 49.628)">
              <path id="Path_1583" data-name="Path 1583" d="M0,0,.5,28.2S7.384,40.461,18.1,42.851c0,0,8.894-6.69,10.641-13.62l-.635-11.39Z" fill="#f9cebe"/>
            </g>
            <g id="Group_608" data-name="Group 608" transform="translate(161.226 77.942)">
              <path id="Path_1584" data-name="Path 1584" d="M19.974,20.444a.559.559,0,0,1-.132-.016C5.23,16.87.26,6.918.056,6.5a.549.549,0,0,1-.049-.332L.9.472a.555.555,0,0,1,1.022-.2c.069.113,6.971,11.242,17.2,13.67,1.323-.906,9.022-6.406,10.56-12.494a.553.553,0,0,1,.509-.42.529.529,0,0,1,.55.363L32.457,6.06a.55.55,0,0,1,.008.36C29.657,15.384,20.614,20.182,20.23,20.382A.567.567,0,0,1,19.974,20.444ZM1.134,6.157c.674,1.242,5.79,9.9,18.764,13.136,1.271-.715,8.931-5.293,11.45-13.027l-1.1-3C27.679,9.631,19.892,14.77,19.536,15a.569.569,0,0,1-.423.077C10.247,13.1,3.932,5.137,1.777,2.059Z" transform="translate(0 0)" fill="#7a5184"/>
            </g>
            <g id="Group_609" data-name="Group 609" transform="translate(162.356 49.628)">
              <path id="Path_1585" data-name="Path 1585" d="M28.682,28.115l-.573-10.274L0,0,.05,2.869h0S4.282,28.592,28.682,28.115Z" fill="#de8d8c"/>
            </g>
            <g id="Group_610" data-name="Group 610" transform="translate(156.954 26.192)">
              <path id="Path_1586" data-name="Path 1586" d="M5.9,24.312S-.117,23.177,0,17.144s6.124-5.566,7.929-2.952c.735,1.065,2.017,3.132,2.85,2.773s1.013-5.318,2.739-6.094,9.53-1.314,17.986-3.823A48.523,48.523,0,0,0,45.859,0s.437,21.6-.6,30.365S41.055,44.559,33.67,44.543C25.8,44.526,11.873,38.012,5.9,24.312Z" transform="translate(0)" fill="#f9cebe"/>
            </g>
            <g id="Group_612" data-name="Group 612" transform="translate(168.619 26.192)">
              <g id="Group_611" data-name="Group 611" transform="translate(0)">
                <path id="Path_1587" data-name="Path 1587" d="M34.194,0A48.522,48.522,0,0,1,19.841,7.048C11.385,9.558,3.583,10.095,1.855,10.872.868,11.316.387,13.126,0,14.663H0C27.386,11.823,34.194,0,34.194,0Z" transform="translate(0)" fill="#de8d8c"/>
              </g>
            </g>
            <g id="Group_613" data-name="Group 613" transform="translate(158.72 40.772)">
              <path id="Path_1588" data-name="Path 1588" d="M5.567,3.653a.556.556,0,0,1-.528-.385C4.816,2.585,3.853.752,2.389,1.19a1.739,1.739,0,0,0-1.27,1.843.559.559,0,0,1-.492.616.568.568,0,0,1-.614-.495A2.852,2.852,0,0,1,2.065.125C4.149-.517,5.618,1.449,6.1,2.923a.557.557,0,0,1-.356.7A.544.544,0,0,1,5.567,3.653Z" transform="translate(0 0)" fill="#bf6767"/>
            </g>
            <g id="Group_614" data-name="Group 614" transform="translate(191.775 39.626)">
              <path id="Path_1589" data-name="Path 1589" d="M1.049,16.588a3.3,3.3,0,0,1-.4-.023.742.742,0,0,1-.645-.827.75.75,0,0,1,.82-.649A2.122,2.122,0,0,0,3.2,13.359c.164-.754-.4-1.88-1.057-3.184C.966,7.835-.645,4.628.493.543a.741.741,0,1,1,1.427.4c-.983,3.53.42,6.321,1.547,8.562.782,1.556,1.456,2.9,1.182,4.17A3.549,3.549,0,0,1,1.049,16.588Z" transform="translate(0 0)" fill="#bf6767"/>
            </g>
            <g id="Group_615" data-name="Group 615" transform="translate(195.49 39.247)">
              <ellipse id="Ellipse_27" data-name="Ellipse 27" cx="3.357" cy="2.233" rx="3.357" ry="2.233" transform="translate(0 6.711) rotate(-88.397)" fill="#502d31"/>
            </g>
            <g id="Group_616" data-name="Group 616" transform="translate(181.889 38.674)">
              <ellipse id="Ellipse_28" data-name="Ellipse 28" cx="2.233" cy="3.357" rx="2.233" ry="3.357" transform="translate(0 0.302) rotate(-3.877)" fill="#502d31"/>
            </g>
            <g id="Group_617" data-name="Group 617" transform="translate(180.739 33.894)">
              <path id="Path_1590" data-name="Path 1590" d="M7.145,3.547A1.108,1.108,0,0,1,6.3,3.158a2.927,2.927,0,0,0-2.085-.926A4.094,4.094,0,0,0,1.879,3.238,1.114,1.114,0,0,1,.337,1.63,6.315,6.315,0,0,1,4.119,0a5.166,5.166,0,0,1,3.87,1.7,1.115,1.115,0,0,1-.844,1.841Z" transform="translate(0 0)" fill="#502d31"/>
            </g>
            <g id="Group_618" data-name="Group 618" transform="translate(193.836 33.486)">
              <path id="Path_1591" data-name="Path 1591" d="M1.122,3.349A1.181,1.181,0,0,1,.6,3.227,1.156,1.156,0,0,1,.118,1.693C.236,1.448.958.217,3.451.016a5.579,5.579,0,0,1,4.1,1.364A1.114,1.114,0,0,1,6.008,2.991a3.122,3.122,0,0,0-2.381-.75c-1.226.1-1.557.513-1.561.517A1.032,1.032,0,0,1,1.122,3.349Z" transform="translate(0 0)" fill="#502d31"/>
            </g>
            <g id="Group_619" data-name="Group 619" transform="translate(181.42 54.695)">
              <ellipse id="Ellipse_29" data-name="Ellipse 29" cx="3.5" cy="3.659" rx="3.5" ry="3.659" transform="translate(0 0.816) rotate(-6.696)" fill="#77303f"/>
            </g>
            <g id="Group_620" data-name="Group 620" transform="translate(181.966 59.259)">
              <path id="Path_1592" data-name="Path 1592" d="M4.521,2.94a3.232,3.232,0,0,0,.486-.233c-.02-.076-.028-.152-.053-.229A3.5,3.5,0,0,0,.487.2,3.4,3.4,0,0,0,0,.43C.02.507.028.584.053.66A3.5,3.5,0,0,0,4.521,2.94Z" transform="translate(0 0)" fill="#e56782"/>
            </g>
            <g id="Group_621" data-name="Group 621" transform="translate(124.918 77.817)">
              <path id="Path_1593" data-name="Path 1593" d="M39.665,121.306c-.593,0-39.665-9.917-39.665-9.917A133.4,133.4,0,0,0,9.176,95.867c4.046-8.252,7.4-23,7.737-25.1.2-1.231.832-3.7-.994-8.479-2.333-6.1-4-16.242-2.462-22.62,2.387-9.917,3.456-15.259,3.456-15.259V5.605C26,3.2,37.931,0,37.931,0s.3,3.153,1.5,10.556,1.66,25.93.385,36.129c-1.259,10.184,2.224,22.063,3.425,35.682S40.258,121.306,39.665,121.306Z" fill="#553e50"/>
            </g>
            <g id="Group_622" data-name="Group 622" transform="translate(136.583 126.253)">
              <path id="Path_1594" data-name="Path 1594" d="M31.573,33.93c-.761-8.63-2.436-16.56-3.242-23.8C6.673,7.975,1.359.071,1.312,0A51.7,51.7,0,0,0,4.255,13.855c1.826,4.779,1.19,7.248.994,8.479A148.1,148.1,0,0,1,0,41.387v.006S6.08,30.263,18.513,31.143c6.4.454,10.569,2.067,13.114,3.525C31.61,34.421,31.594,34.17,31.573,33.93Z" fill="#443044"/>
            </g>
            <g id="Group_623" data-name="Group 623" transform="translate(137.217 101.671)">
              <path id="Path_1595" data-name="Path 1595" d="M3.62,39a.558.558,0,0,1-.52-.358C.715,32.4-.964,22.232.619,15.687,2.973,5.9,4.058.5,4.07.449A.545.545,0,0,1,4.724.014.556.556,0,0,1,5.158.67c-.011.052-1.1,5.465-3.46,15.279-1.473,6.1.084,16.12,2.441,22.289A.556.556,0,0,1,3.62,39Z" transform="translate(0 0)" fill="#33222c"/>
            </g>
            <g id="Group_624" data-name="Group 624" transform="translate(191.101 78.858)">
              <path id="Path_1596" data-name="Path 1596" d="M25.147,97.051c-.356-.06-12.622-2.7-13.675-2.938-1.067-.254-2.149-2.989-4.431-9.8S3.81,67.782,5.395,56.468s2.7-18.154,0-30.42C2.8,14.258.207,1.055.015.06A.236.236,0,0,1,0,0S9.412,3.345,16.349,5.918a50.951,50.951,0,0,0-.238,15.433c1.32,8.95,5.84,17.32,5.129,25.439a42.358,42.358,0,0,1-2.224,9.277c-2,5.947-4.52,11.552-4.209,13.425C15.282,72.316,24.865,96.307,25.147,97.051Z" fill="#553e50"/>
            </g>
            <g id="Group_625" data-name="Group 625" transform="translate(195.713 119.818)">
              <path id="Path_1597" data-name="Path 1597" d="M6.861,53.153c1.053.238,13.319,2.878,13.675,2.936-.177-.468-4.043-10.156-7-17.968q-.215-.568-.422-1.119c-.082-.217-.163-.432-.242-.646-.113-.3-2.613-7.452-2.676-7.825-.311-1.874,2.208-7.478,4.209-13.425a42.364,42.364,0,0,0,2.224-9.277A23.986,23.986,0,0,0,16.357,0C15.532,4.557,10.328,9.921,1.08,13.4c-.1.685-.2,1.386-.3,2.105a67,67,0,0,0,.65,24.259L1.5,39.7a6.479,6.479,0,0,1,11.021,3.781,25.218,25.218,0,0,1,.11,3.251C12.508,52.043,6.861,53.153,6.861,53.153Z" transform="translate(0)" fill="#443044"/>
            </g>
            <g id="Group_626" data-name="Group 626" transform="translate(205.327 94.508)">
              <path id="Path_1598" data-name="Path 1598" d="M10.922,81.958a.555.555,0,0,1-.52-.358c-.034-.088-.2-.509-.47-1.188C3.647,64.531.317,55.623.033,53.934c-.239-1.443.843-4.367,2.338-8.414.615-1.663,1.279-3.457,1.893-5.283a41.365,41.365,0,0,0,2.2-9.147c.42-4.8-1.03-9.69-2.564-14.864A75.977,75.977,0,0,1,1.336,5.781,46.6,46.6,0,0,1,.877.577.558.558,0,0,1,1.415,0h.018a.557.557,0,0,1,.556.538,45.386,45.386,0,0,0,.447,5.081,75.133,75.133,0,0,0,2.528,10.29c1.566,5.279,3.043,10.265,2.606,15.28a42.365,42.365,0,0,1-2.252,9.405c-.617,1.836-1.285,3.641-1.9,5.315C2.141,49.351.94,52.6,1.131,53.75c.185,1.106,2.042,6.56,9.835,26.25.272.686.44,1.113.475,1.2a.557.557,0,0,1-.52.757Z" transform="translate(0)" fill="#33222c"/>
            </g>
            <g id="Group_627" data-name="Group 627" transform="translate(191.101 78.858)">
              <path id="Path_1599" data-name="Path 1599" d="M0,0" transform="translate(0 0)" fill="#553e50"/>
            </g>
            <g id="Group_628" data-name="Group 628" transform="translate(72.468 142.219)">
              <path id="Path_1600" data-name="Path 1600" d="M45.1,0H0L9.026,5.491Z" fill="#dcd7f7"/>
            </g>
            <g id="Group_637" data-name="Group 637" transform="translate(0 112.232)">
              <g id="Group_629" data-name="Group 629" transform="translate(0.001 0)">
                <path id="Path_1601" data-name="Path 1601" d="M79.852,39.593H24.869a3.66,3.66,0,0,1-3.121-1.749L.278,2.834A1.86,1.86,0,0,1,1.857,0H57.882a5.586,5.586,0,0,1,4.842,2.806l20.8,36.209Z" transform="translate(0)" fill="#f5eeff"/>
              </g>
              <g id="Group_630" data-name="Group 630" transform="translate(0 0.004)">
                <path id="Path_1602" data-name="Path 1602" d="M83.519,39.012l-3.661.58H24.866a3.653,3.653,0,0,1-3.112-1.754L.275,2.824A1.857,1.857,0,0,1,1.862,0H57.877a5.567,5.567,0,0,1,4.787,2.705L81.488,35.474Z" transform="translate(0)" fill="#f5eeff"/>
              </g>
              <g id="Group_633" data-name="Group 633" transform="translate(10.684 17.308)">
                <g id="Group_631" data-name="Group 631" transform="translate(0.025 0)">
                  <path id="Path_1603" data-name="Path 1603" d="M72.809,21.709,70.779,18.17,60.342,0a23.463,23.463,0,0,0-4.049.313S52.15,9.144,27.879,9.144C4.662,9.144.332,3.058,0,2.53l11.045,18a3.653,3.653,0,0,0,3.112,1.754H69.149Z" transform="translate(0 0)" fill="#dcd7f7"/>
                </g>
                <g id="Group_632" data-name="Group 632" transform="translate(0 2.489)">
                  <path id="Path_1604" data-name="Path 1604" d="M0,0H0Z" fill="#dcd7f7"/>
                </g>
              </g>
              <g id="Group_636" data-name="Group 636" transform="translate(58.04 0.18)">
                <g id="Group_634" data-name="Group 634" transform="translate(1.22 0)">
                  <path id="Path_1605" data-name="Path 1605" d="M0,0,.09.022C.061.014.031.007,0,0Z" fill="#dcd7f7"/>
                </g>
                <g id="Group_635" data-name="Group 635" transform="translate(0 0.029)">
                  <path id="Path_1606" data-name="Path 1606" d="M23.448,35.269,4.624,2.5A5.563,5.563,0,0,0,1.331,0C1.307,0-.871.293.4,2.5h0L21.581,39.388h.237l3.661-.58,31.5-4.966a3.02,3.02,0,0,0,2.546-2.987V29.783Z" transform="translate(0 0)" fill="#aeacc6"/>
                </g>
              </g>
            </g>
            <g id="Group_638" data-name="Group 638" transform="translate(23.289 144.714)">
              <path id="Path_1607" data-name="Path 1607" d="M4.075.014S1.535-.184.5.891s-.715,2.27,3.255,2.868S16.731,7.6,16.731,7.6L14.637,4Z" transform="translate(0 0)" fill="#de8d8c"/>
            </g>
            <g id="Group_639" data-name="Group 639" transform="translate(26.206 141.443)">
              <path id="Path_1608" data-name="Path 1608" d="M38.221,10.846c0,1.146-.045,2.974-.237,5.19-.119,1.4-.3,2.958-.548,4.594a52.946,52.946,0,0,1-14.008-4.7c-2.564-1.353-6.107-3.211-9.62-5.055,0-.015-.015-.015-.03-.015C7.821,7.724,1.936,4.617,1.077,4.126a2.433,2.433,0,0,1-.919-.832c-.623-1.085.7-2.2,2.312-2.007a8.16,8.16,0,0,1,3.1.922S5.211-.26,7.228.023,15.009,2.684,18.2,4.2c1.23.595,2.89,1.324,4.432,1.992,2.43,1.041,4.61,1.948,4.61,1.948Z" transform="translate(0 0)" fill="#f9cebe"/>
            </g>
            <g id="Group_640" data-name="Group 640" transform="translate(25.65 140.887)">
              <path id="Path_1609" data-name="Path 1609" d="M14.364,11.989a.57.57,0,0,1-.128-.014l-.16-.064C6.106,7.714,2.064,5.57,1.358,5.166A2.985,2.985,0,0,1,.232,4.128,1.622,1.622,0,0,1,.284,2.376,2.94,2.94,0,0,1,3.09,1.289a10.444,10.444,0,0,1,2.478.6,2.333,2.333,0,0,1,.6-1.382A1.9,1.9,0,0,1,7.86.027c2.068.286,7.793,2.638,11.131,4.225,1.234.6,2.922,1.339,4.412,1.985a.556.556,0,0,1-.44,1.022c-1.5-.65-3.2-1.4-4.452-2C15.323,3.742,9.639,1.4,7.706,1.13c-.517-.068-.7.1-.752.164a2,2,0,0,0-.28,1.39L6.842,3.86,5.831,3.237A7.827,7.827,0,0,0,2.957,2.4a1.89,1.89,0,0,0-1.746.595.509.509,0,0,0-.016.583,1.891,1.891,0,0,0,.715.627c.9.516,7.566,4.029,12.561,6.66h.419l.03.572A.556.556,0,0,1,14.364,11.989Z" transform="translate(0 0)" fill="#bf6767"/>
            </g>
            <g id="Group_641" data-name="Group 641" transform="translate(42.551 139.858)">
              <path id="Path_1610" data-name="Path 1610" d="M21.877,12.432c0,1.146-.045,2.974-.237,5.19L21.509,19,9.351,10.931S7.973,9.517,6.284,7.778C3.763,5.176.561,1.847.132,1.252c-.712-1,1.556-2.231,4.328,0s8.82,6.764,9.264,6.883,6.524.521,8.152,3.833Z" transform="translate(0 0)" fill="#f9cebe"/>
            </g>
            <g id="Group_642" data-name="Group 642" transform="translate(48.835 149.359)">
              <path id="Path_1611" data-name="Path 1611" d="M14.808,12.714c.252-1.636.429-3.2.548-4.594.192-2.216.237-4.044.237-5.19L12.792,0c.643,2.4-.932,4.633-2.623,6.145C6.314,9.593,0,7.593,0,7.593H0l.8.422A52.952,52.952,0,0,0,14.808,12.714Z" fill="#de8d8c"/>
            </g>
            <g id="Group_643" data-name="Group 643" transform="translate(41.998 139.302)">
              <path id="Path_1612" data-name="Path 1612" d="M22.43,13.081a.552.552,0,0,1-.5-.31c-.862-1.753-3.33-2.918-7.335-3.466-.243-.033-.4-.06-.468-.077-.689-.184-7.733-5.6-9.463-6.986C3.113.992,1.861,1.016,1.366,1.228c-.187.08-.255.174-.256.2C1.445,1.91,3.5,4.086,7.235,7.945L10.3,11.1a.557.557,0,0,1-.008.788.551.551,0,0,1-.785-.007L6.438,8.723C2.5,4.659.591,2.627.235,2.134A1.181,1.181,0,0,1,.4.544c.876-.831,2.911-.823,4.964.828,3.005,2.406,8.539,6.535,9.108,6.8,0,0,.117.011.28.032,1.636.224,6.622.906,8.18,4.077a.559.559,0,0,1-.252.747A.567.567,0,0,1,22.43,13.081Z" transform="translate(0 0)" fill="#bf6767"/>
            </g>
            <g id="Group_644" data-name="Group 644" transform="translate(31.217 143.091)">
              <path id="Path_1613" data-name="Path 1613" d="M16.337,9.785a.565.565,0,0,1-.272-.07C15.938,9.643,3.478,2.606.313,1.061A.557.557,0,0,1,.057.316.548.548,0,0,1,.8.059C4,1.618,16.1,8.453,16.609,8.741a.558.558,0,0,1-.272,1.044Z" transform="translate(0 0)" fill="#bf6767"/>
            </g>
            <g id="Group_645" data-name="Group 645" transform="translate(29.505 126.034)">
              <path id="Path_1623" data-name="Path 1623" d="M3.108,0C4.82,0,6.206,2.294,6.2,5.128s-1.4,5.134-3.108,5.136S0,7.971,0,5.136,1.4,0,3.108,0Z" transform="translate(0 3.101) rotate(-30)" fill="#aeacc6"/>
            </g>
            <g id="Group_646" data-name="Group 646" transform="translate(142.941 164.282)">
              <path id="Path_1614" data-name="Path 1614" d="M18.422,6.731a.531.531,0,0,1-.166-.027L.389,1.089A.557.557,0,0,1,.722.026L18.589,5.642a.558.558,0,0,1-.167,1.089Z" transform="translate(0 0)" fill="#33222c"/>
            </g>
            <g id="Group_647" data-name="Group 647" transform="translate(202.227 162.97)">
              <path id="Path_1615" data-name="Path 1615" d="M.556,3.674A.558.558,0,0,1,.324,2.609L5.883.051a.557.557,0,0,1,.463,1.014L.787,3.623A.544.544,0,0,1,.556,3.674Z" transform="translate(0 0)" fill="#33222c"/>
            </g>
          </g>
        </g>
      </g>
    </g>
  </g>
</svg>
