<svg xmlns="http://www.w3.org/2000/svg" width="1920" height="3021.982" viewBox="0 0 1920 3021.982">
  <g id="Group_5148" data-name="Group 5148" transform="translate(0.5 -4693.037)">
    <g id="Group_5145" data-name="Group 5145">
      <path id="Path_12182" data-name="Path 12182" d="M0,0H2975.941V1920H0Z" transform="translate(1919.5 4739.077) rotate(90)" fill="#430671"/>
      <g id="Group_3341" data-name="Group 3341" transform="translate(2113.323 4415.413) rotate(90)">
        <path id="Path_12130" data-name="Path 12130" d="M981.34,1822.206c30.99,373.748,259.987,571.62,493.413,571.62,321.777,0,753.434-488,1309.513-493.339,358.366-3.441,518.517,173.027,719.428,171.787,205.794-1.27,326-241.736,326-527.625,0-408.495-210.283-717.891-485.359-709.635-179.786,5.4-351.713,172.47-534.133,177.374-275.449,7.4-567.664-488.413-976.421-473.378-373.58,13.742-812.289,430.022-853.849,1089.131C975.786,1693.868,976.11,1759.135,981.34,1822.206Z" transform="translate(-625.519 -344.853)" fill="#082054"/>
        <g id="Group_3340" data-name="Group 3340" transform="translate(277.624 227.997)">
          <path id="Path_12131" data-name="Path 12131" d="M4551.651,1250.708l3.77.808a3.415,3.415,0,0,1,2.624,2.624l.808,3.77.808-3.77a3.415,3.415,0,0,1,2.624-2.624l3.77-.808-3.77-.808a3.415,3.415,0,0,1-2.624-2.624l-.808-3.77-.808,3.77a3.415,3.415,0,0,1-2.624,2.624Z" transform="translate(-2347.894 -661.765)" fill="#ffb700"/>
          <path id="Path_12132" data-name="Path 12132" d="M3854.323,1536.261l2.1.449a1.9,1.9,0,0,1,1.459,1.459l.449,2.1.449-2.1a1.9,1.9,0,0,1,1.459-1.459l2.1-.449-2.1-.449a1.9,1.9,0,0,1-1.459-1.459l-.449-2.1-.449,2.1a1.9,1.9,0,0,1-1.459,1.459Z" transform="translate(-2059.465 -679.868)" fill="#fff"/>
          <path id="Path_12133" data-name="Path 12133" d="M5247.061,716.655l10.745,2.3a9.735,9.735,0,0,1,7.479,7.479l2.3,10.745,2.3-10.745a9.734,9.734,0,0,1,7.479-7.479l10.745-2.3-10.745-2.3a9.734,9.734,0,0,1-7.479-7.479l-2.3-10.745-2.3,10.745a9.735,9.735,0,0,1-7.479,7.479Z" transform="translate(-2485.37 -673.649)" fill="#0bf"/>
          <path id="Path_12134" data-name="Path 12134" d="M4156.051,1970.156l3.654.783a3.309,3.309,0,0,1,2.543,2.543l.783,3.654.783-3.654a3.31,3.31,0,0,1,2.543-2.543l3.654-.783-3.654-.783a3.311,3.311,0,0,1-2.543-2.543l-.783-3.654-.783,3.654a3.309,3.309,0,0,1-2.543,2.543Z" transform="translate(-2183.106 -695.436)" fill="#fff"/>
          <path id="Path_12135" data-name="Path 12135" d="M2321.164,1226.526l3.443.738a3.119,3.119,0,0,1,2.4,2.4l.738,3.443.738-3.443a3.12,3.12,0,0,1,2.4-2.4l3.443-.738-3.443-.738a3.119,3.119,0,0,1-2.4-2.4l-.738-3.443-.738,3.443a3.119,3.119,0,0,1-2.4,2.4Z" transform="translate(-1417.997 -661.294)" fill="#fff"/>
          <path id="Path_12136" data-name="Path 12136" d="M1950.971,733.841l9.011,1.931a8.164,8.164,0,0,1,6.272,6.272l1.93,9.011,1.931-9.011a8.164,8.164,0,0,1,6.272-6.272l9.011-1.931-9.011-1.931a8.163,8.163,0,0,1-6.272-6.272l-1.931-9.011-1.931,9.011a8.162,8.162,0,0,1-6.272,6.272Z" transform="translate(-1260.521 -686.771)" fill="#ffb700"/>
          <path id="Path_12137" data-name="Path 12137" d="M3798.932,1335.785l4,.858a3.627,3.627,0,0,1,2.787,2.787l.858,4,.858-4a3.628,3.628,0,0,1,2.787-2.787l4-.858-4-.858a3.628,3.628,0,0,1-2.787-2.787l-.858-4-.858,4a3.627,3.627,0,0,1-2.787,2.787Z" transform="translate(-2033.678 -665.141)" fill="#fff"/>
          <path id="Path_12138" data-name="Path 12138" d="M4175.45,1150.956l9.462,2.027a8.573,8.573,0,0,1,6.586,6.586l2.027,9.462,2.027-9.462a8.572,8.572,0,0,1,6.586-6.586l9.462-2.027-9.462-2.028a8.572,8.572,0,0,1-6.586-6.586l-2.027-9.462-2.028,9.462a8.571,8.571,0,0,1-6.585,6.586Z" transform="translate(-2182.01 -647.238)" fill="#ffb700"/>
          <path id="Path_12139" data-name="Path 12139" d="M2046.653,2508.744l14.561,3.12A13.192,13.192,0,0,1,2071.35,2522l3.12,14.562,3.12-14.562a13.193,13.193,0,0,1,10.136-10.135l14.561-3.12-14.561-3.12a13.192,13.192,0,0,1-10.136-10.136l-3.12-14.561-3.12,14.561a13.192,13.192,0,0,1-10.135,10.136Z" transform="translate(-1296.827 -650.734)" fill="#0bf"/>
          <path id="Path_12140" data-name="Path 12140" d="M3877.111,854.783l4.895,1.049a4.435,4.435,0,0,1,3.407,3.407l1.048,4.895,1.049-4.895a4.434,4.434,0,0,1,3.407-3.407l4.895-1.049-4.895-1.049a4.433,4.433,0,0,1-3.407-3.407l-1.049-4.895-1.048,4.895a4.434,4.434,0,0,1-3.407,3.407Z" transform="translate(-2064.998 -769.231)" fill="#fff"/>
          <path id="Path_12141" data-name="Path 12141" d="M4179.6,2279.929l9.575,2.051a8.676,8.676,0,0,1,6.666,6.665l2.051,9.575,2.052-9.575a8.675,8.675,0,0,1,6.665-6.665l9.575-2.051-9.575-2.052a8.675,8.675,0,0,1-6.665-6.665l-2.052-9.575-2.051,9.575a8.676,8.676,0,0,1-6.665,6.665Z" transform="translate(-2183.549 -510.348)" fill="#fff"/>
          <path id="Path_12142" data-name="Path 12142" d="M3646,1220.9l4.895,1.048a4.436,4.436,0,0,1,3.407,3.407l1.048,4.895,1.049-4.895a4.434,4.434,0,0,1,3.407-3.407l4.895-1.048-4.895-1.049a4.434,4.434,0,0,1-3.407-3.407l-1.049-4.895-1.048,4.895a4.435,4.435,0,0,1-3.407,3.407Z" transform="translate(-1968.742 -658.189)" fill="#fff"/>
          <path id="Path_12143" data-name="Path 12143" d="M784.817,2241.633l4.207.9a3.812,3.812,0,0,1,2.928,2.928l.9,4.207.9-4.207a3.812,3.812,0,0,1,2.928-2.928l4.207-.9-4.207-.9a3.812,3.812,0,0,1-2.928-2.928l-.9-4.207-.9,4.207a3.812,3.812,0,0,1-2.928,2.928Z" transform="translate(-780.052 -578.918)" fill="#ffb700"/>
          <path id="Path_12144" data-name="Path 12144" d="M2049.156,1091.3l9.011,1.93a8.164,8.164,0,0,1,6.272,6.272l1.931,9.011,1.93-9.011a8.164,8.164,0,0,1,6.272-6.272l9.011-1.93-9.011-1.931a8.164,8.164,0,0,1-6.272-6.272l-1.93-9.011-1.931,9.011a8.164,8.164,0,0,1-6.272,6.272Z" transform="translate(-1301.226 -646.316)" fill="#fff"/>
          <path id="Path_12145" data-name="Path 12145" d="M1108.729,1732.787l12.675,2.715a11.484,11.484,0,0,1,8.822,8.822l2.716,12.675,2.716-12.675a11.483,11.483,0,0,1,8.822-8.822l12.674-2.715-12.675-2.715a11.483,11.483,0,0,1-8.822-8.822l-2.716-12.675-2.716,12.675a11.483,11.483,0,0,1-8.822,8.822Z" transform="translate(-987.416 -650.868)" fill="#fff"/>
          <path id="Path_12146" data-name="Path 12146" d="M2546.091,2381.653l9.011,1.931a8.163,8.163,0,0,1,6.272,6.272l1.931,9.011,1.931-9.011a8.164,8.164,0,0,1,6.272-6.272l9.011-1.931-9.011-1.931a8.162,8.162,0,0,1-6.272-6.272l-1.931-9.011-1.931,9.011a8.162,8.162,0,0,1-6.272,6.272Z" transform="translate(-1507.242 -576.16)" fill="#9bd900"/>
          <path id="Path_12147" data-name="Path 12147" d="M3244.652,1027.907l9.011,1.93a8.164,8.164,0,0,1,6.272,6.272l1.93,9.011,1.931-9.011a8.164,8.164,0,0,1,6.272-6.272l9.011-1.93-9.011-1.931a8.164,8.164,0,0,1-6.272-6.272l-1.931-9.011-1.93,9.011a8.164,8.164,0,0,1-6.272,6.272Z" transform="translate(-1796.847 -644.493)" fill="#fff"/>
          <path id="Path_12148" data-name="Path 12148" d="M4930.438,2066.855l9.011,1.93a8.164,8.164,0,0,1,6.272,6.272l1.931,9.011,1.931-9.011a8.164,8.164,0,0,1,6.272-6.272l9.011-1.93-9.011-1.931a8.163,8.163,0,0,1-6.272-6.272l-1.931-9.011-1.931,9.011a8.164,8.164,0,0,1-6.272,6.272Z" transform="translate(-2334.047 -674.368)" fill="#d10f0f"/>
          <path id="Path_12149" data-name="Path 12149" d="M5171.518,1678l2.722.583a2.466,2.466,0,0,1,1.895,1.895l.583,2.722.583-2.722a2.465,2.465,0,0,1,1.895-1.895l2.722-.583-2.722-.583a2.464,2.464,0,0,1-1.895-1.894l-.583-2.722-.583,2.722a2.466,2.466,0,0,1-1.895,1.894Z" transform="translate(-2437.009 -685.038)" fill="#fff"/>
          <path id="Path_12150" data-name="Path 12150" d="M5908.663,2107.773l5.82,1.247a5.273,5.273,0,0,1,4.051,4.051l1.247,5.821,1.247-5.821a5.272,5.272,0,0,1,4.051-4.051l5.82-1.247-5.82-1.247a5.273,5.273,0,0,1-4.051-4.051l-1.247-5.82-1.247,5.82a5.274,5.274,0,0,1-4.051,4.051Z" transform="translate(-2908.919 -691.34)" fill="#fff"/>
          <path id="Path_12151" data-name="Path 12151" d="M2070.032,1827.385l5.079,1.088a4.6,4.6,0,0,1,3.535,3.535l1.088,5.079,1.088-5.079a4.6,4.6,0,0,1,3.535-3.535l5.079-1.088-5.079-1.088a4.6,4.6,0,0,1-3.535-3.535l-1.088-5.079-1.088,5.079a4.6,4.6,0,0,1-3.535,3.536Z" transform="translate(-1312.258 -683.215)" fill="#fff"/>
          <path id="Path_12152" data-name="Path 12152" d="M3619.035,2540.973l5.079,1.088a4.6,4.6,0,0,1,3.535,3.535l1.088,5.079,1.088-5.079a4.6,4.6,0,0,1,3.535-3.535l5.079-1.088-5.079-1.089a4.6,4.6,0,0,1-3.535-3.535l-1.088-5.079-1.088,5.079a4.6,4.6,0,0,1-3.535,3.535Z" transform="translate(-1957.269 -682.963)" fill="#fff"/>
          <path id="Path_12153" data-name="Path 12153" d="M2320.617,652.486l9.86,2.112a8.933,8.933,0,0,1,6.863,6.863l2.112,9.86,2.113-9.86a8.933,8.933,0,0,1,6.863-6.863l9.86-2.112-9.86-2.112a8.933,8.933,0,0,1-6.863-6.863l-2.113-9.86-2.112,9.86a8.933,8.933,0,0,1-6.863,6.863Z" transform="translate(-1413.148 -633.651)" fill="#fff"/>
          <path id="Path_12154" data-name="Path 12154" d="M1855.244,2132.754l2.722.583a2.466,2.466,0,0,1,1.894,1.894l.583,2.722.583-2.722a2.466,2.466,0,0,1,1.894-1.894l2.722-.583-2.722-.583a2.466,2.466,0,0,1-1.894-1.895l-.583-2.722-.583,2.722a2.466,2.466,0,0,1-1.894,1.895Z" transform="translate(-1223.994 -707.525)" fill="#fff"/>
          <g id="Group_3337" data-name="Group 3337" transform="translate(2709.42 880.236)">
            <path id="Path_12155" data-name="Path 12155" d="M5109.125,1570.878a7.334,7.334,0,1,1,7.334-7.334A7.342,7.342,0,0,1,5109.125,1570.878Zm0-12.509a5.175,5.175,0,1,0,5.175,5.175A5.181,5.181,0,0,0,5109.125,1558.369Z" transform="translate(-5101.791 -1556.21)" fill="#fff"/>
          </g>
          <g id="Group_3338" data-name="Group 3338" transform="translate(1318.115 627.56)">
            <path id="Path_12156" data-name="Path 12156" d="M3039.732,1306.053a7.334,7.334,0,1,1,7.334-7.334A7.342,7.342,0,0,1,3039.732,1306.053Zm0-12.509a5.175,5.175,0,1,0,5.175,5.175A5.181,5.181,0,0,0,3039.732,1293.544Z" transform="translate(-3032.398 -1291.385)" fill="#fff"/>
          </g>
          <circle id="Ellipse_1757" data-name="Ellipse 1757" cx="6.255" cy="6.255" r="6.255" transform="matrix(0.383, -0.924, 0.924, 0.383, 1604.426, 670.381)" fill="#ffb700"/>
          <circle id="Ellipse_1758" data-name="Ellipse 1758" cx="7.548" cy="7.548" r="7.548" transform="translate(2179.112 463.714) rotate(-13.282)" fill="#fff"/>
          <circle id="Ellipse_1759" data-name="Ellipse 1759" cx="5.811" cy="5.811" r="5.811" transform="translate(0 697.007) rotate(-13.283)" fill="#fff"/>
          <g id="Group_3339" data-name="Group 3339" transform="translate(2353.472 41.927)">
            <path id="Path_12157" data-name="Path 12157" d="M4817.021,760.46a5.142,5.142,0,1,1,5.143-5.142A5.148,5.148,0,0,1,4817.021,760.46Zm0-8.126a2.984,2.984,0,1,0,2.983,2.984A2.987,2.987,0,0,0,4817.021,752.334Z" transform="translate(-4811.879 -750.175)" fill="#fff"/>
          </g>
          <circle id="Ellipse_1760" data-name="Ellipse 1760" cx="4.548" cy="4.548" r="4.548" transform="matrix(0.973, -0.23, 0.23, 0.973, 1124.59, 1087.529)" fill="#fff"/>
        </g>
      </g>
      <g id="Group_5144" data-name="Group 5144">
        <path id="Path_12178" data-name="Path 12178" d="M1950.971,764.467l25.044,5.366a22.688,22.688,0,0,1,17.432,17.431l5.365,25.044,5.366-25.044a22.69,22.69,0,0,1,17.431-17.431l25.044-5.366-25.044-5.366a22.687,22.687,0,0,1-17.431-17.431l-5.366-25.043-5.366,25.043a22.685,22.685,0,0,1-17.431,17.431Z" transform="translate(-1672.971 4575.899)" fill="#ffb700"/>
        <path id="Path_12180" data-name="Path 12180" d="M2546.091,2412.279l25.044,5.366a22.686,22.686,0,0,1,17.431,17.431l5.366,25.044,5.366-25.044a22.688,22.688,0,0,1,17.431-17.431l25.044-5.366-25.044-5.366a22.687,22.687,0,0,1-17.431-17.431l-5.366-25.043-5.366,25.043a22.684,22.684,0,0,1-17.431,17.431Z" transform="translate(-2078.62 4253.807)" fill="#9bd900"/>
        <path id="Path_12181" data-name="Path 12181" d="M5247.061,753.175l29.863,6.4a27.053,27.053,0,0,1,20.785,20.786l6.4,29.862,6.4-29.862a27.053,27.053,0,0,1,20.785-20.786l29.863-6.4-29.863-6.4a27.053,27.053,0,0,1-20.785-20.785l-6.4-29.863-6.4,29.862a27.053,27.053,0,0,1-20.785,20.786Z" transform="translate(-3872.873 5703.257)" fill="#0bf"/>
      </g>
    </g>
    <g id="Group_5131" data-name="Group 5131" transform="translate(-2034.55 3614.573)">
      <path id="Path_12158" data-name="Path 12158" d="M2174.55,1896.462a84.6,84.6,0,0,0,3.915,24.709,81.2,81.2,0,0,0,77.4,56.406c9.6,0,18.824-1.139,27.381-4.832a74.84,74.84,0,0,0,20.646-10.878,81.062,81.062,0,0,0,16.078-15.589c1.059-1.342,2.056-2.7,3.029-4.114a80.619,80.619,0,0,0,13.875-39.9c.136-1.921.209-3.851.209-5.808a81.46,81.46,0,0,0-2.13-18.8,88.456,88.456,0,0,0-5.885-16.669c-.025-.049-.049-.11-.074-.16-13.542-27-40.985-45.429-73.056-45.429-3.718,0-7.4-.221-10.982.825-.172.049-.357.1-.529.16a83.4,83.4,0,0,0-24.512,7.436c-.062.025-.123.062-.185.086-.012,0-.025-.135-.037-.135a81.134,81.134,0,0,0-41.674,50.021c-.049.148-.086.308-.135.456-.111.246-.234.517-.369.8a9.709,9.709,0,0,0-1.182,3.9A82.081,82.081,0,0,0,2174.55,1896.462Z" fill="#0bf"/>
      <path id="Path_12159" data-name="Path 12159" d="M2175.986,2042.767a80.032,80.032,0,0,0,3.373,16.079c36.971,13.961,74.053,26.851,104.759,51.757a80.783,80.783,0,0,0,20.646-10.969C2262.154,2069.4,2210.594,2051,2175.986,2042.767Z" transform="translate(-0.869 -137.675)" fill="#0095ff"/>
      <path id="Path_12160" data-name="Path 12160" d="M2179.637,1968.543c36.688,14.33,98.762,40.209,143.416,67.368,1.059-1.342,2.056-2.72,3.029-4.136-41.871-33.241-93.013-55.98-144.98-68.39l-.148-.037c-.124.431-.246.862-.357,1.292C2180.24,1965.933,2179.92,1967.226,2179.637,1968.543Z" transform="translate(-3.08 -89.588)" fill="#0095ff"/>
      <path id="Path_12161" data-name="Path 12161" d="M2494.221,1994.9c0,12.41,17.8,27.282,32.318,31.776a80.605,80.605,0,0,0,3.89-19.735,68.252,68.252,0,0,0-19.243-14.8c-3.546-1.834-8.606-3.89-12.238-3.89C2494.725,1988.25,2494.221,1990.749,2494.221,1994.9Z" transform="translate(-193.552 -104.666)" fill="#0095ff"/>
      <path id="Path_12162" data-name="Path 12162" d="M2288.981,1824.788c31.234,12.484,78.745,31.469,115.186,53.875a.266.266,0,0,1,.074.049,88.494,88.494,0,0,0-5.885-16.669,2.309,2.309,0,0,0-.2-.16c-25.054-19.711-53.912-35.7-84.444-44.765A79.811,79.811,0,0,0,2288.981,1824.788Z" transform="translate(-69.285 -1.05)" fill="#0095ff"/>
      <g id="Group_3342" data-name="Group 3342" transform="translate(2174.861 1815.411)" opacity="0.3" style="mix-blend-mode: multiply;isolation: isolate">
        <path id="Path_12163" data-name="Path 12163" d="M2335.47,1914.363a7.409,7.409,0,0,1-.3,2.111,9.665,9.665,0,0,1-.361,1.007l-.216.489a.531.531,0,0,0-.051.26c-.017.075.084.205-.011.233l-.031.531c-.008.036,0,.106-.032.112a.8.8,0,0,1-.033-.128c-.021-.163-.072.043-.09.1l-.325,1.012-.65,2.025c-.412,1.357-.975,2.662-1.455,4s-1.1,2.611-1.649,3.919-1.231,2.554-1.839,3.834-1.355,2.49-2.025,3.739-1.478,2.42-2.208,3.634-1.6,2.342-2.388,3.518-1.716,2.257-2.567,3.391-1.833,2.163-2.741,3.251-1.947,2.06-2.914,3.1-2.06,1.948-3.084,2.929-2.169,1.825-3.249,2.744c-1.1.9-2.275,1.691-3.408,2.542-1.158.817-2.377,1.545-3.562,2.323-1.217.727-2.473,1.387-3.707,2.084,0,0-3.84,1.828-3.89,1.846-.118.261-.4.336-.642.458l-.736.35-1.476.689q-1.479.68-2.976,1.323c-2,.852-4.023,1.639-6.087,2.313q-1.55.5-3.124.918t-3.179.706q-1.6.285-3.224.452l-1.624.118-1.628.04a3.111,3.111,0,0,1-.08.4c-.036.116-.085.293-.234.287-.136-.028-.21-.165-.337-.215a3.943,3.943,0,0,0-.39.1c-.518.146-1.043.263-1.571.372a29.794,29.794,0,0,1-3.2.453,61.831,61.831,0,0,1-6.451.194c-2.149-.107-4.307-.088-6.448-.3l-3.21-.346-1.6-.174-1.59-.28c-2.115-.4-4.25-.7-6.322-1.3l-3.128-.8c-1.036-.29-2.046-.665-3.071-.993-1.017-.351-2.052-.653-3.054-1.043l-2.985-1.229c-2.018-.758-3.906-1.8-5.844-2.739-.979-.451-1.9-1.012-2.827-1.556l-2.787-1.629c-1.8-1.18-3.586-2.383-5.333-3.637l-2.54-1.993a31.421,31.421,0,0,1-2.481-2.063c-1.592-1.449-3.24-2.839-4.694-4.429l-2.248-2.318-2.093-2.458c-1.438-1.605-2.689-3.358-3.963-5.093l-.958-1.3-.869-1.36-1.735-2.723c-1.126-1.833-2.088-3.763-3.139-5.641.036-.086.159-.086.225-.148,0-.083-.065-.169-.094-.253l-.23-.509-.449-1.022q-.441-1.026-.85-2.065-.818-2.078-1.518-4.2c-.936-2.827-1.728-5.7-2.427-8.648a80.274,80.274,0,0,1-2.033-14.7c-.057-1.237-.092-2.475-.094-3.714s.08-2.475.117-3.713a65.564,65.564,0,0,1,.586-7.4,80.888,80.888,0,0,1,9.144-28.1c1.186-2.174,2.467-4.3,3.849-6.354.685-1.032,1.446-2.013,2.162-3.023s1.455-2.008,2.244-2.964a83.269,83.269,0,0,1,10.327-10.674,94.8,94.8,0,0,1,12.383-8.672,60.146,60.146,0,0,1,13.808-6.3v0a41.927,41.927,0,0,1,8.865-2.995,65.56,65.56,0,0,1,9.38-1.329,94.3,94.3,0,0,1,9.64-.226l4.82.2c1.616.1,3.2.372,4.81.549l2.4.3,2.375.5c1.579.359,3.186.6,4.741,1.055l4.662,1.374c1.553.459,3.036,1.128,4.558,1.682l2.266.877,2.193,1.049,2.193,1.049a20.931,20.931,0,0,1,2.156,1.117l4.207,2.436c1.376.853,2.682,1.819,4.026,2.723.658.472,1.357.889,1.98,1.407l1.89,1.528c1.244,1.038,2.568,1.984,3.707,3.14l3.534,3.338,3.268,3.6c1.134,1.162,2.053,2.5,3.067,3.768l1.491,1.92c.5.634.908,1.341,1.367,2.008.878,1.361,1.818,2.686,2.645,4.077l2.354,4.253a20.721,20.721,0,0,1,1.078,2.177l1.008,2.212,1.008,2.212.836,2.282c.538,1.528,1.141,3.035,1.626,4.58s.9,3.113,1.282,4.688a80.567,80.567,0,0,1,1.688,9.569,77.387,77.387,0,0,1,.48,9.7A82,82,0,0,1,2335.47,1914.363Zm1.547-27.192a77.9,77.9,0,0,0-1.891-9.511c-.437-1.556-.917-3.1-1.452-4.618-.533-1.481-1.186-3-1.8-4.493l-.955-2.237-1.111-2.131A45.46,45.46,0,0,0,2327.5,1860l-2.624-4.009c-.913-1.3-1.934-2.536-2.888-3.8-.5-.618-.938-1.275-1.479-1.858l-1.594-1.762a45.607,45.607,0,0,0-3.341-3.352l-3.5-3.144-3.719-2.849a35.941,35.941,0,0,0-3.889-2.564l-1.969-1.215c-.647-.412-1.367-.722-2.043-1.086-1.379-.687-2.709-1.432-4.1-2.061-1.41-.6-2.823-1.162-4.231-1.71a18.589,18.589,0,0,0-2.148-.73l-2.163-.656-2.142-.653-2.194-.479c-1.463-.294-2.88-.688-4.359-.848l-4.381-.5c-1.445-.167-2.928-.118-4.364-.191l-2.154-.069-2.163.117c-1.437.1-2.848.1-4.261.273l-4.2.588a79.014,79.014,0,0,0-8.558,1.709,46.928,46.928,0,0,0-7.443,2.544,30.251,30.251,0,0,0-5.875,3.42l-.562.419-5.986.933,5.184-.836c-1.491.929-3,1.883-4.494,2.985s-2.98,2.306-4.455,3.6c-1.463,1.323-2.97,2.639-4.446,4.081l-.555.542-.191.186c.057-.042-.154.116.125-.089l-.084.081-.338.323c-.21.206-.484.454-.642.624l-.375.438c-.548.622-1.218,1.364-1.8,2.067-1.176,1.445-2.359,2.875-3.459,4.378s-2.139,3.053-3.111,4.638l-.358.6-.178.3-.056.093c-.314.416.416-.546.305-.387l-.117.2-.941,1.614-.979,1.586-.49.793-.107.174c.254-.359-.589.84.564-.8l-.115.2-.23.4-.23.4-.115.2-.058.123-.231.488-.569,1.173c-.38.807-.745,1.619-1.087,2.439-.7,1.632-1.255,3.321-1.859,4.968-.565,1.64-1.081,3.4-1.478,4.982l-.241.865-.114.5-.281,1.231c-.189.845-.347,1.7-.5,2.549-.305,1.7-.567,3.413-.733,5.135l-.211,2.588-.036.649a.726.726,0,0,0,.025.2c.09-1.7.1-.454.1-.8l-.055.116-.065.464-.049,1.857-.045,1.857-.01.929.019.464.063.058c-.013.934.143-1.239.143-.976l-.126.116-.125.233.053,2.73c.056,1.768.216,3.5.405,5.21s.435,3.385.762,5.028c0,0,.656,5.613.667,5.664l-.658-5.624c.244,1.174.465,2.324.723,3.434s.522,2.189.808,3.229.554,2.058.86,3.034l.467,1.44.244.7.125.346.054.152,1.925,6.442.248,2.866a23.628,23.628,0,0,1-4.365,14.3c-.509.708-.763,1.021-1.188,1.532-.389.461-.8.91-1.22,1.34s-.863.844-1.313,1.238l-.723.606c-.4.325-.821.639-1.246.937l-.644.438-.344.223-.654.4-.611.359-.361.218-.625.367-.588.378-.091.244a1.175,1.175,0,0,1,.006-.208c.188-.1.55-.429,1.824-1.139.512-.291,1.015-.6,1.5-.932l.622-.433.759-.571q.747-.587,1.444-1.231a23.627,23.627,0,0,0,3.046-3.423,23.042,23.042,0,0,0,1.346-2.07,23.475,23.475,0,0,0,3.137-10.718c.05-2.193.008-.606.008-1.085l-2.489-10.579c.651,1.392,1.187,2.87,1.871,4.269l1.057,2.09.523,1.057.607,1c.8,1.349,1.587,2.725,2.472,4.042l1.289,2.025,1.435,1.925c.911,1.343,2.011,2.51,3.052,3.764.509.642,1.051,1.25,1.616,1.838l1.671,1.82c1.168,1.154,2.382,2.283,3.612,3.418l1.936,1.585a22.379,22.379,0,0,0,1.963,1.6c1.367.977,2.7,2.1,4.169,2.95l2.18,1.4c.739.447,1.51.824,2.264,1.271.762.418,1.517.89,2.3,1.283l2.39,1.124a52.857,52.857,0,0,0,4.948,2.049l1.269.487,1.3.387,2.618.794c1.76.516,3.568.822,5.389,1.263,2,.372,3.822.666,5.329.869.759.1,1.459.183,2.083.226l.894.063.107.035s.053.064.081.064c-2.513,0,3.437-.583,2.834-.489l.025-.057a11.039,11.039,0,0,1,3.431.508,11.16,11.16,0,0,1,2.379,1.088q.318.2.622.415c.209.149.429.32.445.337,0,0,.367.31.363.318l-.327-.254-.3-.217-.435-.29-.544-.32c-.295-.163-.6-.313-.911-.447a10.413,10.413,0,0,0-1.038-.382,10.3,10.3,0,0,0-1.715-.381,10.531,10.531,0,0,0-1.838-.084,10.439,10.439,0,0,0-6.953,3.02c-.214.211-.421.433-.618.666a10.174,10.174,0,0,0-1.012,1.432,9.454,9.454,0,0,0-.705,1.48c-.092.245-.172.489-.241.742l-.069.266-.038.156-.057.3a1.916,1.916,0,0,0-.024.232s10.419-9.265,10.426-9.265c-.113,0,.262.2-.252.208,0,0,.013.2.089.215l.1.013.2.027.409.054.817.107.919.18c.8.085,1.622.143,2.472.166s1.73-.01,2.628-.063,1.819-.156,2.754-.279a47.783,47.783,0,0,0,5.774-1.144q1.474-.385,2.976-.823l1.509-.452.76-.235.47-.145c-.139.072.319-.164-.3.158-.03.017.076-.042-.066.037a6.578,6.578,0,0,0-1.24.907l-.279.277-.168.184-.251.3-.173.236-.1.144-.129.209c-.1.185-.081.154.069-.09l.167-.253.121-.172.193-.254.282-.334.18-.191.246-.24a6.58,6.58,0,0,1,.712-.574,6.669,6.669,0,0,1,1.361-.735l.064-.026s2.371-.441,2.42-.452l-2.608.539,3.7-1.1c1.211-.451,2.442-.893,3.644-1.415,1.176-.568,2.393-1.09,3.566-1.706,1.149-.651,2.352-1.246,3.488-1.955,1.119-.729,2.3-1.4,3.4-2.189,1.068-.82,2.2-1.587,3.225-2.475s2.121-1.721,3.1-2.677,2.039-1.847,2.967-2.863l1.431-1.5a16.185,16.185,0,0,0,1.375-1.554c.854-1.085,1.795-2.118,2.587-3.257s1.69-2.217,2.429-3.4,1.582-2.309,2.265-3.53,1.482-2.389,2.069-3.662c.605-1.264,1.3-2.5,1.836-3.794s1.185-2.561,1.635-3.9l.722-1.989.362-1,.051-.14c.039-.074-.08.145.118-.207.549-.338.844.27.709.1a.563.563,0,0,1,.059.175s.011.063.013.077c-.018-.027.036.042-.064-.125.248,0-.548-.312-.691.032a.138.138,0,0,0-.035.092l.049-.5.039-.2s.364.225.372.225h-.066c-.007,0,.069-.241-.115-.161-.233.193-.163.182-.172.217-.008-.046-.008-.166-.01-.24a1.031,1.031,0,0,1,.12-.464l.281-.483a10.433,10.433,0,0,0,.49-.963,6.6,6.6,0,0,0,.559-2.055l-.2-.024c.687-2.855,1.081-5.735,1.495-8.646a70.724,70.724,0,0,0,.64-8.794A75.686,75.686,0,0,0,2337.017,1887.171Z" transform="translate(-2175.338 -1815.454)" fill="#0bf"/>
      </g>
    </g>
    <g id="Group_5132" data-name="Group 5132" transform="translate(-880.624 3851.393)">
      <path id="Path_12172" data-name="Path 12172" d="M2522.624,1591.519a68.193,68.193,0,0,0,68.261,68.294,66.5,66.5,0,0,0,18.16-2.475,68.227,68.227,0,0,0,50.067-64.281c.033-.5.033-1.037.033-1.538a68.26,68.26,0,0,0-136.521,0Z" fill="#f80"/>
      <path id="Path_12173" data-name="Path 12173" d="M2608.644,1651.753c0,1.17-.1,2.775-.1,2.943a6.54,6.54,0,0,0,.5,2.642,68.227,68.227,0,0,0,50.067-64.281,19.9,19.9,0,0,0-4.515-.5c-20.1,0-14.047,24.014-26.99,24.014-1.5,0-17.358-5.886-25.786-5.886-9.833,0-16.889,7.156-16.889,10.5C2584.932,1621.284,2608.644,1630.816,2608.644,1651.753Z" fill="#6183ff"/>
      <path id="Path_12174" data-name="Path 12174" d="M2522.624,1591.519a68.43,68.43,0,0,0,2.308,17.692c4.281,2.776,8.6,4.515,12.308,4.515a20.434,20.434,0,0,0,11.739-4.08.379.379,0,0,1,.267-.1c.97,0,3.111,2.341,5.151,2.341,2.709,0,3.311-2.775,3.311-5.484,0-2.91-.87-5.853-.87-8.562,0-10,13.044-3.546,13.044-11.4,0-2.207-1.806-4.448-2.81-6.221-3.244-5.819-8.261-9.866-12.207-15.384a5.542,5.542,0,0,1-.97-3.445c0-.769.067-1.572.067-2.307,0-6.255-11.07-7.759-18.093-7.96A67.817,67.817,0,0,0,2522.624,1591.519Z" fill="#6183ff"/>
      <path id="Path_12175" data-name="Path 12175" d="M2615.9,1569.98c0,3.88,20.234,6.288,23.579,6.622h.4c5.619,0,10.033-6.086,13.545-12.507A68.48,68.48,0,0,0,2631.955,1537C2622.256,1542.857,2615.9,1567.037,2615.9,1569.98Z" fill="#6183ff"/>
      <path id="Path_12176" data-name="Path 12176" d="M2593.774,1549.445c.9,1.806.959,5.1.959,8.442s-1.444,11.385-6.843,11.925a4.66,4.66,0,0,1-.466.022c-6.158,0-19.238-9.666-19.238-15.118,0-6.185,6.423-11.33,12.387-11.33a26.014,26.014,0,0,1,5.055.628C2589.206,1544.73,2592.142,1546.182,2593.774,1549.445Z" fill="#6183ff"/>
      <g id="Group_3346" data-name="Group 3346" opacity="0.3" style="mix-blend-mode: multiply;isolation: isolate">
        <path id="Path_12177" data-name="Path 12177" d="M2640.016,1544.167c.571.577,1.4,1.453,2.425,2.642a67.713,67.713,0,0,1,15.269,30.805,69.615,69.615,0,0,1,.125,27.254,67.577,67.577,0,0,1-13.527,29.169,68.245,68.245,0,0,1-101.685,5.772,73.091,73.091,0,0,1-11.89-16.091,67.448,67.448,0,0,1-6.751-18.666,69.224,69.224,0,0,1,3.241-38.09l1.817-4.326,2.135-4.132a60.863,60.863,0,0,1,4.92-7.722,68.314,68.314,0,0,1,5.816-6.82c1.019-1.071,2.15-2.013,3.209-3.016l1.606-1.476c.544-.478,1.137-.9,1.7-1.344a68.126,68.126,0,0,1,29.154-13.54,69.457,69.457,0,0,1,27.251.135,68.694,68.694,0,0,1,19.715,7.431,66.174,66.174,0,0,1,11.1,7.843c2.363,2.07,3.522,3.285,3.522,3.285Zm-4.391-4.153a63.713,63.713,0,0,0-30.929-14.641c-2-.328-4.076-.538-6.2-.781l-3.256-.131a27.506,27.506,0,0,0-3.339-.023l-3.418.136c-1.151.046-2.309.246-3.478.4a66.293,66.293,0,0,0-7.079,1.373c-1.194.265-2.361.7-3.557,1.049a31.218,31.218,0,0,0-3.561,1.23l-3.552,1.423-3.478,1.737a61.882,61.882,0,0,0-13.046,9.238c-.5.46-1.035.888-1.519,1.375l-1.421,1.5c-.942,1.024-1.919,1.946-2.842,3.055a63.891,63.891,0,0,0-4.973,6.719q-1.139,1.773-2.154,3.63-.51.925-.981,1.874l-.466.952-.115.238c.018-.028-.122.232.025-.033l-.058.133L2536,1561q-.932,2.124-1.871,4.268l-1.329,3.891a62.929,62.929,0,0,0-2.867,17,64.541,64.541,0,0,0,1.657,17.366q.594,2.109,1.191,4.226.756,2.058,1.511,4.123c.513,1.369,1.169,2.683,1.736,4.03.15.334.285.674.446,1l.528.964,1.047,1.931a38.781,38.781,0,0,0,2.3,3.741c.4.611.759,1.254,1.191,1.846l1.331,1.753,1.321,1.76c.455.575.975,1.1,1.457,1.654l1.466,1.646.366.412.182.207.281.294.875.9a64.742,64.742,0,0,0,6.437,5.6,67.84,67.84,0,0,0,7.356,4.805,58.247,58.247,0,0,0,8.008,3.754l1.976.745,2.076.706c1.4.436,2.8.848,4.227,1.185a65.886,65.886,0,0,0,34.385-1.215,64.459,64.459,0,0,0,37.332-30.93,65.247,65.247,0,0,0,5.414-14.15,64.28,64.28,0,0,0,1-26.764,62.033,62.033,0,0,0-2.866-10.97,67.889,67.889,0,0,0-4-8.807,63.873,63.873,0,0,0-7.748-11.142c-1.021-1.194-1.841-2.075-2.408-2.656l-.847-.892S2638,1542.068,2635.625,1540.014Z" fill="#f80"/>
      </g>
    </g>
    <g id="Group_5143" data-name="Group 5143" transform="translate(-3706.241 6091.51)">
      <path id="Path_12164" data-name="Path 12164" d="M5089.754,1147.257a65.043,65.043,0,0,0,1.175,12.332,64.623,64.623,0,0,0,108.413,34.1,63.417,63.417,0,0,0,4.642-5.006,64.806,64.806,0,0,0,7.63-11.375q1.217-2.31,2.246-4.729a61.765,61.765,0,0,0,2.6-7.28q.438-1.5.807-3.025a64.384,64.384,0,0,0,1.508-9.353q.245-2.8.246-5.667a65.3,65.3,0,0,0-.574-8.647,64.686,64.686,0,0,0-76.788-54.726,64.344,64.344,0,0,0-25.68,11.394q-2.064,1.523-4,3.211a64.4,64.4,0,0,0-22.208,47.523Q5089.754,1146.636,5089.754,1147.257Z" transform="translate(-0.001)" fill="#ffac63"/>
      <path id="Path_12165" data-name="Path 12165" d="M5089.754,1247.373a65.044,65.044,0,0,0,1.175,12.332,64.394,64.394,0,0,0,3.28,11.293c24.8,7.3,40.466,27.224,49.874,28.887a198.854,198.854,0,0,1,31.661,8.5,63.8,63.8,0,0,0,12.674-6.059,64.817,64.817,0,0,0,10.924-8.519,63.417,63.417,0,0,0,4.642-5.006c-9.831-3.622-20.118-6.829-25.9-15.73-11.334-17.411-26.536-24.737-46.434-24.873-12.769-.091-27.834-10.141-39.606-17.926a64.56,64.56,0,0,0-2.273,15.858Q5089.754,1246.75,5089.754,1247.373Z" transform="translate(-0.001 -100.115)" fill="#ed8872"/>
      <path id="Path_12166" data-name="Path 12166" d="M5089.754,1280.776a65.044,65.044,0,0,0,1.175,12.332c10.637,4.25,23.074,9.4,32.654,17.562,11.385,9.694,22.341,17.457,37.26,17.457,3.84,0,5.18-.424,7.17-.424,5.571,0,12.669,3.672,20.4,8.027a64.817,64.817,0,0,0,10.924-8.519c-40.372-16.646-33.675-33.141-52.243-33.141-3.239,0-7.794,1.449-15.225,1.449-16.951,0-29.014-10.214-42.107-15.985Q5089.754,1280.154,5089.754,1280.776Z" transform="translate(-0.001 -133.518)" fill="#ebc291"/>
      <path id="Path_12167" data-name="Path 12167" d="M5249.293,1349.333c7.632,1.031,13.248,7.8,13.248,12.693,0,4.426-4.128,7.44-8.435,7.44-6.238,0-18.57-8.036-18.57-14.643,0-4.666,3.189-5.974,7.941-5.974A44.376,44.376,0,0,1,5249.293,1349.333Z" transform="translate(-98.854 -180.522)" fill="#ed7637"/>
      <path id="Path_12168" data-name="Path 12168" d="M5219.92,1089.389c26.682,19.334,64.866,37.342,86.787,51.87a64.3,64.3,0,0,0-3.621-14.3c-17.1-11.475-46.435-29.866-73.167-40.421A63.423,63.423,0,0,0,5219.92,1089.389Z" transform="translate(-88.265 -2.648)" fill="#ed8872"/>
      <path id="Path_12169" data-name="Path 12169" d="M5122.359,1138.591a48.543,48.543,0,0,0,7.9,6.564c28.335,16.432,44.972,12.728,94.805,53.068a82.619,82.619,0,0,0,8.66,5.735q1.217-2.31,2.246-4.729a61.855,61.855,0,0,0,2.6-7.28q.437-1.5.806-3.025c-51.368-34.267-84.082-57.1-101.288-67q-2.064,1.523-4,3.211a65.032,65.032,0,0,0-11.726,13.453Z" transform="translate(-22.11 -26.648)" fill="#ed7637"/>
      <path id="Path_12170" data-name="Path 12170" d="M5158.785,1116.521c21.808,18.191,77.171,51.765,104.481,66.812q.437-1.5.806-3.025a64.38,64.38,0,0,0,1.508-9.352c-28.992-18.81-71.1-49.733-96.546-61.737a63.5,63.5,0,0,0-6.25,4.091Q5160.721,1114.833,5158.785,1116.521Z" transform="translate(-46.81 -18.03)" fill="#ebc291"/>
      <g id="Group_3344" data-name="Group 3344" transform="translate(5089.753 1082.631)" opacity="0.3" style="mix-blend-mode: multiply;isolation: isolate">
        <path id="Path_12171" data-name="Path 12171" d="M5218.972,1149.6c-.031.768-.079,1.908-.209,3.389a64.52,64.52,0,0,1-18.823,40.118,65.1,65.1,0,0,1-10.626,8.541,64.308,64.308,0,0,1-28.771,9.956,62.271,62.271,0,0,1-8.279.243l-1.05-.04c-.351-.01-.7-.026-1.052-.058l-2.111-.164-2.115-.247c-.707-.082-1.41-.212-2.118-.316a63.954,63.954,0,0,1-16.693-5.15,64.686,64.686,0,0,1-34.256-78.468,64.078,64.078,0,0,1,8.324-16.851,64.48,64.48,0,0,1,53.412-27.915,64.836,64.836,0,0,1,16.174,2.1,63.586,63.586,0,0,1,7.429,2.438c.592.245,1.192.466,1.771.729l1.734.775c1.133.553,2.263,1.087,3.344,1.692,1.1.572,2.144,1.215,3.189,1.831,1.022.656,2.044,1.291,3.011,1.985.989.662,1.915,1.392,2.849,2.088.9.736,1.813,1.442,2.66,2.2.871.735,1.681,1.516,2.494,2.276.4.382.784.783,1.173,1.171s.773.775,1.135,1.18l1.1,1.188,1.039,1.21.513.6c.168.2.327.409.49.612l.965,1.215c1.233,1.642,2.4,3.266,3.413,4.911a64.841,64.841,0,0,1,4.992,9.6,64.275,64.275,0,0,1,4.854,21.435c.075,1.486.087,2.626.086,3.395s-.01,1.165-.01,1.165S5218.994,1148.832,5218.972,1149.6Zm.038-1.459c0-.2.008-.486,0-.87,0-.768-.017-1.909-.1-3.394s-.222-3.315-.538-5.448c-.154-1.067-.348-2.208-.593-3.419-.12-.605-.258-1.227-.4-1.866s-.322-1.291-.506-1.959c-.368-1.336-.8-2.731-1.3-4.175-.253-.72-.526-1.46-.813-2.2l-.941-2.271c-.35-.755-.693-1.529-1.067-2.309l-.6-1.165c-.2-.391-.4-.79-.629-1.177-.45-.778-.875-1.586-1.377-2.369l-.737-1.2c-.253-.4-.524-.79-.789-1.19-1.057-1.6-2.245-3.184-3.524-4.762l-1-1.164c-.169-.194-.334-.393-.507-.586l-.53-.573-1.071-1.153-1.125-1.13a57,57,0,0,0-4.9-4.357c-.865-.708-1.792-1.358-2.709-2.035-.947-.637-1.884-1.307-2.881-1.907-.976-.632-2-1.2-3.026-1.793-1.05-.548-2.1-1.114-3.2-1.61-1.08-.529-2.206-.984-3.329-1.459l-1.716-.656c-.573-.223-1.165-.4-1.749-.608-.293-.1-.585-.2-.881-.3l-.9-.26c-.6-.169-1.194-.362-1.807-.5l-1.831-.454-1.859-.389a64.818,64.818,0,0,0-7.63-1l-1.947-.1c-.651-.023-1.306-.021-1.96-.033s-1.312.014-1.969.027l-.987.025-1,.053a61.267,61.267,0,0,0-7.9.994q-1.972.385-3.927.9t-3.878,1.171l-.959.333-.954.352-.949.37-.237.093-.228.093-.513.207c-.33.137-.6.257-.915.392s-.625.269-.934.411c-.623.277-1.238.572-1.852.871q-1.837.905-3.616,1.943c-.591.349-1.18.7-1.759,1.07-.292.181-.579.371-.867.558l-.84.559c-.675.447-1.137.776-1.72,1.195q-.839.606-1.657,1.242-1.638,1.271-3.185,2.661-.774.693-1.523,1.416c-.5.477-1,.965-1.486,1.457-.969.986-1.913,2.014-2.809,3.069-.446.524-.9,1.073-1.308,1.6-.523.653-.856,1.1-1.292,1.688-.82,1.129-1.634,2.262-2.388,3.437s-1.474,2.371-2.145,3.6l-.495.923-.485.945c-.3.6-.612,1.248-.9,1.877s-.578,1.264-.845,1.9l-.227.532-.188.459-.385.972q-.75,1.95-1.348,3.948l-.147.5c.006-.018-.064.216,0-.008l-.038.143-.077.286-.306,1.146-.307,1.146-.077.286c.108-.4.011-.027.026-.078l-.034.145-.067.288-.053.239-.222,1.007q-.11.513-.209,1.028-.2,1.031-.36,2.07c-.214,1.386-.378,2.779-.507,4.183s-.194,2.8-.216,4.2-.006,2.81.067,4.212q.053,1.051.146,2.1l.1,1.047.052.5.067.59.128,1c.05.347.1.694.153,1.039.1.692.231,1.381.361,2.069.276,1.372.564,2.742.923,4.095.18.676.366,1.351.57,2.02.1.336.208.668.311,1l.165.5.082.249c-.081-.218.006.019,0,.007l.05.139.4,1.112.2.556c.066.184.136.382.2.519l.74,1.825a58.681,58.681,0,0,0,3.757,7.479,61.415,61.415,0,0,0,31.058,26.111,60.84,60.84,0,0,0,7.719,2.343c.653.139,1.3.3,1.958.423l1.965.358,1.971.281c.328.052.656.088.985.118l.986.1.966.1,1.017.071c.628.045,1.3.072,1.951.1q1.961.061,3.905,0a59.531,59.531,0,0,0,21.877-4.814c1.107-.472,2.185-.973,3.251-1.5s2.086-1.088,3.092-1.667,1.98-1.182,2.944-1.811,1.883-1.263,2.783-1.923c.455-.333.886-.658,1.336-1.006s.859-.681,1.282-1.031q1.263-1.046,2.442-2.133a59.771,59.771,0,0,0,8.1-9.072l.827-1.168c.262-.39.529-.771.782-1.16.51-.776,1-1.548,1.458-2.319.925-1.539,1.755-3.062,2.47-4.567a63.926,63.926,0,0,0,3.369-8.517,58.213,58.213,0,0,0,1.77-7.183c.394-2.119.6-3.943.739-5.424s.186-2.621.219-3.388.037-1.164.037-1.164S5219.007,1148.336,5219.01,1148.141Z" transform="translate(-5089.753 -1082.637)" fill="#ffac63"/>
      </g>
    </g>
  </g>
</svg>
