<svg xmlns="http://www.w3.org/2000/svg" width="97.834" height="97.695" viewBox="0 0 97.834 97.695">
  <g id="Group_1796" data-name="Group 1796" transform="translate(-2646.454 -963.396)">
    <path id="Path_9301" data-name="Path 9301" d="M2646.454,1012.536a48.688,48.688,0,0,0,17.411,37.36,48.5,48.5,0,0,0,31.387,11.438c1.118,0,2.221-.036,3.318-.11a49.03,49.03,0,0,0,34.477-17.852c.007-.008-.132-.008-.125-.015a48.281,48.281,0,0,0,10.769-30.659v-.162A47.519,47.519,0,0,0,2729.3,977.67c-.052-.052-.053-.1-.1-.147a48.8,48.8,0,0,0-43.038-12.939,46.41,46.41,0,0,0-5.073,1.243c-1.118.338-2.213.714-3.294,1.133a48.841,48.841,0,0,0-21.324,15.962c-.633.831-1.25,1.684-1.831,2.56a48.711,48.711,0,0,0-5.568,11.269,47.508,47.508,0,0,0-1.751,6.635A48.773,48.773,0,0,0,2646.454,1012.536Z" transform="translate(0 -0.244)" fill="#0bf"/>
    <path id="Path_9302" data-name="Path 9302" d="M2784.612,964.584c3.773,3.987,11.975,6.068,17.014,6.068,4.869,0,7.451-2,10.019-3.509a49.059,49.059,0,0,0-27.032-2.559Z" transform="translate(-98.451 -0.244)" fill="#fff"/>
    <path id="Path_9303" data-name="Path 9303" d="M2811.129,1164.8c-1.308-.05-2.642-.087-3.982-.087-12.195,0-18.917,4.33-18.917,7.616,0,.858,8.416,23.325,13.882,23.325,3.336,0,3.669-2.224,3.669-5.512,0-.238,0-.477,0-.714,0-7.174,5.583-6.173,10.894-15.8.029-.052,3.184-6.188,3.184-6.413,0-2.093-4.445-2.4-6.531-2.4h-.9C2811.985,1164.821,2811.549,1164.818,2811.129,1164.8Z" transform="translate(-101.03 -143.46)" fill="#9bd900"/>
    <path id="Path_9304" data-name="Path 9304" d="M2898.275,1046.458c.206.206.177.655.412.817a5.463,5.463,0,0,0,3.17,1.082c2.405,0,15.153-8.842,19.515-15.925a48.706,48.706,0,0,0-12.534-20.582c-.052-.052-.1-.1-.155-.147-6.473,1.169-9.165,15.212-9.165,17.6,0,3.17.676,6.488.676,9.739A13.288,13.288,0,0,1,2898.275,1046.458Z" transform="translate(-179.447 -34.423)" fill="#9bd900"/>
    <path id="Path_9305" data-name="Path 9305" d="M2681.288,990.911c1.6,2.935,5.017,5.6,11.674,7.429,2.273.625,2.258,8.467,7.5,8.467,2.346,0,4.1-2.634,5.9-4.053,1.052-.838,8.187.258,8.187-8.091a10.529,10.529,0,0,0-1.133-4.782c-2.773-5.377-6.186-11.122-10.806-14.932A48.841,48.841,0,0,0,2681.288,990.911Z" transform="translate(-24.823 -8.233)" fill="#9bd900"/>
    <path id="Path_9306" data-name="Path 9306" d="M2646.454,1094.391a48.689,48.689,0,0,0,17.411,37.36c12.174-10.335,2.361-23.862.794-30.872-1.148-5.1,8.062-9.062,4.715-15.337-1.92-3.6-7.613-5.245-11.843-5.642-2.685-.25-5.583-.89-8.467-1.294A48.729,48.729,0,0,0,2646.454,1094.391Z" transform="translate(0 -82.098)" fill="#9bd900"/>
    <path id="Path_9307" data-name="Path 9307" d="M2737.185,1274.889a48.628,48.628,0,0,0,22.722,5.6c1.118,0,2.221-.037,3.317-.11-4.2-3.965-10.489-9.1-19.324-9.1C2741.746,1271.277,2739.113,1273.087,2737.185,1274.889Z" transform="translate(-64.655 -219.396)" fill="#fff"/>
    <path id="Path_9308" data-name="Path 9308" d="M2859.74,1020.44c-.393,2.553-2.2,5.621-4.591,5.621-1.9,0-9.3-4.171-9.3-9.1a5.448,5.448,0,0,1,5.435-5.349c1.76,0,8.687,1.116,8.687,6.292A16.875,16.875,0,0,1,2859.74,1020.44Z" transform="translate(-142.091 -34.362)" fill="#fff"/>
    <path id="Path_9309" data-name="Path 9309" d="M2783.485,1104.762v.1s37.191,22,37.25,22.251a21.713,21.713,0,0,0,10,13.638,48.6,48.6,0,0,0,10.967-30.762c-2.854,3.06-4.848,9.379-9.2,9.379-.361,0-13.829-8.952-24.134-8.952-1.184,0-2.692.1-2.906.1-7.393,0-11.791-10.129-17.234-10.129A4.7,4.7,0,0,0,2783.485,1104.762Z" transform="translate(-97.648 -97.618)" fill="#fff"/>
    <path id="Path_9310" data-name="Path 9310" d="M2646.454,1110.842a49.193,49.193,0,0,0,.964,9.724c.294-.022.618-.044,1-.044,5.186,0,9.584,3.347,14.145,3.347,1.53,0,1.964-.353,4.083-.353,7.4,0,13.262,5.443,20.2,5.443.735,0,2.479.1,2.479-1.986,0-7.1-10.857-12.064-18.382-14.116-8.488-2.317-15.792-7.43-23.626-11.166A48.731,48.731,0,0,0,2646.454,1110.842Z" transform="translate(0 -98.549)" fill="#fff"/>
    <path id="Path_9311" data-name="Path 9311" d="M2833.624,1210.947c0,.515,5.752,12.174,16.639,20.332a48.77,48.77,0,0,0,11.468-7.93c-11.027-5.392-7.371-1.566-22.163-13.314a3.464,3.464,0,0,0-2.214-.721C2836.449,1209.314,2833.624,1209.8,2833.624,1210.947Z" transform="translate(-133.377 -175.241)" fill="#fff"/>
    <g id="Group_1795" data-name="Group 1795" transform="translate(2646.727 963.396)" opacity="0.3" style="mix-blend-mode: multiply;isolation: isolate">
      <path id="Path_9312" data-name="Path 9312" d="M2737.879,986.836a48.633,48.633,0,0,1,4.816,10.6,44.546,44.546,0,0,1,1.412,5.658c.153.96.331,1.917.464,2.88l.166,1.449.119,1.454a49.41,49.41,0,0,1-.6,11.628,48.553,48.553,0,0,1-3.335,11.154c-.385.893-.842,1.753-1.26,2.631s-.88,1.735-1.373,2.573a49.076,49.076,0,0,1-21.191,19.427,48.9,48.9,0,0,1-16.808,4.547c-.969.076-1.94.14-2.913.157a6.4,6.4,0,0,0-.728.039l-.729,0c-.486,0-.973,0-1.459-.026a49.606,49.606,0,0,1-11.514-1.731,47.717,47.717,0,0,1-10.769-4.423,49.089,49.089,0,0,1-9.477-6.765,19.294,19.294,0,0,1-2.028-2.093c-.641-.731-1.244-1.495-1.851-2.255-1.189-1.538-2.341-3.109-3.381-4.753-.542-.808-1.02-1.656-1.524-2.488-.463-.855-.96-1.693-1.381-2.57a50.411,50.411,0,0,1-2.345-5.34,45.888,45.888,0,0,1-2.678-11.327c.039-.054.091-.1.13-.151a49.658,49.658,0,0,1,.776-14.912,48.436,48.436,0,0,1,5.239-13.979,48.988,48.988,0,0,1,4.169-6.219c.779-.977,1.582-1.935,2.451-2.832l1.281-1.368c.439-.444.889-.877,1.343-1.306a48.483,48.483,0,0,1,26.654-12.653,50.517,50.517,0,0,1,7.475-.442,49.479,49.479,0,0,1,7.454.7,48.913,48.913,0,0,1,33.393,22.733Zm-12.9-14q-1.514-1.1-3.113-2.077c-1.067-.647-2.168-1.234-3.283-1.79a47.683,47.683,0,0,0-6.918-2.783,48.289,48.289,0,0,0-7.258-1.608,44.9,44.9,0,0,0-7.385-.418q-1.845.053-3.678.23c-.616.066-1.206.144-1.831.236-.6.093-1.2.191-1.8.308a47.538,47.538,0,0,0-7.042,1.915l-.428.155-.411.158-.875.338c-.564.234-1.1.454-1.649.7q-1.652.741-3.237,1.6a46.313,46.313,0,0,0-11.215,8.765c-.205.211-.4.437-.6.653l-.3.328-.147.164-.037.041c-.068.07.072-.073.05-.05l-.019.023-.075.091-1.193,1.449-.6.725-.149.181-.037.045-.019.023c.037-.041-.11.124.079-.086l-.071.094-.281.376c-.4.518-.694.963-1.022,1.426a45.293,45.293,0,0,0-3.47,6.026,48.971,48.971,0,0,0-2.5,6.411c-.172.533-.331,1.117-.469,1.621-.177.645-.287,1.113-.415,1.676q-.376,1.664-.623,3.346a43.453,43.453,0,0,0-.463,6.741,44.006,44.006,0,0,0,.457,6.7l.025.177v.4a5.377,5.377,0,0,1-.635,2.485q-.075.139-.155.27l-.034.055-.033.052-.068.1-.143.2-.086.113-.144.177-.111.127-.073.082c-.008.009-.013.016.008-.006l.079-.089.13-.157.083-.108.139-.2.066-.1.032-.051.034-.055c.053-.087.105-.177.155-.27a5.355,5.355,0,0,0,.633-2.484l-.027-.583a50.583,50.583,0,0,0,1.051,5.015,43.044,43.044,0,0,0,1.663,4.866,49.314,49.314,0,0,0,4.874,9.184c.945,1.475,2,2.892,3.091,4.285.559.688,1.111,1.381,1.7,2.046l.436.5.109.126.054.063c-.105-.112.275.3-.23-.244l.032.032.215.208.513.5.417.4a44.907,44.907,0,0,0,8.278,6.009l.57.327.286.162c-.022-.012.1.054-.041-.02l.04.022.08.043.161.086.643.344c.209.112.446.242.606.317l1.074.529,1.166.53,1.183.495,1.2.457,1.21.437,1.225.4a47.633,47.633,0,0,0,10.19,1.927,50.611,50.611,0,0,0,10.479-.359,43.444,43.444,0,0,0,5.188-1.083c.858-.228,1.7-.5,2.551-.773l1.235-.437,1.3-.5a44.434,44.434,0,0,0,9.463-5.115,46.573,46.573,0,0,0,8.144-7.353c.611-.7,1.182-1.4,1.765-2.153.56-.724,1.112-1.481,1.631-2.246q.391-.576.763-1.163l.185-.295.023-.037c.037-.07-.024.054-.01.026l.045-.079.09-.159.362-.635.723-1.27.361-.635.089-.16.044-.08c-.072.161-.008.021-.019.046l.02-.041.161-.328a47.025,47.025,0,0,0,3.825-10.638,45.354,45.354,0,0,0,.931-5.635,49.445,49.445,0,0,0,.191-5.738l-.059-1.439-.106-1.438c-.087-.925-.249-1.918-.37-2.873a44.242,44.242,0,0,0-1.231-5.645,46.905,46.905,0,0,0-4.589-10.653,46.428,46.428,0,0,0-12.838-14.037Z" transform="translate(-2647.402 -963.396)" fill="#0bf"/>
    </g>
  </g>
</svg>
