<svg xmlns="http://www.w3.org/2000/svg" width="1210.716" height="427.791" viewBox="0 0 1210.716 427.791">
  <g id="Group_3177" data-name="Group 3177" transform="translate(-394 -246)">
    <g id="Group_3175" data-name="Group 3175" transform="translate(394 246)">
      <g id="Group_3174" data-name="Group 3174">
        <path id="Path_11864" data-name="Path 11864" d="M5229.2,4081.734q-196.077,48.528-392.167,97.047c-18.008,4.46-36.029,8.852-54.039,13.312a8.747,8.747,0,0,0-1.966,1.046h-3.446c4.151-14.582,10.426-28.312,15.7-42.44,8.531-22.837,17.246-45.6,25.881-68.391,3.115-2.79,6.911-1.893,10.451-1.893,77.45-.054,154.917.827,232.354-.343,52.394-.792,104.77-.414,157.151-.828C5222.574,4079.218,5226.511,4078.042,5229.2,4081.734Z" transform="translate(-4074.612 -3765.348)" fill="#fff"/>
        <path id="Path_11865" data-name="Path 11865" d="M4630.876,4037.635c4.37-7.606,9.938-10.806,16.047-9.216a13.926,13.926,0,0,1,10.187,12.793,13.766,13.766,0,0,1-9.113,13.571c-5.526,1.982-11.558-.144-15.046-5.345-.75-1.112-1.385-2.308-2.075-3.464Z" transform="translate(-4630.876 -3968.515)" fill="#fff"/>
        <path id="Path_11866" data-name="Path 11866" d="M5738.17,4304.069c-14.711-.1-29.429-.245-44.148-.265-33.267-.041-66.537-.354-99.8.054-86.788,1.067-173.58.15-260.364.5-1.907.006-3.814.183-5.721.284q-35.6,0-71.2,0-154.2,0-308.4.011-149.021.044-298.053.329c-5.917.014-7.143-1.629-7.129-7.537q.287-133.749.009-267.5c-.009-5.519,1.372-6.915,6.636-6.726,55.632,1.967,111.267,3.682,166.9,5.466q51.045,1.637,102.086,3.282,97.77,3.326,195.531,6.73c31.737,1.062,63.481,1.784,95.212,2.812,43.39,1.4,86.768,2.992,130.149,4.413q80.3,2.625,160.6,5.1,54.766,1.756,109.525,3.577,54.194,1.778,108.388,3.582c6.111.21,12.218.733,18.332.743,3.172,0,3.785,1.385,3.761,4.294q-.475,62.54-.815,125.079-.179,29.191-.363,58.369c-.092,17.476-.1,34.948-.226,52.424C5739.068,4300.755,5739.878,4302.694,5738.17,4304.069Z" transform="translate(-4583.579 -3987.683)" fill="#fcd009"/>
        <path id="Path_11867" data-name="Path 11867" d="M5017.173,4030.167q64.165,2.325,128.332,4.617c30.185,1.037,60.369,1.869,90.551,2.816q17.77.553,35.527,1.209c1.759.065,4.49-.632,4.274,2.363-.175,2.405-2.529,2.4-4.533,2.332-19.866-.663-39.736-1.268-59.6-1.933q-46.133-1.554-92.26-3.168-64.757-2.213-129.512-4.409-60.759-2.018-121.507-3.945-52.431-1.735-104.859-3.578c-2.009-.071-4.912.528-4.753-2.661.166-3.351,3.225-2.087,5.036-2.027q88.835,2.916,177.663,5.984,37.82,1.277,75.643,2.505Z" transform="translate(-4145.74 -3994.494)" fill="#fff"/>
        <path id="Path_11868" data-name="Path 11868" d="M5015.6,4087.89c-42.238,0-83.567.05-124.891-.015q-78.634-.111-157.268-.393c-4.4-.01-8.788-.255-13.184-.4-1.42-.05-2.711-.29-2.583-2.277.1-1.545,1.157-1.943,2.338-2.039,1.334-.109,2.679-.07,4.019-.064q145.506.3,291.022.613c6.362.01,6.953.812,4.758,6.721q-12.538,33.767-25.162,67.509c-.718,1.923-1.055,5.227-3.643,4.264-2.854-1.06-1.264-3.951-.462-6.109q11.419-30.7,22.849-61.414C5014.07,4092.469,5014.661,4090.621,5015.6,4087.89Z" transform="translate(-4301.801 -3750.849)" fill="#fff"/>
        <path id="Path_11869" data-name="Path 11869" d="M4963.555,4025.232q44.953,1.683,89.916,3.364,41.512,1.545,83.037,3.068c.761.031,1.528.095,2.292.109,1.6.035,3.378.27,3.161,2.362-.177,1.763-1.748,2.312-3.473,2.251-6.876-.248-13.757-.383-20.629-.642q-57.557-2.152-115.108-4.359-70.438-2.72-140.869-5.516c-23.858-.921-47.723-1.734-71.586-2.644-1.9-.072-4.949.88-4.745-2.478.193-3.182,3.133-2.127,5.064-2.052q58.414,2.2,116.822,4.464c18.7.708,37.412,1.335,56.119,2Z" transform="translate(-4044.445 -4006.553)" fill="#fff"/>
        <path id="Path_11870" data-name="Path 11870" d="M4707.836,4188.857c-20.657,0-41.314-.155-61.971.112-4.92.061-6.113-1.708-6.1-6.5.149-39.7.083-79.4.088-119.1a26.784,26.784,0,0,1,.118-3.567,2.386,2.386,0,0,1,2.727-2.366c1.6.109,1.692,1.336,1.74,2.531.057,1.39.024,2.78.024,4.169,0,38.112.082,76.223-.1,114.335-.019,4.957,1.034,6.168,6.071,5.878,12.205-.7,24.467-.383,36.707-.473q41.891-.306,83.779-.6c1.527-.011,3.06.01,4.585.1a2.013,2.013,0,0,1,2.154,2.186c.024,1.555-.823,2.033-2.139,2.1-2.292.115-4.579.388-6.868.393q-30.41.045-60.819.017Z" transform="translate(-4597.167 -3851.422)" fill="#fff"/>
        <path id="Path_11871" data-name="Path 11871" d="M4979.769,4120.567c0,18.255-.167,36.506.1,54.759.082,5.242-1.267,7.518-6.512,8.845-39.123,9.889-78.149,20.182-117.21,30.34-.926.244-1.9.3-2.8.618-1.706.587-3.83,1.209-4.409-.952-.681-2.521,1.744-3.185,3.556-3.671,7.944-2.124,15.914-4.155,23.874-6.21,31.3-8.074,62.574-16.214,93.907-24.131,4.019-1.016,5.372-2.651,5.372-7.093-.007-36.318.28-72.636.471-108.954.008-1.19-.005-2.381.038-3.573.06-1.654.963-2.664,2.5-2.514a2.245,2.245,0,0,1,2.037,2.419c0,.793.029,1.589.029,2.381v57.736Z" transform="translate(-3804.504 -3849.089)" fill="#fff"/>
        <path id="Path_11872" data-name="Path 11872" d="M4810.291,4087.472h98.128c.761,0,1.531-.02,2.294.01,1.71.07,3.863-.09,3.728,2.45-.122,2.331-2.152,2.358-3.925,2.348q-15.2-.1-30.4-.19c-1.721-.014-3.436-.183-5.156-.19q-81.77-.321-163.547-.622c-1.146,0-2.294.011-3.441-.014-1.258-.025-2.272-.437-2.323-1.969a2.134,2.134,0,0,1,1.945-2.46,42.7,42.7,0,0,1,4.575-.155q49.062-.007,98.124,0Z" transform="translate(-4347.381 -3734.972)" fill="#fff"/>
        <path id="Path_11873" data-name="Path 11873" d="M4761.138,4016.08a13.2,13.2,0,0,1,12.984,13.585c-.059,7.444-5.955,13.576-13.118,13.64-7.39.07-13.485-6.4-13.26-14.074C4747.965,4021.619,4753.681,4016.01,4761.138,4016.08Z" transform="translate(-4187.784 -4016.079)" fill="#fff"/>
        <path id="Path_11874" data-name="Path 11874" d="M4900.112,4059.343c0,2.167.014,4.339-.005,6.511-.053,6.452-.745,6.93-5.961,3.881-4.129-2.416-8.158-5.007-12.293-7.418-3.829-2.232-3.341-4.234.1-6.3,4.434-2.65,8.808-5.414,13.283-7.99,3.1-1.777,5.1-1.294,4.9,3.03C4900.008,4053.813,4900.112,4056.582,4900.112,4059.343Z" transform="translate(-3689.429 -3892.708)" fill="#fff"/>
        <path id="Path_11875" data-name="Path 11875" d="M4689.431,4095.92c.693-3.234-1.983-8.48,1.265-10.607,3.708-2.425,7.042,2.367,10.383,4.205,13.864,7.628,11.5,7.369.137,14.308-1.632,1-3.3,1.949-4.938,2.929-6.019,3.606-6.819,3.1-6.847-4.354C4689.426,4100.428,4689.431,4098.451,4689.431,4095.92Z" transform="translate(-4410.314 -3743.067)" fill="#fff"/>
        <path id="Path_11876" data-name="Path 11876" d="M4640.181,4046.858a8.932,8.932,0,0,1,.667-17.846,9.114,9.114,0,0,1,8.233,8.972A9.018,9.018,0,0,1,4640.181,4046.858Z" transform="translate(-4627.363 -3964.64)" fill="#fcfcfc"/>
        <path id="Path_11877" data-name="Path 11877" d="M4654.063,4028.31c48.595,1.534,96.175,3,143.757,4.559,34.389,1.126,68.779,2.386,103.168,3.548q71.94,2.421,143.872,4.782c11.658.387,23.312.751,34.97,1.219,1.937.082,5.081-.583,5.049,2.268-.026,2.944-3.031,2.923-5.41,2.839q-51.574-1.77-103.155-3.522-71.941-2.413-143.878-4.8-51.592-1.732-103.179-3.537-36.677-1.242-73.369-2.405c-.379-.015-.833.1-1.135-.065-1.951-1.091-6.066,1.007-5.823-2.885C4649.165,4026.563,4652.994,4028.9,4654.063,4028.31Z" transform="translate(-4562.459 -4020.544)" fill="#fefefd"/>
        <path id="Path_11878" data-name="Path 11878" d="M4765.865,4026.123c-.126,4.827-4.347,8.957-8.966,8.773-4.548-.18-8.45-4.713-8.183-9.515a8.606,8.606,0,0,1,8.608-8.38A8.826,8.826,0,0,1,4765.865,4026.123Z" transform="translate(-4184.118 -4012.401)" fill="#fcfcfc"/>
        <path id="Path_11879" data-name="Path 11879" d="M4880.629,4053.613c2.837-1.658,5.121-3,7.416-4.335.46-.263.958-.462,1.827-.876v10.766A30.075,30.075,0,0,1,4880.629,4053.613Z" transform="translate(-3683.913 -3887.365)" fill="#f6f6f6"/>
        <path id="Path_11880" data-name="Path 11880" d="M4699.667,4091.519l-9.486,5.728v-11.328Z" transform="translate(-4406.018 -3737.983)" fill="#fff"/>
      </g>
    </g>
  </g>
</svg>
