<svg xmlns="http://www.w3.org/2000/svg" width="290.295" height="62.807" viewBox="0 0 290.295 62.807">
  <g id="Group_4061" data-name="Group 4061" transform="translate(-774.307 -879.602)">
    <path id="Path_14117" data-name="Path 14117" d="M830.056,882.809h-4.281c-3.447,0-6.893-.009-10.34,0a14.452,14.452,0,0,0-9.51,3.429,13.834,13.834,0,0,0-4.207,5.97.636.636,0,0,1-.735.489c-2.434-.016-4.868-.008-7.3-.008a6.1,6.1,0,0,0-6.282,6.273q0,12.054,0,24.108a6.111,6.111,0,0,0,6.251,6.258h25.777a6.1,6.1,0,0,0,6.2-6.209q0-12.127,0-24.254a5.106,5.106,0,0,0-.17-1.453c-.1-.356-.062-.482.353-.471,1.11.029,2.221.01,3.332.01,3.006,0,6.011.006,9.017-.008.367,0,.529.075.515.477-.019.537.037,1.076.037,1.614q0,12.029,0,24.059a18.681,18.681,0,0,1-5.591,13.667,18.358,18.358,0,0,1-13.348,5.63c-8.837.033-17.674.009-26.512.009a19.18,19.18,0,0,1-17.821-12.625,19.8,19.8,0,0,1-1.137-6.669q.012-12.1,0-24.206a19.166,19.166,0,0,1,12.869-18.24,18.127,18.127,0,0,1,6.094-1.054q13.182-.006,26.365,0a18.824,18.824,0,0,1,9.94,2.829c.125.076.247.159.368.242A1,1,0,0,1,830.056,882.809Z" fill="#fed25e"/>
    <path id="Path_14118" data-name="Path 14118" d="M2234.692,960.318q0-13.866-.01-27.732c0-.44.1-.554.549-.552q6.027.029,12.055,0c.408,0,.5.1.5.5q-.018,22-.023,44c0,.5.117.605.607.6,8.755-.017,17.51-.008,26.265-.023.449,0,.55.115.548.553q-.029,5.267,0,10.534c0,.377-.1.447-.458.446q-19.8-.014-39.594,0c-.439,0-.445-.179-.444-.507Q2234.7,974.233,2234.692,960.318Z" transform="translate(-1317.221 -47.292)" fill="#fff"/>
    <path id="Path_14119" data-name="Path 14119" d="M1076.908,976.123h-.545c-3.708,0-7.416-.005-11.124.008-.369,0-.484-.075-.484-.469q.018-15.018.012-30.037a12.428,12.428,0,0,1,10.555-12.348,9.122,9.122,0,0,1,1.461-.125q20.974-.01,41.948-.005h.347a17.218,17.218,0,0,1-2.039,2.949,19.86,19.86,0,0,1-13.076,7.025,17.255,17.255,0,0,1-2.1.116q-9.875.012-19.749,0a7,7,0,0,0-7.227,6.946c-.075,7.039-.033,14.079-.011,21.118A6.973,6.973,0,0,0,1076.908,976.123Z" transform="translate(-261.977 -48.296)" fill="#fff"/>
    <path id="Path_14120" data-name="Path 14120" d="M1851.192,1283.46c.691.779,1.377,1.561,2.073,2.335q3.071,3.414,6.15,6.82c.119.132.261.244.392.365q2.947,3.269,5.894,6.537,1.077,1.194,2.162,2.388c-.145.155-.3.087-.432.087-3.8,0-7.606,0-11.409.01a.9.9,0,0,1-.75-.337c-.852-.964-1.731-1.9-2.6-2.85a19.162,19.162,0,0,0-1.716-1.984c-2.133-2.389-4.292-4.753-6.442-7.126a.325.325,0,0,0-.084-.047,1.687,1.687,0,0,1-.671-.555q-3.264-3.641-6.563-7.251c-.518-.564-1.008-1.154-1.529-1.716-.14-.15-.367-.3-.259-.533s.369-.168.573-.169q5.018-.007,10.036,0a3.542,3.542,0,0,0,.586,0,1.98,1.98,0,0,1,1.966.905c.73.9,1.527,1.739,2.311,2.591A.949.949,0,0,1,1851.192,1283.46Z" transform="translate(-957.057 -360.606)" fill="#fed25e"/>
    <path id="Path_14121" data-name="Path 14121" d="M1380.283,1403.085a15.416,15.416,0,0,0,3.693-3.571,14.693,14.693,0,0,0,2.632-6.138c.041-.23.08-.385.382-.367a19.806,19.806,0,0,1,16.648,10.009c.006.009-.005.029-.014.068Z" transform="translate(-546.575 -463.079)" fill="#fff"/>
    <path id="Path_14122" data-name="Path 14122" d="M3253.626,932.1c-.007.163-.02.325-.02.488q0,27.791,0,55.581c0,.163.013.325.02.488.032.011.045.026.04.045s-.013.033-.021.033c-.211-.185-.1-.43-.1-.644q-.009-26.958-.005-53.916c0-.539,0-1.077,0-1.616C3253.54,932.408,3253.477,932.233,3253.626,932.1Z" transform="translate(-2236.18 -47.356)" fill="#fff"/>
    <path id="Path_14123" data-name="Path 14123" d="M3387.4,1341.427c.007-.2.019-.391.019-.586q0-8.537-.01-17.074c0-.449.116-.56.559-.556,2.479.023,4.958.009,7.437.015.17,0,.359-.074.511.073-2.645,0-5.29.006-7.934-.016-.434,0-.5.152-.5.536q.016,8.546,0,17.092c0,.2.1.428-.106.595-.023-.024-.029-.044-.015-.059A.048.048,0,0,1,3387.4,1341.427Z" transform="translate(-2356.908 -400.121)" fill="#fff"/>
    <path id="Path_14124" data-name="Path 14124" d="M3584.783,1509.046h14.8c-.116.179-.3.093-.446.093q-6.921.008-13.843,0C3585.12,1509.141,3584.928,1509.2,3584.783,1509.046Z" transform="translate(-2534.978 -567.743)" fill="#fff"/>
    <path id="Path_14125" data-name="Path 14125" d="M3267.712,1509.069a.6.6,0,0,0-.019.078q-3.987.009-7.973.017c-1.679,0-3.359-.011-5.038-.017a.6.6,0,0,0-.019-.078Z" transform="translate(-2237.218 -567.763)" fill="#fff"/>
    <path id="Path_14126" data-name="Path 14126" d="M3301.209,988.135q-5.968-10.1-11.942-20.2c-.157-.265-.3-.429.108-.661,6.438-3.7,9.592-11.443,8.7-18.3a20.082,20.082,0,0,0-8.349-13.831,16.644,16.644,0,0,0-9.642-3.215c-8.559-.027-17.117-.013-25.676-.015-.065,0-.13.011-.195.017a1.222,1.222,0,0,0-.04.532q0,27.752,0,55.5a1.229,1.229,0,0,0,.039.532.89.89,0,0,0,.386.035q6.142,0,12.284,0a.762.762,0,0,0,.385-.04,1.666,1.666,0,0,0,.034-.583q0-8.55-.007-17.1c0-.4.1-.519.511-.516,2.515.019,5.031.009,7.546.011.143,0,.295-.043.428.053.387.642.777,1.282,1.161,1.926q4.818,8.1,9.633,16.2a.761.761,0,0,0,.43.046q6.968,0,13.936,0a.779.779,0,0,0,.43-.046A3.716,3.716,0,0,0,3301.209,988.135Zm-16.412-36.5a7.945,7.945,0,0,1-2.628,6.089,4.254,4.254,0,0,1-2.551,1.087,1,1,0,0,1-.34.027h-11.544a.783.783,0,0,1-.385-.039l0,0a1.083,1.083,0,0,1-.039-.482q0-7.163,0-14.326c0-.158-.052-.327.056-.474l-.011-.012a.551.551,0,0,1,.332-.046h11.237a.685.685,0,0,1,.289.032,6.222,6.222,0,0,1,4.531,3.171,7.517,7.517,0,0,1,1.056,3.9A2.4,2.4,0,0,1,3284.8,951.631Z" transform="translate(-2236.769 -47.179)" fill="#fff"/>
    <path id="Path_14127" data-name="Path 14127" d="M3387.938,1050.247q-.006,6.563-.012,13.127c0,.718,0,1.437-.006,2.155-.116-.145-.061-.315-.061-.472q-.005-7.177,0-14.354C3387.859,1050.552,3387.782,1050.376,3387.938,1050.247Z" transform="translate(-2357.34 -153.918)" fill="#fff"/>
    <path id="Path_14128" data-name="Path 14128" d="M3388.675,1206.178l12.268.013a.749.749,0,0,1-.43.049q-5.707,0-11.415,0C3388.957,1206.239,3388.8,1206.288,3388.675,1206.178Z" transform="translate(-2358.093 -294.563)" fill="#fff"/>
    <path id="Path_14129" data-name="Path 14129" d="M3400.577,1049.215l-11.858.015c.133-.14.307-.087.463-.087q5.462,0,10.924,0C3400.264,1049.143,3400.435,1049.1,3400.577,1049.215Z" transform="translate(-2358.133 -152.913)" fill="#fff"/>
    <path id="Path_14130" data-name="Path 14130" d="M3566.661,1123.2q0-.538,0-1.077A1.378,1.378,0,0,1,3566.661,1123.2Z" transform="translate(-2518.632 -218.744)" fill="#fff"/>
    <path id="Path_14131" data-name="Path 14131" d="M1640.128,952.02a28.358,28.358,0,0,0-8.115-16.105c-6.8-6.781-15.048-9.437-24.477-7.754-9.284,1.657-15.99,7.011-20.263,15.365a27.62,27.62,0,0,0-2.615,17.731,28.7,28.7,0,0,0,8.744,16.408,26.673,26.673,0,0,0,19.781,7.423,28.491,28.491,0,0,0,9.706-2.046c1.1-.438,2.14-1.012,3.229-1.476.1-.2-.063-.3-.165-.418-1.116-1.277-2.263-2.528-3.4-3.783-1.437-1.582-2.846-3.19-4.311-4.746-.115-.122-.21-.267-.4-.271.01.02.02.042.031.061a10.87,10.87,0,0,1-3.567.929,14.5,14.5,0,0,1-7.749-1.064,14.209,14.209,0,0,1-7.622-8.313,20.373,20.373,0,0,1,.812-16.788,13.211,13.211,0,0,1,9.39-7.475c8.281-1.691,14.366,2.976,16.74,9.332a20.505,20.505,0,0,1,.476,13.111,16.969,16.969,0,0,1-1.715,4.069l-.05-.055,0,0a.494.494,0,0,0,.17.391c.969,1.057,1.927,2.125,2.888,3.19.753.835,1.521,1.657,2.265,2.5.98,1.113,2.01,2.181,2.972,3.31.092.107.2.228.372.179.028-.04.052-.082.083-.119A28.228,28.228,0,0,0,1640.128,952.02Z" transform="translate(-730.506 -43.356)" fill="#fff"/>
    <path id="Path_14132" data-name="Path 14132" d="M2710.062,988.123c-.468-1.161-.873-2.348-1.3-3.525q-9.52-26.1-19.031-52.2a.481.481,0,0,0-.551-.378c-3.61.011-7.22.018-10.83-.006a.691.691,0,0,0-.784.552q-6.43,17.691-12.885,35.373-3.688,10.113-7.393,20.219c-.15.407-.068.476.341.475q6.248-.019,12.5,0a.485.485,0,0,0,.562-.377c1.334-3.964,2.685-7.922,4.019-11.887.1-.3.217-.428.565-.427q8.379.021,16.759,0a.477.477,0,0,1,.544.392c1.354,3.958,2.732,7.908,4.089,11.865a.543.543,0,0,0,.622.432c2.074-.017,4.149-.009,6.224-.009,2.058,0,4.116-.009,6.175.008C2710.1,988.634,2710.259,988.613,2710.062,988.123ZM2676.939,966.9l6.741-19.9,6.582,19.9Z" transform="translate(-1698.336 -47.271)" fill="#fff"/>
  </g>
</svg>
