<svg xmlns="http://www.w3.org/2000/svg" width="245.71" height="245.71" viewBox="0 0 245.71 245.71">
  <g id="Group_4907" data-name="Group 4907" transform="translate(-1270.632 -279.968)">
    <g id="Group_4895" data-name="Group 4895" transform="translate(1270.632 279.968)">
      <g id="Group_4892" data-name="Group 4892" transform="translate(0 0)">
        <circle id="Ellipse_1841" data-name="Ellipse 1841" cx="86.872" cy="86.872" r="86.872" transform="translate(0 122.855) rotate(-45)" fill="#4a85d3"/>
      </g>
      <g id="Group_4893" data-name="Group 4893" transform="translate(82.977 35.913)">
        <path id="Path_14788" data-name="Path 14788" d="M1377.752,308.165a86.885,86.885,0,0,1-41.971,164.069,86.879,86.879,0,1,0,41.971-164.069Z" transform="translate(-1335.781 -308.165)" fill="#407ec1"/>
      </g>
      <g id="Group_4894" data-name="Group 4894" transform="translate(41.929 42.565)">
        <path id="Path_14789" data-name="Path 14789" d="M1324.156,439.283a80.654,80.654,0,0,1,100.376-115.1A80.661,80.661,0,1,0,1353.6,468.672,80.28,80.28,0,0,1,1324.156,439.283Z" transform="translate(-1303.552 -313.388)" fill="#5b9add"/>
      </g>
    </g>
    <g id="Group_4896" data-name="Group 4896" transform="translate(1340.087 349.172)">
      <path id="Path_14790" data-name="Path 14790" d="M1405.327,345.067l-11.979,6.952-4.856,2.819-9.248,5.367a1.167,1.167,0,0,1-1.718-.693c-1.125-4.383-3.4-8.52-5.641-12.377a78.632,78.632,0,0,0-4.127-6.806,14.319,14.319,0,0,0-5.971-5.17,9.669,9.669,0,0,0-8.457.237c-5.958,3.457-3.512,9.843-1.324,14.893,2.555,5.895,5.612,11.748,6.122,18.252.358,4.552-.287,9.015-3.216,12.721a49.341,49.341,0,0,1-6.608,7.378,1.167,1.167,0,0,0-.249,1.466l22.383,38.568a1.174,1.174,0,0,0,1.6.425l10.671-6.193a1.18,1.18,0,0,1,1.059-.052,13.331,13.331,0,0,0,11.96-.722l16.6-9.633,12.056-7,4.78-2.773a10.288,10.288,0,0,0,3.723-14.02h0a8.969,8.969,0,0,0-2.884-3.028,1.146,1.146,0,0,1-.446-1.378c.973-2.493.23-6.46-1.209-8.94l-.59-1.016a8.966,8.966,0,0,0-2.882-3.027,1.146,1.146,0,0,1-.446-1.378,9.063,9.063,0,0,0-.584-7.865l-.59-1.015a8.956,8.956,0,0,0-2.882-3.027,1.146,1.146,0,0,1-.446-1.378,9.066,9.066,0,0,0-.585-7.866h0A10.287,10.287,0,0,0,1405.327,345.067Z" transform="translate(-1318.942 -334.303)" fill="#fff"/>
      <rect id="Rectangle_821" data-name="Rectangle 821" width="23.795" height="56.507" rx="2.744" transform="translate(0 65.554) rotate(-30.129)" fill="#fff"/>
    </g>
  </g>
</svg>
