<svg xmlns="http://www.w3.org/2000/svg" width="519.386" height="140.881" viewBox="0 0 519.386 140.881">
  <g id="Group_5130" data-name="Group 5130" transform="translate(-1392.442 -4815.257)">
    <g id="Group_5128" data-name="Group 5128" transform="translate(1392.442 4815.257)">
      <g id="Group_5084" data-name="Group 5084" transform="translate(0 0.851)">
        <path id="Path_14964" data-name="Path 14964" d="M801.772,474.321c11.064,0,22.13.086,33.193-.058,2.888-.037,4.01.556,3.986,3.774q-.23,29.9-.009,59.807c.022,3.125-.831,3.58-3.727,2.986-21.38-4.391-42.789-8.632-64.193-12.9-1.257-.25-2.547-.326-3.814-.526-1.75-.276-2.607-1.128-2.6-3.1q.1-23.729,0-47.459c-.013-2.56,1.4-2.537,3.2-2.533Q784.79,474.346,801.772,474.321Z" transform="translate(-711.413 -401.874)" fill="#233d63"/>
        <path id="Path_14965" data-name="Path 14965" d="M801.4,447.376c-10.948,0-21.9-.083-32.841.056-2.873.036-4.041-.53-4-3.773.181-15.062.1-30.129.054-45.193-.006-2.1.107-3.638,2.747-4.15q34.081-6.609,68.113-13.469c2.782-.562,3.471.012,3.454,2.857q-.17,30.129,0,60.257c.014,2.74-.853,3.5-3.52,3.468C824.067,447.3,812.732,447.376,801.4,447.376Z" transform="translate(-711.401 -380.653)" fill="#233d63"/>
        <path id="Path_14966" data-name="Path 14966" d="M742.234,499.487c0,7.592-.056,15.185.036,22.775.028,2.309-.4,3.2-3.041,2.644q-19.988-4.2-40.055-8.025c-2.492-.472-3.388-1.254-3.355-3.888.148-11.708.128-23.42.015-35.128-.025-2.54.483-3.635,3.338-3.605q19.885.206,39.773,0c2.874-.03,3.386,1.08,3.337,3.612C742.143,485.072,742.233,492.28,742.234,499.487Z" transform="translate(-695.819 -401.873)" fill="#233d63"/>
        <path id="Path_14967" data-name="Path 14967" d="M742.237,426.817c0,7.336-.092,14.675.049,22.009.049,2.528-.754,3.315-3.288,3.295q-19.891-.161-39.783.007c-2.82.028-3.409-1-3.382-3.592q.181-17.566,0-35.137c-.027-2.573.752-3.406,3.342-3.884q20.088-3.7,40.071-7.961c2.718-.581,3.047.176,3.022,2.482C742.188,411.629,742.238,419.223,742.237,426.817Z" transform="translate(-695.822 -385.349)" fill="#233d63"/>
      </g>
      <g id="Group_5085" data-name="Group 5085" transform="translate(205.386)">
        <path id="Path_14968" data-name="Path 14968" d="M961.414,468.1c.073-11.505,1.758-20.251,6.754-28.113,9.288-14.615,25.016-19.892,40.841-13.028,6.791,2.946,12.709,3.006,19.513.04,15.246-6.646,29.96-3.731,39.706,6.949,1.976,2.164,2.8,3.341-.279,5.779-17.8,14.108-15.754,40.019,3.942,51.548,2.2,1.288,2.405,2.341,1.6,4.536a81.152,81.152,0,0,1-17,27.779c-6.658,7.093-13.561,8.47-22.389,4.253-9.16-4.375-17.969-4.226-27.108.019-9.317,4.327-15.282,3.23-22.225-4.366C969.86,507.193,962.214,487.836,961.414,468.1Z" transform="translate(-961.414 -389.505)" fill="#233d63"/>
        <path id="Path_14969" data-name="Path 14969" d="M1062.252,382.677c-.346,13.49-9.778,25.548-22.2,28.855-5.318,1.416-6.474.411-5.8-5.043,1.6-12.9,12.21-24.249,24.851-26.8C1062.5,379.01,1062.383,380.943,1062.252,382.677Z" transform="translate(-977.886 -379.553)" fill="#233d63"/>
      </g>
      <g id="Group_5086" data-name="Group 5086" transform="translate(399.633 10.545)">
        <path id="Path_14970" data-name="Path 14970" d="M1300.26,439.482c4.137,0,8.274.026,12.411-.005q14.873-.114,29.746-.293a1.978,1.978,0,0,1,2.219,1.545,61.383,61.383,0,0,1,3.93,15.1,66.783,66.783,0,0,1,.1,13.951,61.714,61.714,0,0,1-3.352,14.845,54.44,54.44,0,0,1-8.26,14.945,55.6,55.6,0,0,1-6.557,7.373,59.335,59.335,0,0,1-24.259,14.045,62.551,62.551,0,0,1-19.3,2.389c-.991-.029-1.308-.087-.7-1.155q9.03-16,17.976-32.04c3.018-5.384,6.228-10.672,9-16.18a22,22,0,0,0,2.1-10.31,26.056,26.056,0,0,0-5.854-16.658,22.918,22.918,0,0,0-9.273-7.162Z" transform="translate(-1229.226 -403.616)" fill="#233d63"/>
        <path id="Path_14971" data-name="Path 14971" d="M1223.011,426.874c1.022,1.778,2,3.439,2.939,5.12q6.174,11.023,12.333,22.055c3.8,6.79,7.357,13.73,11.465,20.328a25.707,25.707,0,0,0,16.962,12.051,26.927,26.927,0,0,0,19.213-2.948,20.111,20.111,0,0,1-1.95,3.731c-6.049,10.673-11.927,21.445-18.281,31.943-.4.664-.634,1.076-1.694.93a58.6,58.6,0,0,1-22.434-7.93,57.928,57.928,0,0,1-12.858-10.393,60.092,60.092,0,0,1-12.228-19.564,59.375,59.375,0,0,1-3.462-13.707,66.977,66.977,0,0,1-.094-13.953,58.82,58.82,0,0,1,3.314-14.576A56.991,56.991,0,0,1,1223.011,426.874Z" transform="translate(-1212.605 -400.825)" fill="#233d63"/>
        <path id="Path_14972" data-name="Path 14972" d="M1249.7,453.91q-1.663-2.943-3.327-5.886-8.327-14.785-16.653-29.57c-1.1-1.945-1.141-1.977.273-3.628a63.666,63.666,0,0,1,18.438-14.907,62.012,62.012,0,0,1,16.481-5.7,58.587,58.587,0,0,1,16.475-.8,56.431,56.431,0,0,1,19.841,5.149,58.284,58.284,0,0,1,12.359,7.72,63.3,63.3,0,0,1,6.375,5.871,65.589,65.589,0,0,1,9.575,13.4c.31.571.136.841-.512.823-.318-.009-.637,0-.955,0-8.234,0-16.469-.089-24.7.025-8.584.118-17.167.157-25.75.274a28.487,28.487,0,0,0-18,6.114,25.294,25.294,0,0,0-9.09,14.858A40.34,40.34,0,0,0,1249.7,453.91Z" transform="translate(-1216.303 -393.189)" fill="#233d63"/>
        <path id="Path_14973" data-name="Path 14973" d="M1283.186,486.772c-11.525.74-23.338-10.232-22.587-23.619.612-10.9,10.256-22.472,24.619-21.5,9.955.671,21.9,10.075,20.766,24.443C1305.151,476.641,1296.475,487.108,1283.186,486.772Z" transform="translate(-1223.477 -404.162)" fill="#233d63"/>
      </g>
    </g>
  </g>
</svg>
